<svg width="20" height="20" viewBox="0 0 20 20" fill="none" xmlns="http://www.w3.org/2000/svg">
<path fill-rule="evenodd" clip-rule="evenodd" d="M14.5658 19.7599C14.7869 19.9164 15.0475 20.0002 15.3142 20.0004C15.5209 20.0025 15.7252 19.9547 15.9113 19.8606C16.0975 19.7666 16.2605 19.6288 16.3877 19.458C16.515 19.2873 16.603 19.0881 16.645 18.8759C16.687 18.6637 16.6819 18.4442 16.63 18.2345L15.1513 12.7657C15.1434 12.7383 15.1439 12.709 15.1525 12.6818C15.1611 12.6546 15.1776 12.6309 15.1995 12.6138L19.4606 9.10091C19.6849 8.92566 19.8513 8.68119 19.9364 8.40176C20.0216 8.12233 20.0212 7.82196 19.9353 7.54277C19.8495 7.26358 19.6825 7.01958 19.4577 6.84496C19.2329 6.67034 18.9617 6.57388 18.682 6.56909L13.2501 6.35388C13.2234 6.35195 13.1978 6.34196 13.1764 6.32511C13.1549 6.30827 13.1386 6.28529 13.1294 6.25894L11.2584 0.923118C11.1641 0.652618 10.9928 0.419043 10.7677 0.254018C10.5426 0.0889923 10.2746 0.000488281 10 0.000488281C9.72537 0.000488281 9.45737 0.0889923 9.23229 0.254018C9.00721 0.419043 8.83591 0.652618 8.74161 0.923118L6.87061 6.25894C6.86137 6.28529 6.84505 6.30827 6.82363 6.32511C6.80222 6.34196 6.77661 6.35195 6.74991 6.35388L1.31799 6.56909C1.03831 6.57388 0.767074 6.67034 0.542311 6.84496C0.317547 7.01958 0.150529 7.26358 0.0646742 7.54277C-0.0211803 7.82196 -0.0215655 8.12233 0.0635726 8.40176C0.148711 8.68119 0.315103 8.92566 0.539418 9.10091L4.80045 12.6138C4.82178 12.6314 4.83772 12.6552 4.8463 12.6822C4.85488 12.7092 4.85573 12.7382 4.84874 12.7657L3.37005 18.2345C3.30101 18.5102 3.3136 18.8015 3.40613 19.0696C3.49867 19.3377 3.66678 19.5699 3.88813 19.7354C4.10949 19.9009 4.37362 19.9919 4.64544 19.9963C4.91727 20.0007 5.18394 19.9182 5.41003 19.7599L9.91249 16.5951C9.93466 16.5791 9.96098 16.5705 9.98793 16.5705C10.0149 16.5705 10.0412 16.5791 10.0634 16.5951L14.5658 19.7599ZM9.99101 15.3039C10.2583 15.3125 10.5169 15.4051 10.7334 15.5697L15.2358 18.7345C15.2586 18.7527 15.2865 18.7626 15.3151 18.7629C15.3438 18.7631 15.3717 18.7536 15.3948 18.7358C15.4179 18.718 15.4349 18.6929 15.4432 18.6641C15.4515 18.6353 15.4508 18.6045 15.441 18.5763L13.9623 13.1075C13.8896 12.8393 13.8949 12.5543 13.9778 12.2892C14.0606 12.0242 14.217 11.7912 14.4271 11.6201L18.6881 8.10717C18.7113 8.09005 18.7287 8.06556 18.7377 8.0373C18.7467 8.00904 18.7468 7.97851 18.7381 7.95018C18.7293 7.92185 18.7121 7.89722 18.689 7.8799C18.6658 7.86259 18.638 7.85351 18.6096 7.85399L13.1777 7.63878C12.9118 7.62791 12.6549 7.5342 12.4399 7.36962C12.2249 7.20503 12.0616 6.97702 11.9706 6.71466L10.0996 1.37884C10.0912 1.35051 10.0744 1.32575 10.0516 1.30816C10.0288 1.29058 10.0012 1.2811 9.9729 1.2811L9.99101 15.3039Z" fill="#FED33B"/>
</svg>
