<svg width="28" height="28" viewBox="0 0 28 28" fill="none" xmlns="http://www.w3.org/2000/svg">
<path d="M21.4399 27.9999C21.0665 27.9995 20.7017 27.8823 20.3922 27.6632L14.0887 23.2325C14.0577 23.21 14.0208 23.198 13.9831 23.198C13.9454 23.198 13.9085 23.21 13.8775 23.2325L7.57405 27.6632C7.25752 27.8848 6.88418 28.0002 6.50362 27.9941C6.12306 27.988 5.75328 27.8606 5.44338 27.6289C5.13349 27.3972 4.89814 27.0721 4.76859 26.6967C4.63904 26.3214 4.62142 25.9136 4.71807 25.5276L6.78823 17.8713C6.79802 17.8328 6.79683 17.7922 6.78482 17.7544C6.7728 17.7166 6.75049 17.6833 6.72063 17.6587L0.755185 12.7406C0.441144 12.4952 0.208195 12.153 0.0890017 11.7618C-0.0301916 11.3706 -0.0296524 10.9501 0.0905439 10.5592C0.21074 10.1683 0.444566 9.82672 0.759235 9.58226C1.0739 9.3378 1.45364 9.20275 1.84519 9.19604L9.44987 8.89475C9.48726 8.89205 9.5231 8.87806 9.55309 8.85448C9.58307 8.83089 9.60591 8.79872 9.61886 8.76183L12.2382 1.29168C12.3703 0.912981 12.6101 0.585976 12.9252 0.354941C13.2403 0.123906 13.6155 0 14 0C14.3845 0 14.7597 0.123906 15.0748 0.354941C15.3899 0.585976 15.6297 0.912981 15.7617 1.29168L18.3811 8.76183C18.3941 8.79872 18.4169 8.83089 18.4469 8.85448C18.4769 8.87806 18.5127 8.89205 18.5501 8.89475L26.1548 9.19604C26.5464 9.20275 26.9261 9.3378 27.2408 9.58226C27.5554 9.82672 27.7893 10.1683 27.9095 10.5592C28.0296 10.9501 28.0302 11.3706 27.911 11.7618C27.7918 12.153 27.5589 12.4952 27.2448 12.7406L21.2794 17.6587C21.2486 17.6825 21.2256 17.7157 21.2135 17.7538C21.2014 17.7919 21.2008 17.8329 21.2118 17.8713L23.2819 25.5276C23.3546 25.8212 23.3618 26.1285 23.303 26.4256C23.2442 26.7226 23.121 27.0015 22.9428 27.2406C22.7647 27.4797 22.5365 27.6725 22.2759 27.8042C22.0152 27.9359 21.7292 28.0028 21.4399 27.9999ZM13.9873 21.4248C14.3615 21.4368 14.7236 21.5664 15.0266 21.7969L21.3301 26.2276C21.362 26.2531 21.401 26.267 21.4411 26.2674C21.4812 26.2677 21.5203 26.2544 21.5527 26.2295C21.585 26.2046 21.6088 26.1693 21.6204 26.1291C21.6321 26.0888 21.631 26.0457 21.6174 26.0061L19.5472 18.3499C19.4453 17.9743 19.4528 17.5753 19.5688 17.2043C19.6847 16.8332 19.9038 16.507 20.1978 16.2674L26.1633 11.3494C26.1958 11.3254 26.2202 11.2911 26.2327 11.2515C26.2453 11.212 26.2455 11.1692 26.2332 11.1296C26.2209 11.0899 26.1968 11.0554 26.1645 11.0312C26.1321 11.0069 26.0932 10.9942 26.0534 10.9949L18.4487 10.6936C18.0764 10.6784 17.7168 10.5472 17.4158 10.3168C17.1148 10.0864 16.8861 9.76715 16.7588 9.39985L14.1394 1.9297C14.1276 1.89004 14.104 1.85537 14.0721 1.83075C14.0402 1.80614 14.0016 1.79286 13.962 1.79286C13.9224 1.79286 13.8838 1.80614 13.8518 1.83075C13.8199 1.85537 13.7963 1.89004 13.7845 1.9297L11.1905 9.39099C11.0632 9.75829 10.8345 10.0775 10.5335 10.3079C10.2325 10.5383 9.87293 10.6695 9.50056 10.6848L1.89589 10.986C1.85612 10.9854 1.8172 10.9981 1.78484 11.0223C1.75248 11.0466 1.72839 11.081 1.7161 11.1207C1.70381 11.1604 1.70397 11.2031 1.71656 11.2427C1.72915 11.2822 1.7535 11.3165 1.78604 11.3405L7.75994 16.2674C8.05309 16.5077 8.27148 16.834 8.38733 17.2048C8.50319 17.5756 8.51127 17.9742 8.41056 18.3499L6.34885 26.0061C6.33654 26.0444 6.33648 26.0859 6.34868 26.1243C6.36088 26.1627 6.38467 26.1958 6.41644 26.2188C6.44705 26.2462 6.48601 26.2613 6.52629 26.2613C6.56657 26.2613 6.60553 26.2462 6.63614 26.2188L12.9396 21.7881C13.2476 21.5738 13.6092 21.4597 13.9789 21.4602L13.9873 21.4248Z" fill="#FED33B"/>
</svg>
