<svg width="28" height="28" viewBox="0 0 28 28" fill="none" xmlns="http://www.w3.org/2000/svg">
<path d="M27.245 12.6991C27.559 12.4541 27.7919 12.1122 27.911 11.7215C28.0302 11.3307 28.0296 10.9107 27.9095 10.5203C27.7893 10.1299 27.5556 9.78867 27.241 9.54449C26.9264 9.30032 26.5468 9.16542 26.1554 9.15872L18.553 8.85779C18.5156 8.85508 18.4798 8.84111 18.4498 8.81756C18.4198 8.794 18.397 8.76187 18.384 8.72502L15.757 1.29017C15.625 0.911913 15.3853 0.58529 15.0702 0.354525C14.7552 0.123761 14.3801 0 13.9958 0C13.6114 0 13.2363 0.123761 12.9213 0.354525C12.6063 0.58529 12.3665 0.911913 12.2346 1.29017L9.61596 8.75158C9.60301 8.78842 9.58018 8.82055 9.5502 8.84411C9.52023 8.86767 9.4844 8.88164 9.44702 8.88434L1.84463 9.18528C1.4532 9.19198 1.07358 9.32687 0.759006 9.57104C0.444432 9.81522 0.210677 10.1564 0.0905166 10.5468C-0.0296434 10.9372 -0.0301825 11.3573 0.0889748 11.748C0.208132 12.1388 0.441011 12.4806 0.754957 12.7257L6.7186 17.638C6.74845 17.6626 6.77076 17.6958 6.78277 17.7336C6.79478 17.7714 6.79597 17.812 6.78618 17.8504L4.73354 25.4711C4.62717 25.8592 4.63748 26.2722 4.76305 26.6539C4.88863 27.0356 5.12337 27.3675 5.43536 27.6045C5.74735 27.8414 6.12143 27.9719 6.50671 27.9782C6.89199 27.9845 7.26977 27.8663 7.58865 27.6396L13.8902 23.2141C13.9212 23.1917 13.9581 23.1797 13.9958 23.1797C14.0335 23.1797 14.0703 23.1917 14.1014 23.2141L20.4029 27.6396C20.7175 27.8741 21.0939 28 21.4799 28C21.8659 28 22.2423 27.8741 22.5569 27.6396C22.869 27.4049 23.1039 27.0746 23.2295 26.6942C23.3551 26.3138 23.365 25.902 23.258 25.5154L21.1885 17.8681C21.1775 17.8297 21.1781 17.7887 21.1902 17.7507C21.2023 17.7127 21.2253 17.6795 21.2561 17.6557L27.245 12.6991Z" fill="#FED33B"/>
</svg>
