<svg width="64" height="65" viewBox="0 0 64 65" fill="none" xmlns="http://www.w3.org/2000/svg">
<path d="M23.6673 35.2775C21.4572 35.2775 19.3376 34.3995 17.7748 32.8367C16.212 31.2739 15.334 29.1543 15.334 26.9442C15.334 24.734 16.212 22.6144 17.7748 21.0516C19.3376 19.4888 21.4572 18.6108 23.6673 18.6108C25.8775 18.6108 27.9971 19.4888 29.5599 21.0516C31.1227 22.6144 32.0006 24.734 32.0006 26.9442C32.0006 29.1543 31.1227 31.2739 29.5599 32.8367C27.9971 34.3995 25.8775 35.2775 23.6673 35.2775Z" stroke="#DC0000" stroke-width="4" stroke-linecap="round"/>
<path d="M7 57.4997V54.722C7 51.7751 8.17063 48.9489 10.2544 46.8652C12.3381 44.7815 15.1643 43.6108 18.1111 43.6108H29.2222C32.1691 43.6108 34.9952 44.7815 37.079 46.8652C39.1627 48.9489 40.3333 51.7751 40.3333 54.722V57.4997" stroke="#DC0000" stroke-width="4" stroke-linecap="round"/>
<path d="M48.666 7.5V24.1667" stroke="#DC0000" stroke-width="4" stroke-linecap="round"/>
<path d="M40.334 15.833H57.0006" stroke="#DC0000" stroke-width="4" stroke-linecap="round"/>
</svg>
