<svg width="65" height="64" viewBox="0 0 65 64" fill="none" xmlns="http://www.w3.org/2000/svg">
<path fill-rule="evenodd" clip-rule="evenodd" d="M43.541 57.375C47.3867 57.375 51.0748 55.8473 53.7941 53.128C56.5133 50.4088 58.041 46.7206 58.041 42.875C58.041 39.0294 56.5133 35.3412 53.7941 32.622C51.0748 29.9027 47.3867 28.375 43.541 28.375C39.6954 28.375 36.0072 29.9027 33.288 32.622C30.5687 35.3412 29.041 39.0294 29.041 42.875C29.041 46.7206 30.5687 50.4088 33.288 53.128C36.0072 55.8473 39.6954 57.375 43.541 57.375ZM61.666 42.875C61.666 47.682 59.7564 52.2922 56.3573 55.6913C52.9582 59.0904 48.3481 61 43.541 61C38.734 61 34.1238 59.0904 30.7247 55.6913C27.3256 52.2922 25.416 47.682 25.416 42.875C25.416 38.068 27.3256 33.4578 30.7247 30.0587C34.1238 26.6596 38.734 24.75 43.541 24.75C48.3481 24.75 52.9582 26.6596 56.3573 30.0587C59.7564 33.4578 61.666 38.068 61.666 42.875Z" fill="#DC0000"/>
<path d="M37.8786 46.297C38.049 48.4575 39.7564 50.1395 42.8195 50.3425V51.9375H44.1789V50.3316C47.3507 50.1105 49.2031 48.414 49.2031 45.9563C49.2031 43.716 47.7894 42.5632 45.2519 41.9688L44.1789 41.715V37.365C45.5419 37.5209 46.4046 38.264 46.6112 39.2935H48.9965C48.8261 37.2091 47.039 35.5815 44.1789 35.4039V33.8125H42.8195V35.4437C40.1116 35.7084 38.2701 37.336 38.2701 39.6415C38.2701 41.6787 39.6404 42.9765 41.9205 43.5057L42.8195 43.7269V48.3379C41.4275 48.1276 40.5031 47.3591 40.2965 46.297H37.875H37.8786ZM42.8086 41.3888C41.471 41.0806 40.746 40.4462 40.746 39.4965C40.746 38.4307 41.529 37.6332 42.8195 37.4012V41.3888H42.8086ZM44.3746 44.093C46.0022 44.47 46.749 45.079 46.749 46.1556C46.749 47.3845 45.8174 48.2255 44.1789 48.3814V44.0495L44.3746 44.093Z" fill="#DC0000"/>
<path d="M7.29102 3C6.32961 3 5.40757 3.38192 4.72775 4.06174C4.04793 4.74156 3.66602 5.66359 3.66602 6.625L3.66602 35.625C3.66602 36.5864 4.04793 37.5084 4.72775 38.1883C5.40757 38.8681 6.32961 39.25 7.29102 39.25H22.0919C22.3021 38.003 22.6175 36.7923 23.0271 35.625H14.541C14.541 33.7022 13.7772 31.8581 12.4175 30.4985C11.0579 29.1388 9.21384 28.375 7.29102 28.375V13.875C9.21384 13.875 11.0579 13.1112 12.4175 11.7515C13.7772 10.3919 14.541 8.54782 14.541 6.625H50.791C50.791 8.54782 51.5549 10.3919 52.9145 11.7515C54.2741 13.1112 56.1182 13.875 58.041 13.875V26.664C59.4185 27.8965 60.6401 29.303 61.666 30.8472V6.625C61.666 5.66359 61.2841 4.74156 60.6043 4.06174C59.9245 3.38192 59.0024 3 58.041 3H7.29102Z" fill="#DC0000"/>
<path d="M39.9088 21.4257L39.916 21.1248C39.9153 19.8764 39.5921 18.6492 38.9779 17.5623C38.3637 16.4754 37.4792 15.5655 36.4101 14.9207C35.3409 14.276 34.1234 13.9182 32.8755 13.8822C31.6275 13.8461 30.3914 14.1329 29.2868 14.7148C28.1823 15.2967 27.2467 16.154 26.5707 17.2037C25.8947 18.2533 25.5012 19.4597 25.4284 20.7061C25.3555 21.9524 25.6058 23.1965 26.1548 24.3177C26.7039 25.439 27.5333 26.3994 28.5625 27.1061C31.6936 24.1237 35.6449 22.1455 39.9088 21.4257Z" fill="#DC0000"/>
</svg>
