<svg width="64" height="65" viewBox="0 0 64 65" fill="none" xmlns="http://www.w3.org/2000/svg">
<path d="M32 44.5C29.6266 44.5 27.3066 43.7962 25.3332 42.4776C23.3598 41.1591 21.8217 39.2849 20.9135 37.0922C20.0052 34.8995 19.7676 32.4867 20.2306 30.1589C20.6936 27.8311 21.8365 25.693 23.5147 24.0147C25.193 22.3365 27.3311 21.1936 29.6589 20.7306C31.9867 20.2676 34.3995 20.5052 36.5922 21.4135C38.7849 22.3217 40.6591 23.8598 41.9776 25.8332C43.2962 27.8066 44 30.1266 44 32.5C44.0171 34.0806 43.7185 35.6488 43.1215 37.1124C42.5245 38.576 41.6412 39.9057 40.5235 41.0235C39.4057 42.1412 38.076 43.0245 36.6124 43.6215C35.1488 44.2185 33.5806 44.5171 32 44.5ZM32 24.5C30.9428 24.4759 29.8918 24.6664 28.9103 25.0599C27.9288 25.4535 27.0373 26.0419 26.2896 26.7896C25.5419 27.5373 24.9535 28.4288 24.5599 29.4103C24.1664 30.3918 23.9759 31.4428 24 32.5C23.9759 33.5572 24.1664 34.6082 24.5599 35.5897C24.9535 36.5712 25.5419 37.4627 26.2896 38.2104C27.0373 38.9582 27.9288 39.5465 28.9103 39.9401C29.8918 40.3336 30.9428 40.5241 32 40.5C33.0572 40.5241 34.1082 40.3336 35.0897 39.9401C36.0712 39.5465 36.9627 38.9582 37.7104 38.2104C38.4582 37.4627 39.0465 36.5712 39.4401 35.5897C39.8336 34.6082 40.0241 33.5572 40 32.5C40.0241 31.4428 39.8336 30.3918 39.4401 29.4103C39.0465 28.4288 38.4582 27.5373 37.7104 26.7896C36.9627 26.0419 36.0712 25.4535 35.0897 25.0599C34.1082 24.6664 33.0572 24.4759 32 24.5Z" fill="#DC0000"/>
<path d="M58.6103 22.588L53.8903 14.412C53.4283 13.6104 52.7024 12.9939 51.8365 12.6678C50.9706 12.3417 50.0184 12.3263 49.1423 12.624L44.2743 14.27C43.4354 13.7052 42.5587 13.1987 41.6503 12.754L40.6443 7.716C40.463 6.80889 39.9729 5.99266 39.2574 5.40628C38.542 4.8199 37.6454 4.49963 36.7203 4.5H27.2803C26.3553 4.49963 25.4587 4.8199 24.7432 5.40628C24.0278 5.99266 23.5376 6.80889 23.3563 7.716L22.3503 12.754C21.4318 13.1938 20.545 13.697 19.6963 14.26L14.8563 12.624C13.9808 12.3273 13.0295 12.3433 12.1645 12.6694C11.2994 12.9954 10.5742 13.6112 10.1123 14.412L5.39233 22.588C4.92995 23.3886 4.75917 24.3246 4.90903 25.2369C5.05889 26.1492 5.52014 26.9814 6.21433 27.592L10.0763 30.986C10.0423 31.49 10.0003 31.99 10.0003 32.5C10.0003 33.016 10.0203 33.526 10.0563 34.032L6.21633 37.408C5.52149 38.0181 5.05948 38.85 4.90888 39.7624C4.75829 40.6747 4.92842 41.611 5.39033 42.412L10.1103 50.588C10.5721 51.39 11.2978 52.0069 12.1638 52.3333C13.0297 52.6598 13.9821 52.6756 14.8583 52.378L19.7263 50.73C20.565 51.2959 21.4417 51.8031 22.3503 52.248L23.3563 57.284C23.5376 58.1911 24.0278 59.0073 24.7432 59.5937C25.4587 60.1801 26.3553 60.5004 27.2803 60.5H36.0003V56.5H27.2803L25.8603 49.4C23.896 48.6703 22.0725 47.6066 20.4703 46.256L13.5763 48.588L8.85633 40.412L14.3063 35.622C13.9335 33.5537 13.9287 31.4359 14.2923 29.366L8.85633 24.588L13.5763 16.412L20.4303 18.732C22.0439 17.3795 23.8816 16.3195 25.8603 15.6L27.2803 8.5H36.7203L38.1403 15.6C40.1046 16.3298 41.9281 17.3935 43.5303 18.744L50.4243 16.412L55.1443 24.588L49.5483 29.492L52.1843 32.5L57.7843 27.592C58.4792 26.9819 58.9412 26.15 59.0918 25.2376C59.2424 24.3253 59.0722 23.389 58.6103 22.588Z" fill="#DC0000"/>
<path d="M46 52.8602L40.82 47.6802L38 50.5002L46 58.5002L60 44.5002L57.18 41.6802L46 52.8602Z" fill="#DC0000"/>
</svg>
