<svg width="260" height="46" viewBox="0 0 260 46" fill="none" xmlns="http://www.w3.org/2000/svg">
<rect width="148.032" height="23" fill="black"/>
<rect y="23" width="260" height="23" fill="black"/>
<path fill-rule="evenodd" clip-rule="evenodd" d="M18.469 23.3399V18.8897C16.303 18.8897 13.9945 18.6785 11.9166 19.2975C9.95821 19.881 8.2116 20.9747 6.81515 22.4156C4.67644 24.6239 3.35547 27.6583 3.35547 30.9269V40.7745C3.35547 42.0272 4.3745 43.0436 5.63047 43.0436C6.88643 43.0436 7.90547 42.0272 7.90547 40.7745V36.5544V30.9269C7.90547 28.8608 8.73789 26.9452 10.0861 25.5545C11.3547 24.2433 13.0782 23.4005 14.9779 23.3482C16.1227 23.3315 17.3368 23.3399 18.469 23.3399Z" fill="white"/>
<path fill-rule="evenodd" clip-rule="evenodd" d="M3.35547 5.61445C3.35547 4.3618 4.3745 3.34546 5.63047 3.34546H21.5366V7.88345H7.90756C7.90756 12.0722 7.90756 16.261 7.90756 20.4497H3.35756C3.35547 15.506 3.35547 10.5602 3.35547 5.61445Z" fill="white"/>
<path fill-rule="evenodd" clip-rule="evenodd" d="M18.4648 43.0728L25.3968 43.0436H27.6718H31.0455C34.3898 43.0436 37.4281 41.6801 39.6276 39.4864C41.8292 37.2906 43.1942 34.2604 43.1942 30.9269C43.1942 27.5935 41.8271 24.5633 39.6276 22.3675C37.426 20.1717 34.3877 18.8103 31.0455 18.8103H27.4285V7.88564H33.1632H40.9213V3.34766H22.8765C22.8765 4.85962 22.8765 6.37367 22.8765 7.88564V19.8601C22.8765 21.4536 23.1763 23.3483 25.2311 23.3483H25.2647H31.0455C33.1318 23.3483 35.0315 24.2015 36.4111 25.5754C37.7887 26.9494 38.6463 28.844 38.6463 30.9269C38.6463 33.0077 37.7908 34.9024 36.4132 36.2784C35.0356 37.6523 33.136 38.5265 31.0476 38.5265C28.4056 38.5265 21.1068 38.5579 18.4648 38.5579V40.8038V40.8059V40.808V43.0728Z" fill="white"/>
<path fill-rule="evenodd" clip-rule="evenodd" d="M27.99 30.4374C27.99 32.0665 26.8011 33.3861 25.3334 33.3861C23.8656 33.3861 22.6768 32.0665 22.6768 30.4374C22.6768 28.8083 23.8656 27.4888 25.3334 27.4888C26.8011 27.4888 27.99 28.8083 27.99 30.4374Z" fill="white"/>
<path fill-rule="evenodd" clip-rule="evenodd" d="M21.002 31.9765C20.7923 31.8092 20.6266 31.4557 20.547 31.0082L20.5449 30.9957V30.9915L20.5428 30.981L20.5407 30.9685L20.5386 30.9601V30.9559L20.5323 30.9162L20.5302 30.9037L20.5281 30.889L20.526 30.8744L20.5218 30.8472L20.5197 30.8326V30.8284L20.5176 30.8179L20.5155 30.8033V30.7949V30.7907L20.5134 30.7761L20.5113 30.7615L20.5092 30.7489L20.5071 30.7343V30.728V30.7196L20.505 30.705V30.6925V30.6904L20.5029 30.6757V30.6611V30.6569V30.6464V30.6318V30.6234V30.6172V30.6025V30.5879V30.5733V30.5586V30.5523V30.544V30.5168V30.5147V30.5V30.4854V30.4833V30.4708V30.4561V30.4478V30.4415V30.4269V30.4122V30.3976V30.3829V30.3767V30.3683V30.3537V30.3411V30.3369V30.3223V30.3077V30.3056V30.2784V30.27V30.2637V30.2491V30.2345V30.2198V30.2052V30.1989V30.1905V30.1759V30.1655V30.1613V30.1466L20.505 30.132V30.1299V30.1174L20.5071 30.1027V30.0943V30.0881L20.5092 30.0734L20.5113 30.0588L20.5134 30.0442L20.5155 30.0295V30.0253V30.017L20.5176 30.0023L20.5197 29.9919V29.9877L20.5218 29.9731L20.526 29.9459L20.5281 29.9312L20.5302 29.9187L20.5323 29.9041L20.5365 29.8769L20.5386 29.8643V29.8601L20.5407 29.8518L20.5428 29.8392L20.5449 29.8288V29.8246L20.547 29.812C20.6266 29.3666 20.7923 29.0111 21.002 28.8438C21.0124 28.7497 21.0733 28.6702 21.1613 28.6263V28.5991V28.5594L21.1634 28.5176C21.1655 28.4925 21.1676 28.4653 21.1697 28.4402C21.1739 28.3879 21.1823 28.3314 21.1886 28.275C21.2221 28.0554 21.2892 27.8337 21.3857 27.6162C21.4821 27.3987 21.61 27.1875 21.7631 26.993C21.9162 26.7986 22.0965 26.6187 22.2894 26.4577C23.7991 25.2176 25.9881 25.1005 27.697 26.0415C27.9108 26.1586 28.1226 26.2988 28.3155 26.4577C28.5105 26.6166 28.6887 26.7965 28.8418 26.993C28.997 27.1875 29.1228 27.3987 29.2192 27.6162C29.3157 27.8337 29.3828 28.0554 29.4163 28.275C29.4226 28.3293 29.4331 28.3879 29.4352 28.4402C29.4373 28.4674 29.4394 28.4925 29.4415 28.5176L29.4436 28.5594V28.5991V28.6075C29.5589 28.6409 29.6449 28.733 29.6554 28.8438C29.8147 28.9714 29.951 29.2098 30.0412 29.513L30.0454 29.5276V29.5318L30.0495 29.5485L30.0516 29.5611L30.0537 29.5674L30.0558 29.5736L30.06 29.5862V29.5883L30.0621 29.5987L30.0642 29.605L30.0663 29.6113L30.0684 29.6176L30.0705 29.6217V29.6238L30.0726 29.6364L30.0747 29.6406L30.0768 29.6468L30.0789 29.6594V29.6615L30.0831 29.6782L30.0852 29.6866L30.0873 29.697V29.6991L30.0894 29.7075V29.7117V29.7137L30.0915 29.7242L30.0936 29.7326V29.7368L30.0957 29.7493V29.7514L30.0999 29.7681V29.7702V29.7744L30.102 29.7869V29.789V29.7911L30.1041 29.7995L30.1062 29.8078V29.8141L30.1083 29.8267V29.8308L30.1103 29.8413V29.8476L30.1124 29.8539L30.1145 29.8622V29.8664L30.1166 29.879V29.8852L30.1187 29.8936L30.1208 29.9041V29.9061V29.9082L30.1229 29.9229V29.9271V29.9291V29.9375L30.125 29.948V29.9501L30.1271 29.9647V29.9689L30.1292 29.9793L30.1313 29.9898V29.994V29.9982L30.1334 30.0086L30.1355 30.0233V30.0295V30.0316V30.0337V30.0358L30.1418 30.0902V30.0923V30.0985V30.1069V30.1132V30.1194V30.132V30.1341V30.1487V30.155V30.1634V30.1675V30.178V30.1801V30.1947V30.1989V30.2031V30.2094V30.2219V30.224V30.2386V30.2428V30.2533V30.2637V30.2679V30.2742V30.2826V30.2868V30.2993V30.3098V30.3118V30.3139V30.3286V30.3307V30.3432V30.3474V30.3537V30.3599V30.3746V30.3829V30.3892V30.3976V30.4039V30.4185V30.4331V30.4394V30.4478V30.454V30.4624V30.477V30.4833V30.4896V30.4917V30.5042V30.5063V30.521V30.523V30.5251V30.5356V30.5482V30.5502V30.5586V30.5649V30.5691V30.5795V30.59V30.5942V30.6088V30.6109V30.6234V30.6297V30.6339V30.6381V30.6527V30.6548V30.6653V30.6694V30.6778V30.6841V30.6987V30.7008V30.7134V30.7196V30.7259V30.7343V30.7405V30.7426L30.1355 30.797V30.8012V30.8033V30.8054V30.8137L30.1334 30.8284L30.1313 30.8388V30.843V30.8472L30.1292 30.8577L30.1271 30.8681V30.8723L30.125 30.8869V30.889L30.1229 30.8995V30.9078V30.9099V30.9141L30.1208 30.9267V30.9288V30.9308L30.1187 30.9413L30.1166 30.9497V30.9559L30.1145 30.9685V30.9727L30.1124 30.981L30.1103 30.9873V30.9936L30.1083 31.004V31.0082L30.1062 31.0208V31.027L30.1041 31.0354L30.102 31.0438V31.0459L30.0999 31.0584V31.0626V31.0647L30.0957 31.0814L30.0936 31.0961V31.1002L30.0915 31.1086L30.0894 31.1191V31.1212V31.1253L30.0873 31.1337V31.1358L30.0852 31.1462L30.0831 31.1546L30.0789 31.1713V31.1734L30.0768 31.186L30.0747 31.1922L30.0726 31.1964L30.0684 31.209L30.0663 31.2132L30.0642 31.2194L30.0621 31.2257L30.06 31.232L30.0579 31.2424V31.2445L30.0537 31.2571L30.0516 31.2634L30.0495 31.2696L30.0474 31.2801L30.0433 31.2968V31.301L30.0391 31.3156C29.9489 31.6189 29.8147 31.8573 29.6533 31.9848C29.6386 32.1249 29.5065 32.2358 29.345 32.2358C29.1836 32.2358 29.0515 32.1249 29.0368 31.9848H28.7936C28.5944 31.9848 28.4329 31.8405 28.4329 31.6649V29.1826C28.4329 29.0048 28.5944 28.8626 28.7936 28.8626H29.0368C29.0494 28.7434 29.1458 28.6472 29.2737 28.62L29.2695 28.5907L29.2633 28.5552C29.2591 28.5301 29.2549 28.5029 29.2507 28.4778C29.2423 28.4255 29.2297 28.3774 29.2192 28.3272C29.171 28.1244 29.0913 27.9215 28.9865 27.7271C28.8816 27.5326 28.7495 27.3465 28.5944 27.1771C28.4392 27.0077 28.2631 26.855 28.0765 26.7212C27.8878 26.5873 27.6886 26.4744 27.4873 26.3803C26.0174 25.6965 23.8158 25.7927 22.5095 26.7212C22.3208 26.855 22.1468 27.0077 21.9916 27.1771C21.8365 27.3465 21.7044 27.5326 21.5995 27.7271C21.4947 27.9215 21.415 28.1244 21.3668 28.3272C21.3563 28.3774 21.3437 28.4255 21.3353 28.4778C21.3312 28.5029 21.327 28.5301 21.3228 28.5552L21.3165 28.5907L21.3144 28.6138C21.4675 28.6221 21.5891 28.7288 21.6037 28.8626H21.847C22.0462 28.8626 22.2076 29.0069 22.2076 29.1826V31.6649C22.2076 31.8426 22.0462 31.9848 21.847 31.9848H21.6037C21.5891 32.1249 21.457 32.2358 21.2955 32.2358C21.1487 32.2274 21.0166 32.1166 21.002 31.9765Z" fill="white"/>
<path fill-rule="evenodd" clip-rule="evenodd" d="M21.071 33.8586H29.5965C30.4016 33.8586 31.06 34.5153 31.06 35.3183C31.06 36.1214 30.4016 36.778 29.5965 36.778H21.071C20.2658 36.778 19.6074 36.1214 19.6074 35.3183C19.6053 34.5153 20.2658 33.8586 21.071 33.8586Z" fill="white"/>
<path d="M54.0259 18.9443V4.93994C54.0259 4.64795 54.1307 4.40088 54.3403 4.19873C54.55 3.99658 54.8008 3.89551 55.0928 3.89551H57.2041C57.4961 3.89551 57.7432 4.00033 57.9453 4.20996C58.1549 4.4196 58.2598 4.67041 58.2598 4.9624V16.8218H65.8066V4.93994C65.8066 4.64795 65.9077 4.40088 66.1099 4.19873C66.3195 3.99658 66.5703 3.89551 66.8623 3.89551H68.9849C69.2694 3.89551 69.5164 4.00033 69.7261 4.20996C69.9357 4.4196 70.0405 4.67041 70.0405 4.9624V16.8218H71.2534C71.5454 16.8218 71.7962 16.9266 72.0059 17.1362C72.2155 17.3459 72.3203 17.5967 72.3203 17.8887V18.9443C72.3203 19.2363 72.2155 19.4871 72.0059 19.6968C71.7962 19.8989 71.5454 20 71.2534 20H55.0928C54.8008 20 54.55 19.8989 54.3403 19.6968C54.1307 19.4871 54.0259 19.2363 54.0259 18.9443ZM73.9263 18.9219V4.93994C73.9263 4.64795 74.0311 4.40088 74.2407 4.19873C74.4504 3.99658 74.7012 3.89551 74.9932 3.89551H87.9419C88.2339 3.89551 88.481 4.00033 88.6831 4.20996C88.8927 4.4196 88.9976 4.67041 88.9976 4.9624V6.01807C88.9976 6.31006 88.8927 6.56087 88.6831 6.77051C88.481 6.97266 88.2339 7.07373 87.9419 7.07373H78.1602V10.3418H86.583C86.875 10.3418 87.1221 10.4466 87.3242 10.6562C87.5339 10.8584 87.6387 11.1055 87.6387 11.3975V12.4531C87.6387 12.7451 87.5339 12.9959 87.3242 13.2056C87.1221 13.4077 86.875 13.5088 86.583 13.5088H78.1602V16.8218H87.9194C88.2039 16.8218 88.4473 16.9229 88.6494 17.125C88.8516 17.3271 88.9526 17.5742 88.9526 17.8662V18.9443C88.9526 19.2363 88.8478 19.4871 88.6382 19.6968C88.4285 19.8989 88.1777 20 87.8857 20H74.9932C74.7012 20 74.4504 19.8989 74.2407 19.6968C74.0311 19.4871 73.9263 19.2288 73.9263 18.9219ZM91.064 18.9443V4.9624C91.064 4.67041 91.1688 4.4196 91.3784 4.20996C91.5881 4.00033 91.8464 3.89551 92.1533 3.89551H94.2422C94.5342 3.89551 94.7812 4.00033 94.9834 4.20996C95.193 4.4196 95.2979 4.67041 95.2979 4.9624V10.0161H103.024V4.9624C103.024 4.67041 103.129 4.4196 103.339 4.20996C103.549 4.00033 103.799 3.89551 104.091 3.89551H106.18C106.487 3.89551 106.742 4.00033 106.944 4.20996C107.153 4.4196 107.258 4.67041 107.258 4.9624V18.9443C107.258 19.2363 107.15 19.4871 106.933 19.6968C106.723 19.8989 106.472 20 106.18 20H104.091C103.799 20 103.549 19.9027 103.339 19.708C103.129 19.5059 103.024 19.2588 103.024 18.9668V13.1943H95.2979V18.9668C95.2979 19.2588 95.193 19.5059 94.9834 19.708C94.7812 19.9027 94.5342 20 94.2422 20H92.1533C91.8613 20 91.6068 19.8989 91.3896 19.6968C91.1725 19.4871 91.064 19.2363 91.064 18.9443ZM109.111 6.01807V4.9624C109.111 4.65544 109.212 4.40088 109.415 4.19873C109.617 3.99658 109.871 3.89551 110.178 3.89551H124.43C124.737 3.89551 124.991 3.99658 125.193 4.19873C125.396 4.40088 125.497 4.65544 125.497 4.9624V6.01807C125.497 6.32503 125.396 6.57959 125.193 6.78174C124.991 6.9764 124.737 7.07373 124.43 7.07373H119.421V18.9668C119.421 19.2588 119.316 19.5059 119.106 19.708C118.904 19.9027 118.657 20 118.365 20H116.243C115.951 20 115.7 19.9027 115.49 19.708C115.288 19.5059 115.187 19.2588 115.187 18.9668V7.07373H110.178C109.871 7.07373 109.617 6.9764 109.415 6.78174C109.212 6.57959 109.111 6.32503 109.111 6.01807ZM127.338 18.9443V4.9624C127.338 4.67041 127.439 4.4196 127.642 4.20996C127.844 4.00033 128.091 3.89551 128.383 3.89551H136.952C141.481 3.89551 143.746 5.98438 143.746 10.1621C143.746 14.3324 141.481 16.4175 136.952 16.4175H131.572V18.9443C131.572 19.2363 131.467 19.4871 131.258 19.6968C131.056 19.8989 130.809 20 130.517 20H128.405C128.113 20 127.862 19.8989 127.653 19.6968C127.443 19.4871 127.338 19.2363 127.338 18.9443ZM131.572 13.2393H135.671C136.929 13.2393 137.884 13.0296 138.535 12.6104C139.187 12.1836 139.512 11.3675 139.512 10.1621C139.512 8.94922 139.187 8.13314 138.535 7.71387C137.884 7.28711 136.929 7.07373 135.671 7.07373H131.572V13.2393Z" fill="white"/>
<path d="M70.6919 42.5059C70.6919 42.8353 70.4972 43 70.1079 43H67.5361C67.2441 43 66.9297 42.8989 66.5928 42.6968C66.2559 42.4871 65.9938 42.2363 65.8066 41.9443L63.8301 38.811C63.3584 38.0474 62.883 37.4746 62.4038 37.0928C61.9246 36.7035 61.3481 36.5088 60.6743 36.5088H58.2598V41.9668C58.2598 42.2588 58.1549 42.5059 57.9453 42.708C57.7432 42.9027 57.4961 43 57.2041 43H55.0928C54.8008 43 54.55 42.8952 54.3403 42.6855C54.1307 42.4684 54.0259 42.2139 54.0259 41.9219V27.9624C54.0259 27.6704 54.1307 27.4159 54.3403 27.1987C54.55 26.9816 54.8008 26.873 55.0928 26.873H57.2041C57.4961 26.873 57.7432 26.9816 57.9453 27.1987C58.1549 27.4159 58.2598 27.6704 58.2598 27.9624V33.3418H60.6743C61.3332 33.3418 61.9097 33.1621 62.4038 32.8027C62.9054 32.4434 63.3809 31.8631 63.8301 31.062L65.5708 27.9624C65.9676 27.2437 66.5067 26.8805 67.188 26.873H69.7822C70.1416 26.873 70.3213 27.0303 70.3213 27.3447C70.3213 27.5169 70.2576 27.7228 70.1304 27.9624L67.6934 32.376C67.3415 33.0199 66.9447 33.5514 66.5029 33.9707C66.0687 34.39 65.4997 34.6857 64.7959 34.8579C65.29 34.9627 65.7954 35.2734 66.312 35.79C66.8361 36.3066 67.2965 36.8682 67.6934 37.4746L70.501 41.9443C70.6283 42.1615 70.6919 42.3486 70.6919 42.5059ZM72.3091 41.9443V27.9624C72.3091 27.6554 72.4102 27.4009 72.6123 27.1987C72.8145 26.9966 73.069 26.8955 73.376 26.8955H75.3525C75.6445 26.8955 75.8916 26.9966 76.0938 27.1987C76.3034 27.4009 76.4082 27.6479 76.4082 27.9399V39.1816L82.7983 27.9624C82.9705 27.6704 83.2064 27.4196 83.5059 27.21C83.8053 27.0003 84.0824 26.8955 84.3369 26.8955H87.6499C87.9419 26.8955 88.189 27.0003 88.3911 27.21C88.5933 27.4196 88.6943 27.6704 88.6943 27.9624V41.9443C88.6943 42.2363 88.5895 42.4871 88.3799 42.6968C88.1702 42.8989 87.9194 43 87.6274 43H85.6509C85.3589 43 85.1081 42.8989 84.8984 42.6968C84.6963 42.4871 84.5952 42.2363 84.5952 41.9443V31.5225L78.7329 41.9443C78.5607 42.2363 78.3174 42.4871 78.0029 42.6968C77.6885 42.8989 77.3853 43 77.0933 43H73.376C73.084 43 72.8332 42.8989 72.6235 42.6968C72.4139 42.4871 72.3091 42.2363 72.3091 41.9443ZM91.9175 41.9668V27.9624C91.9175 27.6554 92.0186 27.4009 92.2207 27.1987C92.4229 26.9966 92.6774 26.8955 92.9844 26.8955H105.63C105.922 26.8955 106.169 27.0003 106.371 27.21C106.581 27.4196 106.686 27.6704 106.686 27.9624V29.0181C106.686 29.3101 106.584 29.5609 106.382 29.7705C106.188 29.9727 105.944 30.0737 105.652 30.0737H96.1514V32.7915H101.699C103.519 32.7915 104.993 33.222 106.124 34.083C107.255 34.9365 107.82 36.2093 107.82 37.9014C107.82 39.5859 107.255 40.8587 106.124 41.7197C104.993 42.5732 103.519 43 101.699 43H92.9282C92.6437 43 92.4041 42.9027 92.2095 42.708C92.0148 42.5059 91.9175 42.2588 91.9175 41.9668ZM96.1514 39.8218H101.699C102.957 39.8218 103.586 39.1779 103.586 37.8901C103.586 36.6024 102.957 35.9585 101.699 35.9585H96.1514V39.8218ZM110.111 41.9219V27.9399C110.111 27.6479 110.216 27.4009 110.425 27.1987C110.635 26.9966 110.886 26.8955 111.178 26.8955H124.126C124.418 26.8955 124.666 27.0003 124.868 27.21C125.077 27.4196 125.182 27.6704 125.182 27.9624V29.0181C125.182 29.3101 125.077 29.5609 124.868 29.7705C124.666 29.9727 124.418 30.0737 124.126 30.0737H114.345V33.3418H122.768C123.06 33.3418 123.307 33.4466 123.509 33.6562C123.718 33.8584 123.823 34.1055 123.823 34.3975V35.4531C123.823 35.7451 123.718 35.9959 123.509 36.2056C123.307 36.4077 123.06 36.5088 122.768 36.5088H114.345V39.8218H124.104C124.389 39.8218 124.632 39.9229 124.834 40.125C125.036 40.3271 125.137 40.5742 125.137 40.8662V41.9443C125.137 42.2363 125.032 42.4871 124.823 42.6968C124.613 42.8989 124.362 43 124.07 43H111.178C110.886 43 110.635 42.8989 110.425 42.6968C110.216 42.4871 110.111 42.2288 110.111 41.9219ZM127.249 41.9443V27.9624C127.249 27.6704 127.35 27.4196 127.552 27.21C127.754 27.0003 128.001 26.8955 128.293 26.8955H136.862C141.391 26.8955 143.656 28.9844 143.656 33.1621C143.656 37.3324 141.391 39.4175 136.862 39.4175H131.482V41.9443C131.482 42.2363 131.378 42.4871 131.168 42.6968C130.966 42.8989 130.719 43 130.427 43H128.315C128.023 43 127.773 42.8989 127.563 42.6968C127.353 42.4871 127.249 42.2363 127.249 41.9443ZM131.482 36.2393H135.582C136.839 36.2393 137.794 36.0296 138.445 35.6104C139.097 35.1836 139.422 34.3675 139.422 33.1621C139.422 31.9492 139.097 31.1331 138.445 30.7139C137.794 30.2871 136.839 30.0737 135.582 30.0737H131.482V36.2393ZM146.891 41.1021C145.506 39.7769 144.813 37.7292 144.813 34.959C144.813 32.1813 145.506 30.1299 146.891 28.8047C148.283 27.472 150.368 26.8057 153.146 26.8057H155.65C157.35 26.8057 158.851 27.2474 160.154 28.1309C161.464 29.0143 162.119 30.2235 162.119 31.7583C162.119 32.2 161.988 32.5182 161.726 32.7129C161.464 32.9001 161.209 32.9937 160.962 32.9937H159.626C158.937 32.9937 158.402 32.5819 158.02 31.7583C157.466 30.5754 156.545 29.9839 155.257 29.9839H153.258C151.619 29.9839 150.507 30.3358 149.923 31.0396C149.339 31.7433 149.047 33.0461 149.047 34.9478C149.047 36.8494 149.339 38.1559 149.923 38.8672C150.507 39.571 151.619 39.9229 153.258 39.9229H155.493C156.781 39.9229 157.698 39.3314 158.245 38.1484C158.626 37.3174 159.166 36.9019 159.862 36.9019H161.198C161.55 36.9019 161.827 37.0329 162.029 37.2949C162.239 37.557 162.344 37.8415 162.344 38.1484C162.344 39.6833 161.692 40.8924 160.39 41.7759C159.087 42.6519 157.586 43.0898 155.886 43.0898H153.146C150.368 43.0898 148.283 42.4272 146.891 41.1021ZM164.534 41.9443V27.9624C164.534 27.6704 164.635 27.4196 164.837 27.21C165.039 27.0003 165.286 26.8955 165.578 26.8955H180.155C180.447 26.8955 180.694 27.0003 180.896 27.21C181.106 27.4196 181.211 27.6704 181.211 27.9624V41.9443C181.211 42.2363 181.102 42.4871 180.885 42.6968C180.676 42.8989 180.425 43 180.133 43H178.044C177.752 43 177.501 42.8989 177.292 42.6968C177.082 42.4871 176.977 42.2363 176.977 41.9443V30.0737H168.768V41.9443C168.768 42.2363 168.663 42.4871 168.453 42.6968C168.251 42.8989 168.004 43 167.712 43H165.601C165.309 43 165.058 42.8989 164.848 42.6968C164.639 42.4871 164.534 42.2363 164.534 41.9443ZM199.292 41.3379C197.765 42.6781 195.519 43.3481 192.554 43.3481C189.596 43.3481 187.35 42.6781 185.815 41.3379C184.281 39.9902 183.513 37.8602 183.513 34.9478C183.513 32.0353 184.281 29.909 185.815 28.5688C187.35 27.2287 189.596 26.5586 192.554 26.5586C195.519 26.5586 197.765 27.2287 199.292 28.5688C200.827 29.909 201.594 32.0353 201.594 34.9478C201.594 37.8602 200.827 39.9902 199.292 41.3379ZM196.226 30.9385C195.47 30.04 194.246 29.5908 192.554 29.5908C190.869 29.5908 189.645 30.04 188.881 30.9385C188.125 31.8369 187.747 33.1771 187.747 34.959C187.747 36.7334 188.125 38.0698 188.881 38.9683C189.645 39.8592 190.869 40.3047 192.554 40.3047C194.246 40.3047 195.47 39.8592 196.226 38.9683C196.982 38.0698 197.36 36.7334 197.36 34.959C197.36 33.1771 196.982 31.8369 196.226 30.9385ZM203.908 41.9443V27.9624C203.908 27.6704 204.009 27.4196 204.211 27.21C204.413 27.0003 204.66 26.8955 204.952 26.8955H213.521C218.051 26.8955 220.315 28.9844 220.315 33.1621C220.315 37.3324 218.051 39.4175 213.521 39.4175H208.142V41.9443C208.142 42.2363 208.037 42.4871 207.827 42.6968C207.625 42.8989 207.378 43 207.086 43H204.975C204.683 43 204.432 42.8989 204.222 42.6968C204.013 42.4871 203.908 42.2363 203.908 41.9443ZM208.142 36.2393H212.241C213.499 36.2393 214.453 36.0296 215.104 35.6104C215.756 35.1836 216.082 34.3675 216.082 33.1621C216.082 31.9492 215.756 31.1331 215.104 30.7139C214.453 30.2871 213.499 30.0737 212.241 30.0737H208.142V36.2393ZM221.012 29.0181V27.9624C221.012 27.6554 221.113 27.4009 221.315 27.1987C221.517 26.9966 221.772 26.8955 222.079 26.8955H236.33C236.637 26.8955 236.892 26.9966 237.094 27.1987C237.296 27.4009 237.397 27.6554 237.397 27.9624V29.0181C237.397 29.325 237.296 29.5796 237.094 29.7817C236.892 29.9764 236.637 30.0737 236.33 30.0737H231.321V41.9668C231.321 42.2588 231.216 42.5059 231.007 42.708C230.805 42.9027 230.558 43 230.266 43H228.143C227.851 43 227.6 42.9027 227.391 42.708C227.188 42.5059 227.087 42.2588 227.087 41.9668V30.0737H222.079C221.772 30.0737 221.517 29.9764 221.315 29.7817C221.113 29.5796 221.012 29.325 221.012 29.0181ZM237.015 41.9668L239.834 31.2754C240.598 28.363 243.083 26.903 247.291 26.8955H253.344C253.621 26.8955 253.85 27.0003 254.029 27.21C254.216 27.4196 254.31 27.6629 254.31 27.9399V41.9668C254.31 42.2588 254.205 42.5059 253.996 42.708C253.786 42.9027 253.535 43 253.243 43H251.132C250.825 43 250.57 42.9027 250.368 42.708C250.174 42.5059 250.076 42.2513 250.076 41.9443V39.1143H242.091L241.339 41.9443C241.264 42.2513 241.096 42.5059 240.833 42.708C240.571 42.9027 240.294 43 240.002 43H237.79C237.498 43 237.288 42.9176 237.161 42.7529C237.034 42.5807 236.97 42.431 236.97 42.3037C236.978 42.1764 236.993 42.0641 237.015 41.9668ZM242.922 35.936H250.076V30.0737H246.875C246.157 30.0737 245.528 30.2796 244.989 30.6914C244.457 31.0957 244.098 31.6423 243.911 32.3311L242.922 35.936Z" fill="white"/>
</svg>
