<svg width="65" height="64" viewBox="0 0 65 64" fill="none" xmlns="http://www.w3.org/2000/svg">
<path d="M58.3938 23.2266C61.7271 19.8933 60.2071 16 58.3938 14.1066L50.3938 6.10664C47.0338 2.77331 43.1671 4.29331 41.2738 6.10664L36.7405 10.6666H29.8338C24.7671 10.6666 21.8338 13.3333 20.3405 16.4L8.50046 28.24V38.9066L6.60713 40.7733C3.2738 44.1333 4.7938 48 6.60713 49.8933L14.6071 57.8933C16.0471 59.3333 17.5938 59.8666 19.0605 59.8666C20.9538 59.8666 22.6871 58.9333 23.7271 57.8933L30.9271 50.6666H40.5005C45.0338 50.6666 47.3271 47.84 48.1538 45.0666C51.1671 44.2666 52.8205 41.9733 53.4871 39.7333C57.6205 38.6666 59.1671 34.7466 59.1671 32V24H57.5938L58.3938 23.2266ZM53.8338 32C53.8338 33.2 53.3271 34.6666 51.1671 34.6666H48.5005V37.3333C48.5005 38.5333 47.9938 40 45.8338 40H43.1671V42.6666C43.1671 43.8666 42.6605 45.3333 40.5005 45.3333H28.7405L19.9938 54.08C19.1671 54.8533 18.6871 54.4 18.3938 54.1066L10.4205 46.16C9.64713 45.3333 10.1005 44.8533 10.3938 44.56L13.8338 41.0933V30.4266L19.1671 25.0933V29.3333C19.1671 32.56 21.3005 37.3333 27.1671 37.3333C33.0338 37.3333 35.1671 32.56 35.1671 29.3333H53.8338V32ZM54.6071 19.44L50.0738 24H29.8338V29.3333C29.8338 30.5333 29.3271 32 27.1671 32C25.0071 32 24.5005 30.5333 24.5005 29.3333V21.3333C24.5005 20.1066 24.9538 16 29.8338 16H38.9271L45.0071 9.91997C45.8338 9.14664 46.3138 9.59997 46.6071 9.89331L54.5805 17.84C55.3538 18.6666 54.9005 19.1466 54.6071 19.44Z" fill="#DC0000"/>
</svg>
