<svg width="65" height="64" viewBox="0 0 65 64" fill="none" xmlns="http://www.w3.org/2000/svg">
<path d="M60.6631 51.0001H57.6631V28.8848C57.6625 28.1883 57.5166 27.4995 57.2349 26.8625C56.9532 26.2255 56.5417 25.6542 56.0268 25.1851L36.0251 7.00131C35.1067 6.16032 33.9066 5.69385 32.6613 5.69385C31.4161 5.69385 30.216 6.16032 29.2976 7.00131L9.29959 25.1851C8.78458 25.6541 8.37305 26.2254 8.09127 26.8624C7.80949 27.4994 7.66366 28.1882 7.66309 28.8848V51.0001H4.66309C3.86744 51.0001 3.10437 51.3161 2.54177 51.8787C1.97916 52.4413 1.66309 53.2044 1.66309 54.0001C1.66309 54.7957 1.97916 55.5588 2.54177 56.1214C3.10437 56.684 3.86744 57.0001 4.66309 57.0001H60.6631C61.4587 57.0001 62.2218 56.684 62.7844 56.1214C63.347 55.5588 63.6631 54.7957 63.6631 54.0001C63.6631 53.2044 63.347 52.4413 62.7844 51.8787C62.2218 51.3161 61.4587 51.0001 60.6631 51.0001ZM13.6631 29.3271L32.6618 12.0526L51.6631 29.3271V51.0001H41.6618V39.9981C41.6604 38.6724 41.1331 37.4015 40.1958 36.4641C39.2584 35.5268 37.9875 34.9995 36.6618 34.9981H28.6618C27.3362 34.9995 26.0653 35.5268 25.1279 36.4641C24.1905 37.4015 23.6633 38.6724 23.6618 39.9981V51.0001H13.6631V29.3271ZM35.6618 51.0001H29.6618V40.9981H35.6618V51.0001Z" fill="#DC0000"/>
</svg>
