<svg width="65" height="64" viewBox="0 0 65 64" fill="none" xmlns="http://www.w3.org/2000/svg">
<path d="M51.1667 8H13.8333C10.9 8 8.5 10.4 8.5 13.3333V32C8.5 34.9333 10.9 37.3333 13.8333 37.3333H51.1667C54.1 37.3333 56.5 34.9333 56.5 32V13.3333C56.5 10.4 54.1 8 51.1667 8ZM51.1667 24H40.5C40.5 28.32 36.82 32 32.5 32C28.18 32 24.5 28.32 24.5 24H13.8333V13.3333H51.1667V24ZM40.5 42.6667H56.5V50.6667C56.5 53.6 54.1 56 51.1667 56H13.8333C10.9 56 8.5 53.6 8.5 50.6667V42.6667H24.5C24.5 47.0933 28.0733 50.6667 32.5 50.6667C36.9267 50.6667 40.5 47.0933 40.5 42.6667Z" fill="#DC0000"/>
</svg>
