<svg width="199" height="96" viewBox="0 0 199 96" fill="none" xmlns="http://www.w3.org/2000/svg">
<path fill-rule="evenodd" clip-rule="evenodd" d="M9.18066 31.6683L10.8104 30.7462L20.9537 25L31.097 30.7462L41.2404 36.5V47.7561L34.5661 43.9609V40.28L27.7599 36.4238L20.9537 32.56L14.1475 36.4238L9.18066 39.2359V31.6683Z" fill="#DC0000"/>
<path fill-rule="evenodd" clip-rule="evenodd" d="M22.8008 62.3884L27.7599 59.5763L34.5661 55.7201V51.5286L41.2403 55.3238V59.5001L31.097 65.2539L29.475 66.176L22.8008 62.3884Z" fill="#DC0000"/>
<path fill-rule="evenodd" clip-rule="evenodd" d="M20.9536 71L10.8103 65.2538L0.666992 59.5V48V36.5L7.34124 32.7124V40.28V48V51.1474V55.72L14.1474 59.5762L14.2173 59.6143L20.9536 63.44L27.6279 67.22L20.9536 71Z" fill="black"/>
<path d="M15.8549 33.7107H9.18066V54.4777H15.8549V33.7107Z" fill="#DC0000"/>
<path fill-rule="evenodd" clip-rule="evenodd" d="M32.8122 60.4984L29.475 66.176L9.18066 54.4778L12.5178 48.8079L32.8122 60.4984Z" fill="#DC0000"/>
<path fill-rule="evenodd" clip-rule="evenodd" d="M41.2397 58.4788L21.8223 47.4284V39.8608L41.2397 50.9112V58.4788Z" fill="#DC0000"/>
<path d="M67.3162 57.9614H49.5596V37.6211H54.2936V53.3126H67.3084V57.9614H67.3162Z" fill="black"/>
<path d="M90.6841 57.9606H78.554L76.4819 53.3119H83.2803L79.5862 45.127L73.8045 57.9606H68.4961V53.3119H70.5993L77.6693 37.6204H81.5186L90.6841 57.9606Z" fill="black"/>
<path d="M111.102 57.9606H106.368L96.6052 46.4225V57.9606H91.8711V37.6204H96.6129L106.368 49.1432V37.6204H111.102V57.9606Z" fill="black"/>
<path d="M132.988 57.9605H122.635C119.771 57.9605 117.334 56.9697 115.309 54.9807C113.283 52.9992 112.274 50.5986 112.274 47.7865C112.274 44.982 113.283 42.5814 115.309 40.5923C117.327 38.6109 119.771 37.6125 122.635 37.6125H132.988V42.2613H122.635C121.075 42.2613 119.748 42.8024 118.654 43.877C117.559 44.9515 117.008 46.2547 117.008 47.7865C117.008 49.3183 117.559 50.6215 118.654 51.696C119.748 52.7706 121.075 53.3117 122.635 53.3117H128.254V50.1185H125.297L123.225 45.4697H132.988V57.9605Z" fill="#DC0000"/>
<path d="M156.363 57.9606H144.233L142.161 53.3119H148.959L145.265 45.127L139.483 57.9606H134.175V53.3119H136.278L143.348 37.6204H147.197L156.363 57.9606Z" fill="#DC0000"/>
<path d="M179.739 57.9606H175.005V48.7469L170.123 57.953H167.166L162.285 48.7469V57.953H157.551V37.6204H162.293L168.649 50.1111L175.005 37.6204H179.747V57.9606H179.739Z" fill="#DC0000"/>
<path d="M198.667 57.9606H180.918V37.6204H198.667V42.2691H185.652V45.4623H195.71V50.1111H185.652V53.3042H198.667V57.9606Z" fill="#DC0000"/>
<path d="M50.9941 68.418C51.4336 68.418 51.6533 68.6393 51.6533 69.082V69.3896C51.6533 69.5947 51.5964 69.7559 51.4824 69.873C51.3717 69.9902 51.209 70.0488 50.9941 70.0488H50.3936C50.1787 70.0488 50.0143 69.9902 49.9004 69.873C49.7897 69.7559 49.7344 69.5947 49.7344 69.3896V69.082C49.7344 68.8672 49.7913 68.7028 49.9053 68.5889C50.0192 68.4749 50.182 68.418 50.3936 68.418H50.9941ZM60.0273 69.79C60.0273 69.93 59.9443 70 59.7783 70H58.6064C58.4827 70 58.346 69.9561 58.1963 69.8682C58.0498 69.777 57.9375 69.668 57.8594 69.541L57.0293 68.2422C56.6875 67.7083 56.2741 67.4414 55.7891 67.4414H54.5977V69.541C54.5977 69.668 54.5521 69.777 54.4609 69.8682C54.373 69.9561 54.2656 70 54.1387 70H53.2207C53.0938 70 52.9847 69.9561 52.8936 69.8682C52.8024 69.777 52.7568 69.668 52.7568 69.541V63.4619C52.7568 63.335 52.8008 63.2259 52.8887 63.1348C52.9766 63.0436 53.084 62.998 53.2109 62.998H57.2393C57.9847 62.998 58.5951 63.1982 59.0703 63.5986C59.5488 63.999 59.7881 64.5394 59.7881 65.2197C59.7881 66.167 59.1745 66.7611 57.9473 67.002C58.1426 67.0736 58.3232 67.1973 58.4893 67.373C58.6553 67.5456 58.8457 67.7979 59.0605 68.1299L59.9492 69.541C60.0013 69.6322 60.0273 69.7152 60.0273 69.79ZM54.5977 66.0596H56.6777C57.013 66.0596 57.3076 65.9928 57.5615 65.8594C57.8187 65.7259 57.9473 65.5127 57.9473 65.2197C57.9473 64.9268 57.8187 64.7135 57.5615 64.5801C57.3076 64.4466 57.013 64.3799 56.6777 64.3799H54.5977V66.0596ZM60.7451 67.2314V63.4619C60.7451 63.335 60.7891 63.2259 60.877 63.1348C60.9681 63.0436 61.0804 62.998 61.2139 62.998H62.127C62.2507 62.998 62.3581 63.0436 62.4492 63.1348C62.5404 63.2259 62.5859 63.335 62.5859 63.4619V67.2412C62.5859 67.7197 62.6901 68.0762 62.8984 68.3105C63.11 68.5449 63.4355 68.6621 63.875 68.6621H64.6562C65.0957 68.6621 65.4196 68.5449 65.6279 68.3105C65.8395 68.0762 65.9453 67.7197 65.9453 67.2412V63.4619C65.9453 63.335 65.9893 63.2259 66.0771 63.1348C66.1683 63.0436 66.2773 62.998 66.4043 62.998H67.3125C67.446 62.998 67.5583 63.0436 67.6494 63.1348C67.7406 63.2259 67.7861 63.335 67.7861 63.4619V67.2314C67.7861 68.1234 67.5241 68.8151 67 69.3066C66.4759 69.7949 65.7109 70.0391 64.7051 70.0391H63.8262C62.8171 70.0391 62.0505 69.7949 61.5264 69.3066C61.0055 68.8151 60.7451 68.1234 60.7451 67.2314Z" fill="#DC0000"/>
</svg>
