<svg width="198" height="96" viewBox="0 0 198 96" fill="none" xmlns="http://www.w3.org/2000/svg">
<path fill-rule="evenodd" clip-rule="evenodd" d="M8.51367 31.6683L10.1434 30.7462L20.2867 25L30.4301 30.7462L40.5734 36.5V47.7561L33.8991 43.9609V40.28L27.0929 36.4238L20.2867 32.56L13.4806 36.4238L8.51367 39.2359V31.6683Z" fill="#DC0000"/>
<path fill-rule="evenodd" clip-rule="evenodd" d="M22.1338 62.3884L27.0929 59.5763L33.8991 55.7201V51.5286L40.5734 55.3238V59.5001L30.43 65.2539L28.808 66.176L22.1338 62.3884Z" fill="#DC0000"/>
<path fill-rule="evenodd" clip-rule="evenodd" d="M20.2866 71L10.1433 65.2538L0 59.5V48V36.5L6.67425 32.7124V40.28V48V51.1474V55.72L13.4804 59.5762L13.5503 59.6143L20.2866 63.44L26.9609 67.22L20.2866 71Z" fill="black"/>
<path d="M15.1879 33.7107H8.51367V54.4777H15.1879V33.7107Z" fill="#DC0000"/>
<path fill-rule="evenodd" clip-rule="evenodd" d="M32.1452 60.4984L28.8081 66.176L8.51367 54.4778L11.8508 48.8079L32.1452 60.4984Z" fill="#DC0000"/>
<path fill-rule="evenodd" clip-rule="evenodd" d="M40.5727 58.4788L21.1553 47.4284V39.8608L40.5727 50.9112V58.4788Z" fill="#DC0000"/>
<path d="M66.6492 57.9614H48.8926V37.6211H53.6266V53.3126H66.6414V57.9614H66.6492Z" fill="black"/>
<path d="M90.0171 57.9606H77.887L75.8149 53.3119H82.6133L78.9192 45.127L73.1375 57.9606H67.8291V53.3119H69.9323L77.0023 37.6204H80.8516L90.0171 57.9606Z" fill="black"/>
<path d="M110.435 57.9606H105.701L95.9382 46.4225V57.9606H91.2041V37.6204H95.9459L105.701 49.1432V37.6204H110.435V57.9606Z" fill="black"/>
<path d="M132.321 57.9605H121.968C119.104 57.9605 116.667 56.9697 114.642 54.9807C112.616 52.9992 111.607 50.5986 111.607 47.7865C111.607 44.982 112.616 42.5814 114.642 40.5923C116.66 38.6109 119.104 37.6125 121.968 37.6125H132.321V42.2613H121.968C120.408 42.2613 119.081 42.8024 117.987 43.877C116.892 44.9515 116.341 46.2547 116.341 47.7865C116.341 49.3183 116.892 50.6215 117.987 51.696C119.081 52.7706 120.408 53.3117 121.968 53.3117H127.587V50.1185H124.63L122.558 45.4697H132.321V57.9605Z" fill="#DC0000"/>
<path d="M155.696 57.9606H143.566L141.494 53.3119H148.292L144.598 45.127L138.816 57.9606H133.508V53.3119H135.611L142.681 37.6204H146.53L155.696 57.9606Z" fill="#DC0000"/>
<path d="M179.072 57.9606H174.338V48.7469L169.456 57.953H166.499L161.618 48.7469V57.953H156.884V37.6204H161.626L167.982 50.1111L174.338 37.6204H179.08V57.9606H179.072Z" fill="#DC0000"/>
<path d="M198 57.9606H180.251V37.6204H198V42.2691H184.985V45.4623H195.043V50.1111H184.985V53.3042H198V57.9606Z" fill="#DC0000"/>
<path d="M49.1309 68.208C49.1309 68.016 49.1878 67.8792 49.3018 67.7979C49.4157 67.7132 49.5264 67.6709 49.6338 67.6709H50.2148C50.5078 67.6709 50.7308 67.8304 50.8838 68.1494C51.0368 68.4684 51.3802 68.6279 51.9141 68.6279L53.623 68.6621C54.196 68.6621 54.4824 68.4749 54.4824 68.1006C54.4824 67.8174 54.1325 67.5944 53.4326 67.4316C53.1201 67.3568 52.7751 67.2835 52.3975 67.2119C52.0199 67.137 51.6439 67.0443 51.2695 66.9336C50.8984 66.8229 50.5566 66.6927 50.2441 66.543C49.9316 66.3932 49.6777 66.1882 49.4824 65.9277C49.2904 65.6641 49.1943 65.3548 49.1943 65C49.1943 64.3457 49.4271 63.8428 49.8926 63.4912C50.3581 63.1364 51.1589 62.959 52.2949 62.959L53.5352 62.9883C54.2025 62.9883 54.8031 63.1608 55.3369 63.5059C55.874 63.8477 56.1426 64.2757 56.1426 64.79C56.1426 64.9821 56.0856 65.1204 55.9717 65.2051C55.8577 65.2897 55.7487 65.332 55.6445 65.332H55.0635C54.7705 65.332 54.5475 65.1725 54.3945 64.8535C54.2415 64.5312 53.8981 64.3701 53.3643 64.3701L51.8945 64.3408C51.3216 64.3408 51.0352 64.528 51.0352 64.9023C51.0352 65.1074 51.2158 65.2751 51.5771 65.4053C51.9417 65.5355 52.3812 65.651 52.8955 65.752C53.4131 65.8496 53.9323 65.9684 54.4531 66.1084C54.974 66.2484 55.415 66.4795 55.7764 66.8018C56.141 67.1208 56.3232 67.5195 56.3232 67.998C56.3232 68.6523 56.0889 69.1569 55.6201 69.5117C55.1546 69.8633 54.3555 70.0391 53.2227 70.0391L51.7432 70.0098C51.0758 70.0098 50.4736 69.8389 49.9365 69.4971C49.3994 69.152 49.1309 68.7223 49.1309 68.208ZM57.3242 69.5312V63.4521C57.3242 63.3252 57.3698 63.2178 57.4609 63.1299C57.5521 63.042 57.6611 62.998 57.7881 62.998H63.418C63.5449 62.998 63.6523 63.0436 63.7402 63.1348C63.8314 63.2259 63.877 63.335 63.877 63.4619V63.9209C63.877 64.0479 63.8314 64.1569 63.7402 64.248C63.6523 64.3359 63.5449 64.3799 63.418 64.3799H59.165V65.8008H62.8271C62.9541 65.8008 63.0615 65.8464 63.1494 65.9375C63.2406 66.0254 63.2861 66.1328 63.2861 66.2598V66.7188C63.2861 66.8457 63.2406 66.9548 63.1494 67.0459C63.0615 67.1338 62.9541 67.1777 62.8271 67.1777H59.165V68.6182H63.4082C63.5319 68.6182 63.6377 68.6621 63.7256 68.75C63.8135 68.8379 63.8574 68.9453 63.8574 69.0723V69.541C63.8574 69.668 63.8118 69.777 63.7207 69.8682C63.6296 69.9561 63.5205 70 63.3936 70H57.7881C57.6611 70 57.5521 69.9561 57.4609 69.8682C57.3698 69.777 57.3242 69.6647 57.3242 69.5312ZM72.0459 69.79C72.0459 69.93 71.9629 70 71.7969 70H70.625C70.5013 70 70.3646 69.9561 70.2148 69.8682C70.0684 69.777 69.9561 69.668 69.8779 69.541L69.0479 68.2422C68.7061 67.7083 68.2926 67.4414 67.8076 67.4414H66.6162V69.541C66.6162 69.668 66.5706 69.777 66.4795 69.8682C66.3916 69.9561 66.2842 70 66.1572 70H65.2393C65.1123 70 65.0033 69.9561 64.9121 69.8682C64.821 69.777 64.7754 69.668 64.7754 69.541V63.4619C64.7754 63.335 64.8193 63.2259 64.9072 63.1348C64.9951 63.0436 65.1025 62.998 65.2295 62.998H69.2578C70.0033 62.998 70.6136 63.1982 71.0889 63.5986C71.5674 63.999 71.8066 64.5394 71.8066 65.2197C71.8066 66.167 71.193 66.7611 69.9658 67.002C70.1611 67.0736 70.3418 67.1973 70.5078 67.373C70.6738 67.5456 70.8643 67.7979 71.0791 68.1299L71.9678 69.541C72.0199 69.6322 72.0459 69.7152 72.0459 69.79ZM66.6162 66.0596H68.6963C69.0316 66.0596 69.3262 65.9928 69.5801 65.8594C69.8372 65.7259 69.9658 65.5127 69.9658 65.2197C69.9658 64.9268 69.8372 64.7135 69.5801 64.5801C69.3262 64.4466 69.0316 64.3799 68.6963 64.3799H66.6162V66.0596ZM72.1973 63.4082C72.1777 63.3691 72.168 63.3268 72.168 63.2812C72.168 63.2324 72.1973 63.1738 72.2559 63.1055C72.3177 63.0339 72.404 62.998 72.5146 62.998H73.584C73.8379 62.998 74.0316 63.1527 74.165 63.4619L76.0547 67.6709L77.9443 63.4619C78.0778 63.1559 78.2715 63.0013 78.5254 62.998H79.5947C79.7087 62.998 79.7949 63.0339 79.8535 63.1055C79.9121 63.1738 79.9414 63.2324 79.9414 63.2812C79.9414 63.3268 79.9333 63.3691 79.917 63.4082L77.1045 69.502C76.9515 69.834 76.7188 70 76.4062 70H75.7031C75.3906 70 75.1579 69.834 75.0049 69.502L72.1973 63.4082ZM80.7422 69.5508V63.4619C80.7422 63.335 80.7878 63.2259 80.8789 63.1348C80.9701 63.0436 81.0791 62.998 81.2061 62.998H82.1143C82.2477 62.998 82.3584 63.0436 82.4463 63.1348C82.5374 63.2259 82.583 63.335 82.583 63.4619V69.541C82.583 69.668 82.5358 69.777 82.4414 69.8682C82.3503 69.9561 82.2412 70 82.1143 70H81.2061C81.0791 70 80.9701 69.9577 80.8789 69.873C80.7878 69.7852 80.7422 69.6777 80.7422 69.5508ZM84.4873 69.1748C83.8851 68.5986 83.584 67.7083 83.584 66.5039C83.584 65.2962 83.8851 64.4043 84.4873 63.8281C85.0928 63.2487 85.9993 62.959 87.207 62.959H88.2959C89.0348 62.959 89.6875 63.151 90.2539 63.5352C90.8236 63.9193 91.1084 64.445 91.1084 65.1123C91.1084 65.3044 91.0514 65.4427 90.9375 65.5273C90.8236 65.6087 90.7129 65.6494 90.6055 65.6494H90.0244C89.7249 65.6494 89.4922 65.4704 89.3262 65.1123C89.0853 64.598 88.6849 64.3408 88.125 64.3408H87.2559C86.543 64.3408 86.0596 64.4938 85.8057 64.7998C85.5518 65.1058 85.4248 65.6722 85.4248 66.499C85.4248 67.3258 85.5518 67.8939 85.8057 68.2031C86.0596 68.5091 86.543 68.6621 87.2559 68.6621H88.2275C88.7874 68.6621 89.1862 68.4049 89.4238 67.8906C89.5898 67.5293 89.8242 67.3486 90.127 67.3486H90.708C90.861 67.3486 90.9814 67.4056 91.0693 67.5195C91.1605 67.6335 91.2061 67.7572 91.2061 67.8906C91.2061 68.5579 90.9229 69.0837 90.3564 69.4678C89.79 69.8486 89.1374 70.0391 88.3984 70.0391H87.207C85.9993 70.0391 85.0928 69.751 84.4873 69.1748ZM92.1582 69.5312V63.4521C92.1582 63.3252 92.2038 63.2178 92.2949 63.1299C92.3861 63.042 92.4951 62.998 92.6221 62.998H98.252C98.3789 62.998 98.4863 63.0436 98.5742 63.1348C98.6654 63.2259 98.7109 63.335 98.7109 63.4619V63.9209C98.7109 64.0479 98.6654 64.1569 98.5742 64.248C98.4863 64.3359 98.3789 64.3799 98.252 64.3799H93.999V65.8008H97.6611C97.7881 65.8008 97.8955 65.8464 97.9834 65.9375C98.0745 66.0254 98.1201 66.1328 98.1201 66.2598V66.7188C98.1201 66.8457 98.0745 66.9548 97.9834 67.0459C97.8955 67.1338 97.7881 67.1777 97.6611 67.1777H93.999V68.6182H98.2422C98.3659 68.6182 98.4717 68.6621 98.5596 68.75C98.6475 68.8379 98.6914 68.9453 98.6914 69.0723V69.541C98.6914 69.668 98.6458 69.777 98.5547 69.8682C98.4635 69.9561 98.3545 70 98.2275 70H92.6221C92.4951 70 92.3861 69.9561 92.2949 69.8682C92.2038 69.777 92.1582 69.6647 92.1582 69.5312Z" fill="#DC0000"/>
</svg>
