<svg width="199" height="96" viewBox="0 0 199 96" fill="none" xmlns="http://www.w3.org/2000/svg">
<path fill-rule="evenodd" clip-rule="evenodd" d="M9.34668 31.6683L10.9764 30.7462L21.1197 25L31.2631 30.7462L41.4064 36.5V47.7561L34.7321 43.9609V40.28L27.9259 36.4238L21.1197 32.56L14.3136 36.4238L9.34668 39.2359V31.6683Z" fill="#DC0000"/>
<path fill-rule="evenodd" clip-rule="evenodd" d="M22.9668 62.3884L27.9259 59.5763L34.7321 55.7201V51.5286L41.4064 55.3238V59.5001L31.263 65.2539L29.641 66.176L22.9668 62.3884Z" fill="#DC0000"/>
<path fill-rule="evenodd" clip-rule="evenodd" d="M21.1196 71L10.9763 65.2538L0.833008 59.5V48V36.5L7.50726 32.7124V40.28V48V51.1474V55.72L14.3134 59.5762L14.3833 59.6143L21.1196 63.44L27.7939 67.22L21.1196 71Z" fill="black"/>
<path d="M16.0209 33.7107H9.34668V54.4777H16.0209V33.7107Z" fill="#DC0000"/>
<path fill-rule="evenodd" clip-rule="evenodd" d="M32.9782 60.4984L29.6411 66.176L9.34668 54.4778L12.6838 48.8079L32.9782 60.4984Z" fill="#DC0000"/>
<path fill-rule="evenodd" clip-rule="evenodd" d="M41.4057 58.4788L21.9883 47.4284V39.8608L41.4057 50.9112V58.4788Z" fill="#DC0000"/>
<path d="M67.4822 57.9614H49.7256V37.6211H54.4596V53.3126H67.4744V57.9614H67.4822Z" fill="black"/>
<path d="M90.8501 57.9606H78.72L76.6479 53.3119H83.4464L79.7522 45.127L73.9705 57.9606H68.6621V53.3119H70.7653L77.8353 37.6204H81.6847L90.8501 57.9606Z" fill="black"/>
<path d="M111.268 57.9606H106.534L96.7712 46.4225V57.9606H92.0371V37.6204H96.7789L106.534 49.1432V37.6204H111.268V57.9606Z" fill="black"/>
<path d="M133.154 57.9605H122.801C119.937 57.9605 117.5 56.9697 115.475 54.9807C113.449 52.9992 112.44 50.5986 112.44 47.7865C112.44 44.982 113.449 42.5814 115.475 40.5923C117.493 38.6109 119.937 37.6125 122.801 37.6125H133.154V42.2613H122.801C121.241 42.2613 119.914 42.8024 118.82 43.877C117.726 44.9515 117.174 46.2547 117.174 47.7865C117.174 49.3183 117.726 50.6215 118.82 51.696C119.914 52.7706 121.241 53.3117 122.801 53.3117H128.42V50.1185H125.463L123.391 45.4697H133.154V57.9605Z" fill="#DC0000"/>
<path d="M156.529 57.9606H144.399L142.327 53.3119H149.125L145.431 45.127L139.649 57.9606H134.341V53.3119H136.444L143.514 37.6204H147.363L156.529 57.9606Z" fill="#DC0000"/>
<path d="M179.905 57.9606H175.171V48.7469L170.289 57.953H167.332L162.451 48.7469V57.953H157.717V37.6204H162.459L168.815 50.1111L175.171 37.6204H179.913V57.9606H179.905Z" fill="#DC0000"/>
<path d="M198.833 57.9606H181.084V37.6204H198.833V42.2691H185.818V45.4623H195.876V50.1111H185.818V53.3042H198.833V57.9606Z" fill="#DC0000"/>
<path d="M49.9639 68.208C49.9639 68.016 50.0208 67.8792 50.1348 67.7979C50.2487 67.7132 50.3594 67.6709 50.4668 67.6709H51.0479C51.3408 67.6709 51.5638 67.8304 51.7168 68.1494C51.8698 68.4684 52.2132 68.6279 52.7471 68.6279L54.4561 68.6621C55.029 68.6621 55.3154 68.4749 55.3154 68.1006C55.3154 67.8174 54.9655 67.5944 54.2656 67.4316C53.9531 67.3568 53.6081 67.2835 53.2305 67.2119C52.8529 67.137 52.4769 67.0443 52.1025 66.9336C51.7314 66.8229 51.3896 66.6927 51.0771 66.543C50.7646 66.3932 50.5107 66.1882 50.3154 65.9277C50.1234 65.6641 50.0273 65.3548 50.0273 65C50.0273 64.3457 50.2601 63.8428 50.7256 63.4912C51.1911 63.1364 51.9919 62.959 53.1279 62.959L54.3682 62.9883C55.0355 62.9883 55.6361 63.1608 56.1699 63.5059C56.707 63.8477 56.9756 64.2757 56.9756 64.79C56.9756 64.9821 56.9186 65.1204 56.8047 65.2051C56.6908 65.2897 56.5817 65.332 56.4775 65.332H55.8965C55.6035 65.332 55.3805 65.1725 55.2275 64.8535C55.0745 64.5312 54.7311 64.3701 54.1973 64.3701L52.7275 64.3408C52.1546 64.3408 51.8682 64.528 51.8682 64.9023C51.8682 65.1074 52.0488 65.2751 52.4102 65.4053C52.7747 65.5355 53.2142 65.651 53.7285 65.752C54.2461 65.8496 54.7653 65.9684 55.2861 66.1084C55.807 66.2484 56.248 66.4795 56.6094 66.8018C56.974 67.1208 57.1562 67.5195 57.1562 67.998C57.1562 68.6523 56.9219 69.1569 56.4531 69.5117C55.9876 69.8633 55.1885 70.0391 54.0557 70.0391L52.5762 70.0098C51.9089 70.0098 51.3066 69.8389 50.7695 69.4971C50.2324 69.152 49.9639 68.7223 49.9639 68.208ZM64.6172 69.2773C63.9531 69.86 62.9766 70.1514 61.6875 70.1514C60.4017 70.1514 59.4251 69.86 58.7578 69.2773C58.0905 68.6914 57.7568 67.7653 57.7568 66.499C57.7568 65.2327 58.0905 64.3083 58.7578 63.7256C59.4251 63.1429 60.4017 62.8516 61.6875 62.8516C62.9766 62.8516 63.9531 63.1429 64.6172 63.7256C65.2845 64.3083 65.6182 65.2327 65.6182 66.499C65.6182 67.7653 65.2845 68.6914 64.6172 69.2773ZM63.2842 64.7559C62.9554 64.3652 62.4232 64.1699 61.6875 64.1699C60.9551 64.1699 60.4229 64.3652 60.0908 64.7559C59.762 65.1465 59.5977 65.7292 59.5977 66.5039C59.5977 67.2754 59.762 67.8564 60.0908 68.2471C60.4229 68.6344 60.9551 68.8281 61.6875 68.8281C62.4232 68.8281 62.9554 68.6344 63.2842 68.2471C63.613 67.8564 63.7773 67.2754 63.7773 66.5039C63.7773 65.7292 63.613 65.1465 63.2842 64.7559ZM66.624 69.5312V63.4521C66.624 63.3252 66.6696 63.2178 66.7607 63.1299C66.8519 63.042 66.9609 62.998 67.0879 62.998H72.7178C72.8447 62.998 72.9521 63.0436 73.04 63.1348C73.1312 63.2259 73.1768 63.335 73.1768 63.4619V63.9209C73.1768 64.0479 73.1312 64.1569 73.04 64.248C72.9521 64.3359 72.8447 64.3799 72.7178 64.3799H68.4648V66.0986H71.9268C72.0537 66.0986 72.1611 66.1442 72.249 66.2354C72.3402 66.3265 72.3857 66.4339 72.3857 66.5576V67.0215C72.3857 67.1484 72.3402 67.2575 72.249 67.3486C72.1611 67.4365 72.0537 67.4805 71.9268 67.4805H68.4648V69.5312C68.4648 69.6647 68.4193 69.777 68.3281 69.8682C68.2402 69.9561 68.1328 70 68.0059 70H67.0879C66.9609 70 66.8519 69.9561 66.7607 69.8682C66.6696 69.777 66.624 69.6647 66.624 69.5312ZM73.377 63.9209V63.4619C73.377 63.3285 73.4209 63.2178 73.5088 63.1299C73.5967 63.042 73.7074 62.998 73.8408 62.998H80.0371C80.1706 62.998 80.2812 63.042 80.3691 63.1299C80.457 63.2178 80.501 63.3285 80.501 63.4619V63.9209C80.501 64.0544 80.457 64.165 80.3691 64.2529C80.2812 64.3376 80.1706 64.3799 80.0371 64.3799H77.8594V69.5508C77.8594 69.6777 77.8138 69.7852 77.7227 69.873C77.6348 69.9577 77.5273 70 77.4004 70H76.4775C76.3506 70 76.2415 69.9577 76.1504 69.873C76.0625 69.7852 76.0186 69.6777 76.0186 69.5508V64.3799H73.8408C73.7074 64.3799 73.5967 64.3376 73.5088 64.2529C73.4209 64.165 73.377 64.0544 73.377 63.9209ZM80.7256 63.4082C80.7093 63.3691 80.7012 63.3252 80.7012 63.2764C80.7012 63.2243 80.7288 63.1657 80.7842 63.1006C80.8428 63.0322 80.929 62.998 81.043 62.998H82.1123C82.2393 62.998 82.3564 63.042 82.4639 63.1299C82.5713 63.2178 82.6478 63.3285 82.6934 63.4619L83.9824 67.3291L85.1738 63.4619C85.2682 63.1527 85.4619 62.998 85.7549 62.998H86.6533C86.9463 62.998 87.14 63.1527 87.2344 63.4619L88.4258 67.3291L89.7148 63.4619C89.7604 63.3285 89.8369 63.2178 89.9443 63.1299C90.0518 63.042 90.1689 62.998 90.2959 62.998H91.3652C91.4759 62.998 91.5589 63.0322 91.6143 63.1006C91.6729 63.1657 91.7021 63.2243 91.7021 63.2764C91.7021 63.3252 91.6956 63.3691 91.6826 63.4082L89.5049 69.502C89.3844 69.834 89.1501 70 88.8018 70H88.0938C87.7324 70 87.4997 69.834 87.3955 69.502L86.2041 65.7422L85.0127 69.502C84.9053 69.834 84.6725 70 84.3145 70H83.6016C83.2565 70 83.0238 69.834 82.9033 69.502L80.7256 63.4082ZM91.5361 69.5508L92.7617 64.9023C93.0938 63.6361 94.1745 63.0013 96.0039 62.998H98.6357C98.7562 62.998 98.8555 63.0436 98.9336 63.1348C99.015 63.2259 99.0557 63.3317 99.0557 63.4521V69.5508C99.0557 69.6777 99.0101 69.7852 98.9189 69.873C98.8278 69.9577 98.7188 70 98.5918 70H97.6738C97.5404 70 97.4297 69.9577 97.3418 69.873C97.2572 69.7852 97.2148 69.6745 97.2148 69.541V68.3105H93.7432L93.416 69.541C93.3835 69.6745 93.3102 69.7852 93.1963 69.873C93.0824 69.9577 92.9619 70 92.835 70H91.873C91.7461 70 91.6549 69.9642 91.5996 69.8926C91.5443 69.8177 91.5166 69.7526 91.5166 69.6973C91.5199 69.6419 91.5264 69.5931 91.5361 69.5508ZM94.1045 66.9287H97.2148V64.3799H95.8232C95.5107 64.3799 95.2373 64.4694 95.0029 64.6484C94.7718 64.8242 94.6156 65.0618 94.5342 65.3613L94.1045 66.9287ZM107.723 69.79C107.723 69.93 107.64 70 107.474 70H106.302C106.178 70 106.041 69.9561 105.892 69.8682C105.745 69.777 105.633 69.668 105.555 69.541L104.725 68.2422C104.383 67.7083 103.969 67.4414 103.484 67.4414H102.293V69.541C102.293 69.668 102.247 69.777 102.156 69.8682C102.068 69.9561 101.961 70 101.834 70H100.916C100.789 70 100.68 69.9561 100.589 69.8682C100.498 69.777 100.452 69.668 100.452 69.541V63.4619C100.452 63.335 100.496 63.2259 100.584 63.1348C100.672 63.0436 100.779 62.998 100.906 62.998H104.935C105.68 62.998 106.29 63.1982 106.766 63.5986C107.244 63.999 107.483 64.5394 107.483 65.2197C107.483 66.167 106.87 66.7611 105.643 67.002C105.838 67.0736 106.019 67.1973 106.185 67.373C106.351 67.5456 106.541 67.7979 106.756 68.1299L107.645 69.541C107.697 69.6322 107.723 69.7152 107.723 69.79ZM102.293 66.0596H104.373C104.708 66.0596 105.003 65.9928 105.257 65.8594C105.514 65.7259 105.643 65.5127 105.643 65.2197C105.643 64.9268 105.514 64.7135 105.257 64.5801C105.003 64.4466 104.708 64.3799 104.373 64.3799H102.293V66.0596ZM108.538 69.5312V63.4521C108.538 63.3252 108.584 63.2178 108.675 63.1299C108.766 63.042 108.875 62.998 109.002 62.998H114.632C114.759 62.998 114.866 63.0436 114.954 63.1348C115.045 63.2259 115.091 63.335 115.091 63.4619V63.9209C115.091 64.0479 115.045 64.1569 114.954 64.248C114.866 64.3359 114.759 64.3799 114.632 64.3799H110.379V65.8008H114.041C114.168 65.8008 114.275 65.8464 114.363 65.9375C114.454 66.0254 114.5 66.1328 114.5 66.2598V66.7188C114.5 66.8457 114.454 66.9548 114.363 67.0459C114.275 67.1338 114.168 67.1777 114.041 67.1777H110.379V68.6182H114.622C114.746 68.6182 114.852 68.6621 114.939 68.75C115.027 68.8379 115.071 68.9453 115.071 69.0723V69.541C115.071 69.668 115.026 69.777 114.935 69.8682C114.843 69.9561 114.734 70 114.607 70H109.002C108.875 70 108.766 69.9561 108.675 69.8682C108.584 69.777 108.538 69.6647 108.538 69.5312Z" fill="#DC0000"/>
</svg>
