<svg width="64" height="64" viewBox="0 0 64 64" fill="none" xmlns="http://www.w3.org/2000/svg">
<path d="M33.3338 18.4C38.0805 18.4 39.8405 20.6667 40.0005 24H45.8938C45.7071 19.4133 42.9072 15.2 37.3338 13.84V8H29.3338V13.76C28.2938 13.9733 27.3338 14.32 26.4005 14.72L30.4271 18.7467C31.2805 18.5333 32.2672 18.4 33.3338 18.4ZM14.5871 10.4533L10.8271 14.2133L20.0005 23.3867C20.0005 28.9333 24.1605 31.9733 30.4271 33.8133L39.7872 43.1733C38.8805 44.48 36.9872 45.6 33.3338 45.6C27.8405 45.6 25.6805 43.1467 25.3871 40H19.5205C19.8405 45.84 24.2138 49.12 29.3338 50.2133V56H37.3338V50.2667C39.8938 49.7867 42.2138 48.8 43.8938 47.28L49.8138 53.2L53.5738 49.44L14.5871 10.4533Z" fill="#DC0000"/>
</svg>
