<svg width="65" height="64" viewBox="0 0 65 64" fill="none" xmlns="http://www.w3.org/2000/svg">
<g clip-path="url(#clip0)">
<path fill-rule="evenodd" clip-rule="evenodd" d="M35.4996 3C35.4996 2.20435 35.1836 1.44129 34.6209 0.87868C34.0583 0.31607 33.2953 0 32.4996 0C31.704 0 30.9409 0.31607 30.3783 0.87868C29.8157 1.44129 29.4996 2.20435 29.4996 3V8H25.5636C24.3436 8 23.1476 8.32 22.0876 8.92L16.9356 11.868C16.7834 11.9551 16.611 12.0006 16.4356 12H7.49963C6.70398 12 5.94092 12.3161 5.37831 12.8787C4.8157 13.4413 4.49963 14.2044 4.49963 15C4.49963 15.7956 4.8157 16.5587 5.37831 17.1213C5.94092 17.6839 6.70398 18 7.49963 18H9.21163L0.763626 36.768C0.514099 37.3232 0.439386 37.9413 0.549412 38.54C0.659437 39.1387 0.948994 39.6898 1.37963 40.12L3.49963 38L1.37963 40.12V40.124L1.38763 40.132L1.39563 40.14L1.41963 40.164L1.48363 40.224L1.66363 40.384C2.50487 41.0891 3.42582 41.6932 4.40763 42.184C6.92645 43.4121 9.69759 44.034 12.4996 44C16.0196 44 18.7236 43.12 20.5916 42.184C21.5734 41.6932 22.4944 41.0891 23.3356 40.384L23.5156 40.224L23.5796 40.164L23.6036 40.14L23.6116 40.132L23.6156 40.124L21.4996 38L23.6196 40.12C24.0503 39.6898 24.3398 39.1387 24.4498 38.54C24.5599 37.9413 24.4852 37.3232 24.2356 36.768L15.7876 18H16.4356C17.6556 18 18.8516 17.68 19.9116 17.08L25.0676 14.132C25.2187 14.0456 25.3896 14.0001 25.5636 14H29.4996V52H19.4996C18.704 52 17.9409 52.3161 17.3783 52.8787C16.8157 53.4413 16.4996 54.2043 16.4996 55C16.4996 55.7957 16.8157 56.5587 17.3783 57.1213C17.9409 57.6839 18.704 58 19.4996 58H45.4996C46.2953 58 47.0583 57.6839 47.6209 57.1213C48.1836 56.5587 48.4996 55.7957 48.4996 55C48.4996 54.2043 48.1836 53.4413 47.6209 52.8787C47.0583 52.3161 46.2953 52 45.4996 52H35.4996V14H39.4356C39.6096 14.0001 39.7806 14.0456 39.9316 14.132L45.0916 17.076C46.1476 17.684 47.3436 18 48.5636 18H49.2116L40.7636 36.768C40.5141 37.3232 40.4394 37.9413 40.5494 38.54C40.6594 39.1387 40.949 39.6898 41.3796 40.12L43.4996 38L41.3796 40.12V40.124L41.3876 40.132L41.3956 40.14L41.4196 40.164L41.4836 40.224L41.6636 40.384C42.5049 41.089 43.4259 41.6931 44.4076 42.184C46.9264 43.4121 49.6976 44.034 52.4996 44C56.0196 44 58.7236 43.12 60.5916 42.184C61.5735 41.6933 62.4944 41.0891 63.3356 40.384L63.5156 40.224L63.5556 40.184L63.5796 40.164L63.6036 40.14L63.6116 40.132L63.6156 40.124L61.4996 38L63.6196 40.12C64.0503 39.6898 64.3398 39.1387 64.4498 38.54C64.5599 37.9413 64.4852 37.3232 64.2356 36.768L55.7916 18H57.4996C58.2953 18 59.0583 17.6839 59.6209 17.1213C60.1836 16.5587 60.4996 15.7956 60.4996 15C60.4996 14.2044 60.1836 13.4413 59.6209 12.8787C59.0583 12.3161 58.2953 12 57.4996 12H48.5636C48.3896 11.9999 48.2187 11.9544 48.0676 11.868L42.9076 8.924C41.8516 8.31985 40.6563 8.00138 39.4396 8H35.4996V3ZM7.27963 36.908C8.41963 37.448 10.1516 38 12.4996 38C14.8476 38 16.5796 37.448 17.7196 36.908L12.4996 25.308L7.27963 36.908ZM47.2796 36.908C48.4196 37.448 50.1516 38 52.4996 38C54.8476 38 56.5796 37.448 57.7196 36.908L52.4996 25.308L47.2796 36.908Z" fill="#DC0000"/>
</g>
<defs>
<clipPath id="clip0">
<rect width="64" height="64" fill="white" transform="translate(0.5)"/>
</clipPath>
</defs>
</svg>
