<svg width="65" height="64" viewBox="0 0 65 64" fill="none" xmlns="http://www.w3.org/2000/svg">
<path d="M52.6217 16.1214L16.6217 52.1214C16.0575 52.6765 15.2969 52.9861 14.5055 52.9829C13.7141 52.9796 12.956 52.6638 12.3964 52.1042C11.8367 51.5446 11.5209 50.7865 11.5177 49.9951C11.5145 49.2037 11.8241 48.4431 12.3792 47.8789L48.3792 11.8789C48.9433 11.3239 49.7039 11.0142 50.4953 11.0175C51.2868 11.0207 52.0448 11.3365 52.6045 11.8961C53.1641 12.4557 53.4799 13.2138 53.4831 14.0052C53.4863 14.7966 53.1767 15.5573 52.6217 16.1214ZM12.4292 26.0714C10.789 24.4352 9.76709 22.2809 9.53756 19.9756C9.30802 17.6703 9.8851 15.3567 11.1704 13.4293C12.4557 11.5018 14.3697 10.0798 16.5862 9.40553C18.8026 8.7313 21.1842 8.84661 23.3252 9.73182C25.4661 10.617 27.2337 12.2173 28.3268 14.2599C29.4199 16.3026 29.7708 18.6611 29.3196 20.9334C28.8684 23.2057 27.6431 25.2513 25.8526 26.7214C24.0621 28.1914 21.8171 28.995 19.5004 28.9952C18.187 28.9994 16.8858 28.7431 15.6721 28.2411C14.4584 27.7392 13.3562 27.0016 12.4294 26.0709L12.4292 26.0714ZM15.5004 19.0002C15.5007 19.9247 15.8215 20.8206 16.4082 21.5351C16.9949 22.2497 17.8111 22.7387 18.718 22.919C19.6248 23.0992 20.566 22.9595 21.3814 22.5237C22.1967 22.0878 22.8358 21.3827 23.1896 20.5286C23.5435 19.6744 23.5902 18.724 23.322 17.8392C23.0537 16.9545 22.487 16.1901 21.7184 15.6762C20.9498 15.1624 20.0268 14.931 19.1066 15.0213C18.1865 15.1116 17.3262 15.5182 16.6722 16.1717C16.2995 16.5422 16.0041 16.983 15.8029 17.4685C15.6018 17.9541 15.499 18.4746 15.5004 19.0002ZM55.5004 45.0002C55.5004 47.3137 54.6983 49.5557 53.2306 51.3441C51.7629 53.1326 49.7205 54.3568 47.4514 54.8081C45.1823 55.2595 42.8269 54.9102 40.7865 53.8196C38.7462 52.729 37.147 50.9647 36.2617 48.8272C35.3763 46.6898 35.2594 44.3115 35.931 42.0976C36.6025 39.8836 38.021 37.971 39.9446 36.6857C41.8683 35.4003 44.1781 34.8217 46.4805 35.0484C48.7829 35.2752 50.9355 36.2933 52.5714 37.9292C53.5029 38.8556 54.2415 39.9575 54.7442 41.1713C55.247 42.385 55.504 43.6864 55.5004 45.0002ZM49.5004 45.0002C49.5018 44.4747 49.399 43.9541 49.1979 43.4687C48.9967 42.9832 48.7013 42.5424 48.3287 42.1719V42.1717C47.6743 41.5173 46.8132 41.1102 45.8922 41.0195C44.9713 40.9289 44.0474 41.1603 43.278 41.6745C42.5085 42.1887 41.9412 42.9537 41.6726 43.8393C41.404 44.7249 41.4508 45.6762 41.805 46.5312C42.1591 47.3861 42.7988 48.0918 43.615 48.528C44.4311 48.9642 45.3733 49.104 46.2809 48.9234C47.1885 48.7428 48.0055 48.2531 48.5925 47.5378C49.1796 46.8224 49.5004 45.9256 49.5004 45.0002Z" fill="#DC0000"/>
</svg>
