<svg width="65" height="65" viewBox="0 0 65 65" fill="none" xmlns="http://www.w3.org/2000/svg">
<path d="M25.9117 47.275C24.5482 51.365 21.2992 54.3697 16.5152 55.9642C14.3694 56.6738 12.1314 57.0657 9.87215 57.1277C9.34172 57.1277 8.83301 56.917 8.45794 56.5419C8.08287 56.1669 7.87215 55.6581 7.87215 55.1277C7.93411 52.8685 8.32609 50.6305 9.03565 48.4847C10.6302 43.7007 13.6349 40.4515 17.7249 39.0882C17.9741 39.0052 18.2372 38.972 18.4991 38.9906C18.7611 39.0092 19.0169 39.0792 19.2518 39.1967C19.4867 39.3142 19.6962 39.4767 19.8683 39.6751C20.0404 39.8736 20.1717 40.1039 20.2548 40.3531C20.3378 40.6023 20.371 40.8653 20.3524 41.1273C20.3338 41.3893 20.2638 41.6451 20.1463 41.88C20.0288 42.1149 19.8663 42.3244 19.6679 42.4965C19.4694 42.6686 19.2391 42.7999 18.9899 42.883C14.0757 44.521 12.5534 49.8555 12.0827 52.9175C15.1432 52.4467 20.4787 50.9247 22.1169 46.01C22.2 45.7608 22.3313 45.5304 22.5034 45.332C22.6755 45.1335 22.885 44.971 23.1199 44.8535C23.3548 44.736 23.6106 44.666 23.8726 44.6474C24.1346 44.6287 24.3977 44.6619 24.6469 44.745C24.8961 44.828 25.1265 44.9594 25.3249 45.1315C25.5233 45.3035 25.6859 45.513 25.8034 45.748C25.9208 45.9829 25.9909 46.2387 26.0095 46.5007C26.0281 46.7627 25.995 47.0258 25.9119 47.275H25.9117ZM50.8844 28.2575L48.6422 30.5002V45.814C48.6436 46.3394 48.5408 46.86 48.3397 47.3454C48.1386 47.8309 47.8432 48.2717 47.4707 48.6422L39.3847 56.7277C38.8727 57.2397 38.2314 57.6032 37.5291 57.7793C36.8268 57.9555 36.0899 57.9377 35.3969 57.7279C34.7039 57.5181 34.0809 57.1241 33.5943 56.588C33.1076 56.0519 32.7756 55.3937 32.6337 54.6837L30.6572 44.8002L20.1997 34.3427L10.3162 32.366C9.60624 32.224 8.94817 31.892 8.41211 31.4054C7.87605 30.9188 7.4821 30.2959 7.27227 29.603C7.06245 28.9101 7.0446 28.1732 7.22065 27.471C7.39669 26.7687 7.76003 26.1274 8.2719 25.6155L16.3572 17.5297C16.7278 17.1572 17.1686 16.8618 17.6541 16.6608C18.1396 16.4597 18.6602 16.3568 19.1857 16.3582H34.4997L36.7422 14.1155C43.8894 6.96896 51.2229 7.17621 54.0447 7.59721C54.8916 7.72016 55.6761 8.11351 56.2813 8.71865C56.8865 9.32378 57.2799 10.1083 57.4029 10.9552C57.8242 13.7767 58.0317 21.1105 50.8847 28.2577L50.8844 28.2575ZM11.1004 28.4435L20.5284 30.329L30.4997 20.3582H19.1859L11.1004 28.4435ZM24.0147 32.5002L32.4997 40.9855L48.0559 25.4292C50.0084 23.4767 54.4419 18.2157 53.4467 11.546C46.7817 10.5577 41.5229 14.9917 39.5707 16.944L24.0147 32.5002ZM44.6422 34.5002L34.6709 44.4715L36.5567 53.8995L44.6419 45.814L44.6422 34.5002Z" fill="#DC0000"/>
</svg>
