<svg width="65" height="64" viewBox="0 0 65 64" fill="none" xmlns="http://www.w3.org/2000/svg">
<g clip-path="url(#clip0)">
<path d="M55.56 20.0821C55.1434 19.9987 54.8309 19.957 54.6226 19.957C53.0811 19.957 51.748 20.4783 50.6231 21.521C48.0817 20.3949 45.707 19.4774 43.4989 18.7683C39.8743 17.6005 36.0831 16.6413 32.1252 15.8905C31.7503 14.8895 31.1878 14.0554 30.4379 13.3881C31.4795 8.4666 32.8751 4.00391 34.6249 0C39.8743 0.375367 44.6967 1.89769 49.092 4.56696C53.4873 7.23623 57.039 10.7397 59.747 15.0772C58.2055 16.7455 56.8099 18.4138 55.56 20.0821ZM26.5634 11.9492C25.4802 11.9492 24.4595 12.2411 23.5012 12.825C20.1266 10.3226 16.7312 8.1955 13.3149 6.44379C18.481 2.5233 24.272 0.375367 30.6879 0C29.0631 3.62854 27.7507 7.6116 26.7509 11.9492H26.5634ZM4.8784 15.828C6.2949 13.4506 8.08636 11.1984 10.2528 9.07136C13.0858 10.5311 16.0229 12.3245 19.0643 14.4516C13.6899 14.3265 8.96126 14.7853 4.8784 15.828ZM20.5641 18.3304C20.6474 19.6233 21.0953 20.7599 21.9077 21.74C22.7201 22.7201 23.7304 23.377 24.9386 23.7107C24.6886 26.6302 24.5636 29.4037 24.5636 32.0313C24.5636 33.8664 24.6261 35.9726 24.7511 38.35C23.8345 38.6419 23.0221 39.1424 22.3139 39.8514C20.0641 38.9756 17.8977 37.9746 15.8146 36.8485C16.2729 35.9309 16.502 34.9925 16.502 34.0332C16.502 32.3649 15.9188 30.9469 14.7523 29.7791C13.5857 28.6113 12.1692 28.0274 10.5027 28.0274C8.66962 28.0274 7.14897 28.7364 5.94077 30.1544C4.19098 28.5696 2.62866 26.9221 1.25382 25.2121C1.62878 23.4187 2.19121 21.6461 2.94112 19.8944C8.02387 18.4764 13.8982 17.955 20.5641 18.3304ZM4.56593 34.5337C4.69092 36.0769 5.32626 37.3803 6.47196 38.4438C7.61766 39.5073 8.96126 40.0391 10.5027 40.0391C10.961 40.0391 11.461 39.9557 12.0026 39.7889C14.6689 41.332 17.5228 42.6667 20.5641 43.7928V44.043C20.5641 45.6696 21.1161 47.0564 22.2201 48.2033C23.3242 49.3503 24.6886 49.9655 26.3134 50.0489C27.355 55.1372 28.8131 59.7876 30.6879 64C26.5217 63.7498 22.5847 62.7383 18.8768 60.9658C15.1689 59.1932 11.9713 56.8889 9.28414 54.0528C6.59695 51.2167 4.46178 47.8801 2.87863 44.043C1.29548 40.2059 0.503906 36.202 0.503906 32.0313C0.503906 31.9896 0.524737 31.4265 0.566399 30.3421C1.73293 31.8019 3.06611 33.1991 4.56593 34.5337ZM31.8128 46.8583C34.8124 47.4005 37.8329 47.755 40.8742 47.9218C41.1659 48.7559 41.6241 49.5275 42.2491 50.2366C41.2908 54.6158 40.7076 58.87 40.4993 62.999C38.3745 63.5412 36.4164 63.8749 34.6249 64C32.6668 59.5373 31.1462 54.4907 30.063 48.8602C30.8129 48.3597 31.3962 47.6924 31.8128 46.8583ZM51.1855 49.8612C51.7271 49.1939 52.1021 48.4848 52.3104 47.7341C55.3517 47.4839 58.2889 47.0877 61.1219 46.5455C59.1221 50.466 56.3724 53.8651 52.8728 56.7429C52.4979 54.5741 51.9354 52.2802 51.1855 49.8612ZM40.9992 43.9179C38.0829 43.7511 35.2082 43.3757 32.3752 42.7918C31.9169 40.7064 30.7296 39.2675 28.8131 38.4751C28.6465 36.0143 28.5631 33.8664 28.5631 32.0313C28.5631 29.2786 28.6881 26.4216 28.9381 23.4604C29.0214 23.4604 29.1256 23.4187 29.2506 23.3353C29.3756 23.2519 29.4589 23.2102 29.5005 23.2102C31.1254 24.795 32.5419 26.2548 33.75 27.5894C37.3746 31.5934 40.4576 36.1395 42.999 41.2278C42.0824 41.9368 41.4158 42.8335 40.9992 43.9179ZM46.5611 52.0508C46.6444 52.0508 46.8735 52.03 47.2485 51.9883C47.9567 54.5324 48.4775 57.0557 48.8108 59.5582C47.6026 60.2672 46.1444 60.9762 44.4363 61.6852C44.7279 58.4321 45.2279 55.1997 45.9361 51.9883C46.2694 52.03 46.4777 52.0508 46.5611 52.0508ZM46.2486 37.0987C46.2069 37.1821 46.1549 37.3073 46.0924 37.4741C46.0299 37.6409 45.9778 37.766 45.9361 37.8495C43.3114 33.0948 40.2285 28.7781 36.6872 24.8993C35.3957 23.4396 33.8542 21.8547 32.0627 20.1447C32.1044 20.1447 32.1357 20.1134 32.1565 20.0508L32.1877 19.957C35.6873 20.666 39.0411 21.5419 42.2491 22.5846C44.2072 23.2102 46.3527 24.0443 48.6858 25.087C48.6025 25.5041 48.5608 25.8169 48.5608 26.0254C48.5608 27.2766 48.9358 28.4236 49.6857 29.4663C48.3109 32.0938 47.1652 34.638 46.2486 37.0987ZM49.1858 40.7273C49.6857 39.2675 49.9357 38.5168 49.9357 38.4751C50.7689 36.3897 51.8104 34.1584 53.0603 31.781C53.6019 31.9479 54.1227 32.0313 54.6226 32.0313C56.0391 32.0313 57.3098 31.5516 58.4347 30.5924C60.4761 32.0104 62.4759 33.5953 64.434 35.347C64.184 37.7243 63.6841 40.0182 62.9342 42.2287C59.5179 42.9378 55.9141 43.4383 52.1229 43.7302C51.5813 42.3956 50.6023 41.3946 49.1858 40.7273ZM60.6219 25.9629C60.6219 24.5865 60.1636 23.3353 59.2471 22.2092C60.122 21.0831 60.9969 20.0613 61.8718 19.1437C63.3716 22.5637 64.2465 26.088 64.4965 29.7165C63.1216 28.6738 61.7885 27.7354 60.4969 26.9013C60.5803 26.5259 60.6219 26.2131 60.6219 25.9629Z" fill="#DC0000"/>
</g>
<defs>
<clipPath id="clip0">
<rect width="64" height="64" fill="white" transform="translate(0.5)"/>
</clipPath>
</defs>
</svg>
