<svg width="48" height="48" viewBox="0 0 48 48" fill="none" xmlns="http://www.w3.org/2000/svg">
<g clip-path="url(#clip0)">
<path d="M44 8H28V14H20V8H4C2.93913 8 1.92172 8.42143 1.17157 9.17157C0.421427 9.92172 0 10.9391 0 12L0 40C0 41.0609 0.421427 42.0783 1.17157 42.8284C1.92172 43.5786 2.93913 44 4 44H44C45.0609 44 46.0783 43.5786 46.8284 42.8284C47.5786 42.0783 48 41.0609 48 40V12C48 10.9391 47.5786 9.92172 46.8284 9.17157C46.0783 8.42143 45.0609 8 44 8ZM16 18C17.0609 18 18.0783 18.4214 18.8284 19.1716C19.5786 19.9217 20 20.9391 20 22C20 23.0609 19.5786 24.0783 18.8284 24.8284C18.0783 25.5786 17.0609 26 16 26C14.9391 26 13.9217 25.5786 13.1716 24.8284C12.4214 24.0783 12 23.0609 12 22C12 20.9391 12.4214 19.9217 13.1716 19.1716C13.9217 18.4214 14.9391 18 16 18ZM24 34H8V32C8 29.34 13.34 28 16 28C18.66 28 24 29.34 24 32V34ZM40 36H28V32H40V36ZM40 28H28V24H40V28ZM40 20H28V16H40V20ZM26 12H22V4H26V12Z" fill="black"/>
</g>
<defs>
<clipPath id="clip0">
<rect width="48" height="48" fill="white"/>
</clipPath>
</defs>
</svg>
