<svg width="48" height="48" viewBox="0 0 48 48" fill="none" xmlns="http://www.w3.org/2000/svg">
<path d="M24 0C20.9631 0 18.4615 2.50154 18.4615 5.53846C18.4615 7.85908 19.9754 9.40062 21 10.2111C21.5114 10.6172 21.9305 10.9625 22.0966 11.1342C22.1465 11.1858 22.1428 11.1895 22.1538 11.1932V11.9428C20.5791 12.8825 5.73969 21.7163 4.55815 22.4418C3.57785 23.0455 2.58277 23.592 1.67262 24.4615C0.762462 25.3292 0 26.6751 0 28.2111C0 29.7212 0.725538 31.1003 1.78892 31.9606C2.85046 32.8246 4.16677 33.2308 5.53846 33.2308H7.38462V29.5385H5.53846C4.872 29.5385 4.36985 29.3557 4.09662 29.1342C3.82154 28.9126 3.69231 28.704 3.69231 28.2111C3.69231 27.672 3.77908 27.528 4.21108 27.1145C4.64492 26.7028 5.49046 26.1914 6.51877 25.5582C7.32185 25.0634 22.3957 16.0228 24 15.0572C25.6062 16.0228 40.6782 25.0634 41.4812 25.5582C42.5095 26.1895 43.3551 26.7028 43.7889 27.1163C44.2209 27.528 44.3077 27.672 44.3077 28.2111C44.3077 28.704 44.1785 28.9126 43.9034 29.1342C43.6302 29.3557 43.128 29.5385 42.4615 29.5385H40.6154V33.2308H42.4615C43.8332 33.2308 45.1495 32.8228 46.2111 31.9606C46.7668 31.5062 47.2152 30.9346 47.5245 30.2868C47.8337 29.6389 47.9961 28.9308 48 28.2129C48 26.6751 47.2375 25.3311 46.3274 24.4615C45.4154 23.5938 44.4222 23.0455 43.4418 22.4418C42.2603 21.7163 27.4209 12.8825 25.8462 11.9428V11.0769C25.8462 10.008 25.2775 9.08492 24.7495 8.53846C24.2234 7.992 23.7194 7.65231 23.3077 7.32738C22.4862 6.67569 22.1538 6.45785 22.1538 5.53846C22.1538 4.49538 22.9569 3.69231 24 3.69231C25.0431 3.69231 25.8462 4.49538 25.8462 5.53846C25.8462 6.02809 26.0407 6.49767 26.3869 6.84389C26.7331 7.19011 27.2027 7.38462 27.6923 7.38462C28.1819 7.38462 28.6515 7.19011 28.9977 6.84389C29.344 6.49767 29.5385 6.02809 29.5385 5.53846C29.5385 2.50154 27.0369 0 24 0ZM11.0769 25.8462C10.5873 25.8462 10.1177 26.0407 9.7715 26.3869C9.42527 26.7331 9.23077 27.2027 9.23077 27.6923V46.1538C9.23077 46.6435 9.42527 47.1131 9.7715 47.4593C10.1177 47.8055 10.5873 48 11.0769 48H36.9231C37.4127 48 37.8823 47.8055 38.2285 47.4593C38.5747 47.1131 38.7692 46.6435 38.7692 46.1538V27.6923C38.7692 27.2027 38.5747 26.7331 38.2285 26.3869C37.8823 26.0407 37.4127 25.8462 36.9231 25.8462H11.0769Z" fill="black"/>
</svg>
