<svg width="48" height="48" viewBox="0 0 48 48" fill="none" xmlns="http://www.w3.org/2000/svg">
<path d="M43.8001 9.99994H36.0001V3.99994C36.0001 2.89994 35.1001 1.99994 34.0001 1.99994C32.9001 1.99994 32.0001 2.89994 32.0001 3.99994V9.99994H24.2001C23.0201 9.99994 22.1001 11.0199 22.2001 12.1999L22.4401 14.6199C29.8001 16.3199 36.0001 21.5399 36.0001 29.9999L36.0401 45.9999H39.4401C41.1201 45.9999 42.5001 44.6999 42.7001 43.0599L45.7801 12.1999C45.9001 11.0199 44.9801 9.99994 43.8001 9.99994ZM30.0001 41.9999H4.00012C2.90012 41.9999 2.00012 42.8999 2.00012 43.9999C2.00012 45.0999 2.90012 45.9999 4.00012 45.9999H30.0001C31.1001 45.9999 32.0001 45.0999 32.0001 43.9999C32.0001 42.8999 31.1001 41.9999 30.0001 41.9999Z" fill="black"/>
<path d="M4.20012 29.9999H29.8001C31.0401 29.9999 32.0201 28.8799 31.7801 27.6799C30.4801 21.2199 23.7401 17.9799 17.0001 17.9799C10.2601 17.9799 3.54012 21.2199 2.22012 27.6799C1.98012 28.8799 2.98012 29.9999 4.20012 29.9999ZM30.0001 33.9999H4.00012C2.90012 33.9999 2.00012 34.8999 2.00012 35.9999C2.00012 37.0999 2.90012 37.9999 4.00012 37.9999H30.0001C31.1001 37.9999 32.0001 37.0999 32.0001 35.9999C32.0001 34.8999 31.1001 33.9999 30.0001 33.9999Z" fill="black"/>
</svg>
