<svg width="48" height="48" viewBox="0 0 48 48" fill="none" xmlns="http://www.w3.org/2000/svg">
<path d="M10.5 39H37.5C38.0701 39.0002 38.6189 39.2167 39.0354 39.6059C39.452 39.9951 39.7053 40.5279 39.7441 41.0966C39.783 41.6654 39.6045 42.2277 39.2447 42.6699C38.885 43.1121 38.3708 43.4013 37.806 43.479L37.5 43.5H10.5C9.92998 43.4998 9.38122 43.2833 8.96467 42.8941C8.54812 42.5049 8.29482 41.9721 8.25597 41.4034C8.21711 40.8346 8.39559 40.2723 8.75534 39.8301C9.1151 39.3879 9.6293 39.0987 10.194 39.021L10.5 39H37.5H10.5ZM23.694 3.021L24 3C24.5438 3.00002 25.0691 3.19693 25.4788 3.5543C25.8886 3.91167 26.1551 4.40534 26.229 4.944L26.25 5.25V28.314L33.015 21.552C33.3966 21.1706 33.9024 20.939 34.4404 20.8993C34.9784 20.8597 35.5127 21.0147 35.946 21.336L36.198 21.552C36.5794 21.9335 36.8111 22.4394 36.8507 22.9774C36.8904 23.5154 36.7354 24.0497 36.414 24.483L36.198 24.735L25.59 35.34C25.2091 35.7211 24.704 35.9527 24.1667 35.9929C23.6294 36.0331 23.0955 35.8791 22.662 35.559L22.41 35.34L11.802 24.735C11.3995 24.3335 11.1638 23.7945 11.1424 23.2264C11.1211 22.6582 11.3156 22.1031 11.6869 21.6725C12.0582 21.2419 12.5787 20.9679 13.1438 20.9054C13.7089 20.843 14.2767 20.9968 14.733 21.336L14.985 21.552L21.75 28.32V5.25C21.7501 4.70629 21.947 4.18097 22.3043 3.77121C22.6617 3.36144 23.1554 3.09494 23.694 3.021L24 3L23.694 3.021Z" fill="black"/>
</svg>
