<svg width="40" height="40" viewBox="0 0 40 40" fill="none" xmlns="http://www.w3.org/2000/svg">
<path fill-rule="evenodd" clip-rule="evenodd" d="M13.3785 33.2393C11.7807 32.5289 10.318 31.5694 9.03964 30.4099H30.9605C29.6821 31.5694 28.2194 32.5289 26.6216 33.2393H20.0001H13.3785ZM27.191 34.5201C29.3821 33.546 31.3396 32.14 32.9554 30.4099H32.9579L35.4493 36.0815C35.8562 37.0078 35.1777 38.0469 34.166 38.0469H5.83441C4.82259 38.0469 4.14408 37.0076 4.55115 36.0813L7.04342 30.4099H7.04478C8.66053 32.14 10.618 33.546 12.8091 34.5201L13.081 34.641H13.3785H13.3921H13.4058H13.4193H13.4329H13.4465H13.4601H13.4736H13.4872H13.5007H13.5143H13.5278H13.5413H13.5548H13.5683H13.5818H13.5953H13.6088H13.6223H13.6357H13.6492H13.6626H13.6761H13.6895H13.7029H13.7163H13.7297H13.7431H13.7565H13.7699H13.7833H13.7966H13.81H13.8234H13.8367H13.85H13.8634H13.8767H13.89H13.9033H13.9166H13.9299H13.9432H13.9565H13.9697H13.983H13.9962H14.0095H14.0227H14.036H14.0492H14.0624H14.0756H14.0888H14.102H14.1152H14.1284H14.1416H14.1548H14.1679H14.1811H14.1942H14.2074H14.2205H14.2336H14.2468H14.2599H14.273H14.2861H14.2992H14.3123H14.3254H14.3385H14.3515H14.3646H14.3777H14.3907H14.4038H14.4168H14.4299H14.4429H14.4559H14.4689H14.482H14.495H14.508H14.521H14.534H14.547H14.5599H14.5729H14.5859H14.5988H14.6118H14.6248H14.6377H14.6506H14.6636H14.6765H14.6894H14.7024H14.7153H14.7282H14.7411H14.754H14.7669H14.7798H14.7927H14.8055H14.8184H14.8313H14.8441H14.857H14.8699H14.8827H14.8956H14.9084H14.9212H14.9341H14.9469H14.9597H14.9725H14.9854H14.9982H15.011H15.0238H15.0366H15.0494H15.0622H15.0749H15.0877H15.1005H15.1133H15.126H15.1388H15.1516H15.1643H15.1771H15.1898H15.2026H15.2153H15.228H15.2408H15.2535H15.2662H15.2789H15.2917H15.3044H15.3171H15.3298H15.3425H15.3552H15.3679H15.3806H15.3933H15.406H15.4187H15.4313H15.444H15.4567H15.4694H15.482H15.4947H15.5074H15.52H15.5327H15.5453H15.558H15.5706H15.5833H15.5959H15.6086H15.6212H15.6338H15.6465H15.6591H15.6717H15.6843H15.697H15.7096H15.7222H15.7348H15.7474H15.76H15.7727H15.7853H15.7979H15.8105H15.8231H15.8357H15.8483H15.8608H15.8734H15.886H15.8986H15.9112H15.9238H15.9364H15.949H15.9615H15.9741H15.9867H15.9993H16.0118H16.0244H16.037H16.0495H16.0621H16.0747H16.0872H16.0998H16.1124H16.1249H16.1375H16.15H16.1626H16.1751H16.1877H16.2003H16.2128H16.2254H16.2379H16.2505H16.263H16.2756H16.2881H16.3007H16.3132H16.3257H16.3383H16.3508H16.3634H16.3759H16.3885H16.401H16.4135H16.4261H16.4386H16.4512H16.4637H16.4763H16.4888H16.5013H16.5139H16.5264H16.539H16.5515H16.564H16.5766H16.5891H16.6016H16.6142H16.6267H16.6393H16.6518H16.6644H16.6769H16.6894H16.702H16.7145H16.7271H16.7396H16.7522H16.7647H16.7772H16.7898H16.8023H16.8149H16.8274H16.84H16.8525H16.8651H16.8776H16.8902H16.9027H16.9153H16.9278H16.9404H16.953H16.9655H16.9781H16.9906H17.0032H17.0158H17.0283H17.0409H17.0535H17.066H17.0786H17.0912H17.1038H17.1163H17.1289H17.1415H17.1541H17.1667H17.1792H17.1918H17.2044H17.217H17.2296H17.2422H17.2548H17.2674H17.28H17.2926H17.3052H17.3178H17.3304H17.343H17.3556H17.3682H17.3809H17.3935H17.4061H17.4187H17.4314H17.444H17.4566H17.4693H17.4819H17.4945H17.5072H17.5198H17.5325H17.5451H17.5578H17.5704H17.5831H17.5958H17.6084H17.6211H17.6338H17.6464H17.6591H17.6718H17.6845H17.6972H17.7099H17.7226H17.7353H17.748H17.7607H17.7734H17.7861H17.7988H17.8115H17.8242H17.837H17.8497H17.8624H17.8752H17.8879H17.9007H17.9134H17.9262H17.9389H17.9517H17.9644H17.9772H17.99H18.0028H18.0155H18.0283H18.0411H18.0539H18.0667H18.0795H18.0923H18.1051H18.1179H18.1308H18.1436H18.1564H18.1692H18.1821H18.1949H18.2078H18.2206H18.2335H18.2463H18.2592H18.2721H18.285H18.2978H18.3107H18.3236H18.3365H18.3494H18.3623H18.3752H18.3881H18.4011H18.414H18.4269H18.4399H18.4528H18.4658H18.4787H18.4917H18.5046H18.5176H18.5306H18.5436H18.5565H18.5695H18.5825H18.5955H18.6086H18.6216H18.6346H18.6476H18.6606H18.6737H18.6867H18.6998H18.7128H18.7259H18.739H18.7521H18.7651H18.7782H18.7913H18.8044H18.8175H18.8306H18.8438H18.8569H18.87H18.8832H18.8963H18.9095H18.9226H18.9358H18.949H18.9621H18.9753H18.9885H19.0017H19.0149H19.0281H19.0414H19.0546H19.0678H19.0811H19.0943H19.1076H19.1208H19.1341H19.1474H19.1607H19.174H19.1873H19.2006H19.2139H19.2272H19.2405H19.2539H19.2672H19.2806H19.2939H19.3073H19.3207H19.334H19.3474H19.3608H19.3742H19.3877H19.4011H19.4145H19.4279H19.4414H19.4549H19.4683H19.4818H19.4953H19.5088H19.5222H19.5357H19.5493H19.5628H19.5763H19.5898H19.6034H19.6169H19.6305H19.6441H19.6577H19.6713H19.6848H19.6985H19.7121H19.7257H19.7393H19.753H19.7666H19.7803H19.7939H19.8076H19.8213H19.835H19.8487H19.8624H19.8761H19.8899H19.9036H19.9174H19.9311H19.9449H19.9587H19.9725H19.9863H20.0001H20.0139H20.0277H20.0415H20.0553H20.069H20.0828H20.0966H20.1103H20.1241H20.1378H20.1515H20.1653H20.179H20.1927H20.2064H20.2201H20.2338H20.2475H20.2612H20.2748H20.2885H20.3021H20.3158H20.3294H20.3431H20.3567H20.3703H20.3839H20.3975H20.4111H20.4247H20.4383H20.4519H20.4655H20.479H20.4926H20.5061H20.5197H20.5332H20.5468H20.5603H20.5738H20.5873H20.6008H20.6143H20.6278H20.6413H20.6548H20.6683H20.6817H20.6952H20.7086H20.7221H20.7355H20.749H20.7624H20.7758H20.7893H20.8027H20.8161H20.8295H20.8429H20.8563H20.8696H20.883H20.8964H20.9097H20.9231H20.9365H20.9498H20.9631H20.9765H20.9898H21.0031H21.0164H21.0297H21.0431H21.0564H21.0696H21.0829H21.0962H21.1095H21.1228H21.136H21.1493H21.1626H21.1758H21.189H21.2023H21.2155H21.2287H21.242H21.2552H21.2684H21.2816H21.2948H21.308H21.3212H21.3344H21.3476H21.3607H21.3739H21.3871H21.4002H21.4134H21.4265H21.4397H21.4528H21.466H21.4791H21.4922H21.5053H21.5185H21.5316H21.5447H21.5578H21.5709H21.584H21.597H21.6101H21.6232H21.6363H21.6494H21.6624H21.6755H21.6885H21.7016H21.7146H21.7277H21.7407H21.7537H21.7668H21.7798H21.7928H21.8058H21.8188H21.8318H21.8448H21.8578H21.8708H21.8838H21.8968H21.9098H21.9228H21.9358H21.9487H21.9617H21.9746H21.9876H22.0006H22.0135H22.0265H22.0394H22.0523H22.0653H22.0782H22.0911H22.104H22.117H22.1299H22.1428H22.1557H22.1686H22.1815H22.1944H22.2073H22.2202H22.2331H22.246H22.2588H22.2717H22.2846H22.2975H22.3103H22.3232H22.336H22.3489H22.3618H22.3746H22.3874H22.4003H22.4131H22.426H22.4388H22.4516H22.4645H22.4773H22.4901H22.5029H22.5157H22.5286H22.5414H22.5542H22.567H22.5798H22.5926H22.6054H22.6182H22.6309H22.6437H22.6565H22.6693H22.6821H22.6949H22.7076H22.7204H22.7332H22.7459H22.7587H22.7715H22.7842H22.797H22.8097H22.8225H22.8352H22.848H22.8607H22.8734H22.8862H22.8989H22.9117H22.9244H22.9371H22.9498H22.9626H22.9753H22.988H23.0007H23.0135H23.0262H23.0389H23.0516H23.0643H23.077H23.0897H23.1024H23.1151H23.1278H23.1405H23.1532H23.1659H23.1786H23.1913H23.204H23.2167H23.2294H23.242H23.2547H23.2674H23.2801H23.2928H23.3054H23.3181H23.3308H23.3435H23.3561H23.3688H23.3815H23.3941H23.4068H23.4195H23.4321H23.4448H23.4574H23.4701H23.4828H23.4954H23.5081H23.5207H23.5334H23.546H23.5587H23.5713H23.584H23.5966H23.6093H23.6219H23.6346H23.6472H23.6599H23.6725H23.6852H23.6978H23.7104H23.7231H23.7357H23.7484H23.761H23.7736H23.7863H23.7989H23.8115H23.8242H23.8368H23.8494H23.8621H23.8747H23.8874H23.9H23.9126H23.9252H23.9379H23.9505H23.9631H23.9758H23.9884H24.001H24.0137H24.0263H24.0389H24.0516H24.0642H24.0768H24.0895H24.1021H24.1147H24.1273H24.14H24.1526H24.1652H24.1779H24.1905H24.2031H24.2158H24.2284H24.241H24.2537H24.2663H24.2789H24.2916H24.3042H24.3168H24.3295H24.3421H24.3547H24.3674H24.38H24.3926H24.4053H24.4179H24.4306H24.4432H24.4558H24.4685H24.4811H24.4938H24.5064H24.519H24.5317H24.5443H24.557H24.5696H24.5823H24.5949H24.6076H24.6202H24.6329H24.6455H24.6582H24.6708H24.6835H24.6962H24.7088H24.7215H24.7341H24.7468H24.7595H24.7721H24.7848H24.7975H24.8101H24.8228H24.8355H24.8482H24.8608H24.8735H24.8862H24.8989H24.9115H24.9242H24.9369H24.9496H24.9623H24.975H24.9877H25.0004H25.0131H25.0258H25.0385H25.0512H25.0639H25.0766H25.0893H25.102H25.1147H25.1274H25.1401H25.1528H25.1655H25.1783H25.191H25.2037H25.2164H25.2292H25.2419H25.2546H25.2673H25.2801H25.2928H25.3056H25.3183H25.3311H25.3438H25.3566H25.3693H25.3821H25.3948H25.4076H25.4203H25.4331H25.4459H25.4586H25.4714H25.4842H25.497H25.5098H25.5225H25.5353H25.5481H25.5609H25.5737H25.5865H25.5993H25.6121H25.6249H25.6377H25.6505H25.6633H25.6762H25.689H25.7018H25.7146H25.7275H25.7403H25.7531H25.766H25.7788H25.7917H25.8045H25.8174H25.8302H25.8431H25.8559H25.8688H25.8817H25.8946H25.9074H25.9203H25.9332H25.9461H25.959H25.9719H25.9848H25.9977H26.0106H26.0235H26.0364H26.0493H26.0622H26.0751H26.0881H26.101H26.1139H26.1269H26.1398H26.1528H26.1657H26.1787H26.1916H26.2046H26.2175H26.2305H26.2435H26.2565H26.2695H26.2824H26.2954H26.3084H26.3214H26.3344H26.3474H26.3604H26.3735H26.3865H26.3995H26.4125H26.4256H26.4386H26.4516H26.4647H26.4777H26.4908H26.5039H26.5169H26.53H26.5431H26.5561H26.5692H26.5823H26.5954H26.6085H26.6216H26.9191L27.191 34.5201ZM31.9531 36.4063C32.5572 36.4063 33.0469 35.9166 33.0469 35.3125C33.0469 34.7085 32.5572 34.2188 31.9531 34.2188C31.3491 34.2188 30.8594 34.7085 30.8594 35.3125C30.8594 35.9166 31.3491 36.4063 31.9531 36.4063Z" fill="black"/>
<path d="M34.9264 18.296C34.9264 24.286 31.405 29.4549 26.317 31.8375H26.3084H26.2954H26.2824H26.2694H26.2564H26.2434H26.2305H26.2175H26.2045H26.1916H26.1786H26.1656H26.1527H26.1397H26.1268H26.1139H26.1009H26.088H26.0751H26.0622H26.0492H26.0363H26.0234H26.0105H25.9976H25.9847H25.9718H25.9589H25.946H25.9331H25.9202H25.9074H25.8945H25.8816H25.8687H25.8559H25.843H25.8302H25.8173H25.8044H25.7916H25.7788H25.7659H25.7531H25.7402H25.7274H25.7146H25.7017H25.6889H25.6761H25.6633H25.6505H25.6377H25.6248H25.612H25.5992H25.5864H25.5736H25.5608H25.548H25.5353H25.5225H25.5097H25.4969H25.4841H25.4714H25.4586H25.4458H25.433H25.4203H25.4075H25.3948H25.382H25.3692H25.3565H25.3437H25.331H25.3182H25.3055H25.2928H25.28H25.2673H25.2545H25.2418H25.2291H25.2164H25.2036H25.1909H25.1782H25.1655H25.1528H25.14H25.1273H25.1146H25.1019H25.0892H25.0765H25.0638H25.0511H25.0384H25.0257H25.013H25.0003H24.9876H24.9749H24.9622H24.9495H24.9368H24.9242H24.9115H24.8988H24.8861H24.8734H24.8608H24.8481H24.8354H24.8227H24.8101H24.7974H24.7847H24.7721H24.7594H24.7467H24.7341H24.7214H24.7088H24.6961H24.6834H24.6708H24.6581H24.6455H24.6328H24.6202H24.6075H24.5949H24.5822H24.5696H24.5569H24.5443H24.5316H24.519H24.5063H24.4937H24.4811H24.4684H24.4558H24.4431H24.4305H24.4178H24.4052H24.3926H24.3799H24.3673H24.3547H24.342H24.3294H24.3168H24.3041H24.2915H24.2789H24.2662H24.2536H24.241H24.2283H24.2157H24.2031H24.1904H24.1778H24.1652H24.1525H24.1399H24.1273H24.1146H24.102H24.0894H24.0768H24.0641H24.0515H24.0389H24.0262H24.0136H24.001H23.9883H23.9757H23.9631H23.9504H23.9378H23.9252H23.9125H23.8999H23.8873H23.8746H23.862H23.8494H23.8367H23.8241H23.8115H23.7988H23.7862H23.7736H23.7609H23.7483H23.7356H23.723H23.7104H23.6977H23.6851H23.6724H23.6598H23.6472H23.6345H23.6219H23.6092H23.5966H23.5839H23.5713H23.5586H23.546H23.5333H23.5207H23.508H23.4954H23.4827H23.47H23.4574H23.4447H23.4321H23.4194H23.4067H23.3941H23.3814H23.3687H23.3561H23.3434H23.3307H23.318H23.3054H23.2927H23.28H23.2673H23.2547H23.242H23.2293H23.2166H23.2039H23.1912H23.1785H23.1658H23.1531H23.1404H23.1278H23.1151H23.1024H23.0896H23.0769H23.0642H23.0515H23.0388H23.0261H23.0134H23.0007H22.9879H22.9752H22.9625H22.9498H22.937H22.9243H22.9116H22.8989H22.8861H22.8734H22.8606H22.8479H22.8351H22.8224H22.8096H22.7969H22.7841H22.7714H22.7586H22.7459H22.7331H22.7203H22.7076H22.6948H22.682H22.6692H22.6564H22.6437H22.6309H22.6181H22.6053H22.5925H22.5797H22.5669H22.5541H22.5413H22.5285H22.5157H22.5029H22.49H22.4772H22.4644H22.4516H22.4387H22.4259H22.4131H22.4002H22.3874H22.3745H22.3617H22.3488H22.336H22.3231H22.3103H22.2974H22.2845H22.2716H22.2588H22.2459H22.233H22.2201H22.2072H22.1943H22.1814H22.1685H22.1556H22.1427H22.1298H22.1169H22.104H22.0911H22.0781H22.0652H22.0523H22.0393H22.0264H22.0134H22.0005H21.9875H21.9746H21.9616H21.9487H21.9357H21.9227H21.9097H21.8967H21.8838H21.8708H21.8578H21.8448H21.8318H21.8188H21.8058H21.7927H21.7797H21.7667H21.7537H21.7406H21.7276H21.7146H21.7015H21.6885H21.6754H21.6623H21.6493H21.6362H21.6231H21.6101H21.597H21.5839H21.5708H21.5577H21.5446H21.5315H21.5184H21.5053H21.4921H21.479H21.4659H21.4528H21.4396H21.4265H21.4133H21.4002H21.387H21.3738H21.3607H21.3475H21.3343H21.3211H21.3079H21.2947H21.2815H21.2683H21.2551H21.2419H21.2287H21.2155H21.2022H21.189H21.1757H21.1625H21.1492H21.136H21.1227H21.1094H21.0962H21.0829H21.0696H21.0563H21.043H21.0297H21.0164H21.0031H20.9897H20.9764H20.9631H20.9497H20.9364H20.923H20.9097H20.8963H20.8829H20.8696H20.8562H20.8428H20.8294H20.816H20.8026H20.7892H20.7758H20.7623H20.7489H20.7355H20.722H20.7086H20.6951H20.6817H20.6682H20.6547H20.6412H20.6278H20.6143H20.6008H20.5873H20.5737H20.5602H20.5467H20.5332H20.5196H20.5061H20.4925H20.479H20.4654H20.4518H20.4382H20.4247H20.4111H20.3975H20.3839H20.3702H20.3566H20.343H20.3294H20.3157H20.3021H20.2884H20.2748H20.2611H20.2474H20.2337H20.22H20.2063H20.1926H20.1789H20.1652H20.1515H20.1377H20.124H20.1103H20.0965H20.0827H20.069H20.0552H20.0414H20.0276H20.0138H20H19.9862H19.9724H19.9586H19.9448H19.9311H19.9173H19.9035H19.8898H19.8761H19.8624H19.8486H19.8349H19.8212H19.8076H19.7939H19.7802H19.7665H19.7529H19.7393H19.7256H19.712H19.6984H19.6848H19.6712H19.6576H19.644H19.6304H19.6169H19.6033H19.5898H19.5762H19.5627H19.5492H19.5357H19.5222H19.5087H19.4952H19.4817H19.4682H19.4548H19.4413H19.4279H19.4144H19.401H19.3876H19.3742H19.3608H19.3474H19.334H19.3206H19.3072H19.2939H19.2805H19.2671H19.2538H19.2405H19.2271H19.2138H19.2005H19.1872H19.1739H19.1606H19.1473H19.134H19.1208H19.1075H19.0942H19.081H19.0677H19.0545H19.0413H19.0281H19.0149H19.0016H18.9884H18.9753H18.9621H18.9489H18.9357H18.9225H18.9094H18.8962H18.8831H18.8699H18.8568H18.8437H18.8306H18.8175H18.8043H18.7912H18.7782H18.7651H18.752H18.7389H18.7258H18.7128H18.6997H18.6867H18.6736H18.6606H18.6475H18.6345H18.6215H18.6085H18.5955H18.5825H18.5695H18.5565H18.5435H18.5305H18.5175H18.5046H18.4916H18.4786H18.4657H18.4527H18.4398H18.4269H18.4139H18.401H18.3881H18.3752H18.3622H18.3493H18.3364H18.3235H18.3107H18.2978H18.2849H18.272H18.2591H18.2463H18.2334H18.2206H18.2077H18.1949H18.182H18.1692H18.1563H18.1435H18.1307H18.1179H18.1051H18.0922H18.0794H18.0666H18.0538H18.041H18.0283H18.0155H18.0027H17.9899H17.9771H17.9644H17.9516H17.9388H17.9261H17.9133H17.9006H17.8878H17.8751H17.8624H17.8496H17.8369H17.8242H17.8115H17.7987H17.786H17.7733H17.7606H17.7479H17.7352H17.7225H17.7098H17.6971H17.6844H17.6717H17.6591H17.6464H17.6337H17.621H17.6084H17.5957H17.583H17.5704H17.5577H17.5451H17.5324H17.5198H17.5071H17.4945H17.4818H17.4692H17.4566H17.4439H17.4313H17.4187H17.406H17.3934H17.3808H17.3682H17.3556H17.343H17.3303H17.3177H17.3051H17.2925H17.2799H17.2673H17.2547H17.2421H17.2295H17.2169H17.2044H17.1918H17.1792H17.1666H17.154H17.1414H17.1288H17.1163H17.1037H17.0911H17.0785H17.066H17.0534H17.0408H17.0283H17.0157H17.0031H16.9906H16.978H16.9655H16.9529H16.9403H16.9278H16.9152H16.9027H16.8901H16.8776H16.865H16.8525H16.8399H16.8274H16.8148H16.8023H16.7897H16.7772H16.7646H16.7521H16.7395H16.727H16.7145H16.7019H16.6894H16.6768H16.6643H16.6517H16.6392H16.6267H16.6141H16.6016H16.589H16.5765H16.564H16.5514H16.5389H16.5263H16.5138H16.5013H16.4887H16.4762H16.4636H16.4511H16.4386H16.426H16.4135H16.4009H16.3884H16.3759H16.3633H16.3508H16.3382H16.3257H16.3131H16.3006H16.288H16.2755H16.2629H16.2504H16.2378H16.2253H16.2127H16.2002H16.1876H16.1751H16.1625H16.15H16.1374H16.1249H16.1123H16.0997H16.0872H16.0746H16.062H16.0495H16.0369H16.0243H16.0118H15.9992H15.9866H15.974H15.9615H15.9489H15.9363H15.9237H15.9111H15.8986H15.886H15.8734H15.8608H15.8482H15.8356H15.823H15.8104H15.7978H15.7852H15.7726H15.76H15.7474H15.7348H15.7221H15.7095H15.6969H15.6843H15.6717H15.659H15.6464H15.6338H15.6211H15.6085H15.5959H15.5832H15.5706H15.5579H15.5453H15.5326H15.52H15.5073H15.4946H15.482H15.4693H15.4566H15.4439H15.4313H15.4186H15.4059H15.3932H15.3805H15.3678H15.3551H15.3424H15.3297H15.317H15.3043H15.2916H15.2789H15.2662H15.2534H15.2407H15.228H15.2152H15.2025H15.1897H15.177H15.1642H15.1515H15.1387H15.126H15.1132H15.1004H15.0877H15.0749H15.0621H15.0493H15.0365H15.0237H15.0109H14.9981H14.9853H14.9725H14.9597H14.9468H14.934H14.9212H14.9083H14.8955H14.8826H14.8698H14.8569H14.8441H14.8312H14.8183H14.8055H14.7926H14.7797H14.7668H14.7539H14.741H14.7281H14.7152H14.7023H14.6894H14.6764H14.6635H14.6506H14.6376H14.6247H14.6117H14.5988H14.5858H14.5728H14.5599H14.5469H14.5339H14.5209H14.5079H14.4949H14.4819H14.4689H14.4559H14.4428H14.4298H14.4168H14.4037H14.3907H14.3776H14.3645H14.3515H14.3384H14.3253H14.3122H14.2991H14.286H14.2729H14.2598H14.2467H14.2336H14.2204H14.2073H14.1942H14.181H14.1679H14.1547H14.1415H14.1283H14.1152H14.102H14.0888H14.0756H14.0623H14.0491H14.0359H14.0227H14.0094H13.9962H13.9829H13.9697H13.9564H13.9431H13.9298H13.9165H13.9032H13.8899H13.8766H13.8633H13.85H13.8366H13.8233H13.8099H13.7966H13.7832H13.7698H13.7565H13.7431H13.7297H13.7163H13.7028H13.6894H13.683C8.59496 29.4549 5.07357 24.286 5.07357 18.296C5.07357 10.043 11.7576 3.35482 20 3.35482C28.2424 3.35482 34.9264 10.043 34.9264 18.296Z" stroke="black" stroke-width="2.8034"/>
<path fill-rule="evenodd" clip-rule="evenodd" d="M9.11484 18.335C9.16274 13.5776 14.91 12.8484 19.9843 12.8484C25.0258 12.8484 30.8085 13.6865 30.8845 18.48C30.9052 19.7884 30.5515 20.7093 30.1308 21.7448C27.438 20.1872 22.5324 25.8532 24.1405 28.4375C23.6814 28.4375 23.2247 28.4369 22.7678 28.4363C21.8532 28.4351 20.9377 28.4338 19.9999 28.4375H15.8593C17.4653 25.8532 12.5262 19.9721 9.85101 21.4969C9.45225 20.5053 9.10207 19.6028 9.11484 18.335ZM15.6819 19.3855C15.6819 21.7756 17.611 23.7074 20.0057 23.7074C22.3843 23.7074 24.318 21.7743 24.318 19.3855C24.318 16.9966 22.3843 15.0635 20.0057 15.0635C17.6109 15.0635 15.6819 16.9954 15.6819 19.3855ZM16.7343 19.3855C16.7343 21.1931 18.1915 22.6541 20.0057 22.6541C21.8025 22.6541 23.2655 21.1931 23.2655 19.3855C23.2655 17.5779 21.8025 16.1169 20.0057 16.1169C18.1915 16.1169 16.7343 17.5779 16.7343 19.3855Z" fill="black"/>
<path d="M16.7344 19.3855C16.7344 21.1931 18.1916 22.6541 20.0058 22.6541C21.8026 22.6541 23.2656 21.1931 23.2656 19.3855C23.2656 17.5779 21.8026 16.1169 20.0058 16.1169C18.1916 16.1169 16.7344 17.5779 16.7344 19.3855Z" fill="black"/>
<path d="M15 29.375H24.8438L26.0938 30.4688H13.9062L15 29.375Z" fill="black"/>
<path d="M24.8365 5.14683C24.45 4.8023 24.416 4.20969 24.7605 3.82318L24.9728 3.58505C25.3173 3.19855 25.9099 3.16452 26.2964 3.50905L28.4351 5.41545C28.819 5.75762 28.8551 6.3445 28.5181 6.73114L30.4572 8.45963C30.4754 8.44354 30.4944 8.42803 30.5141 8.41315L30.7687 8.221C31.1821 7.90914 31.7699 7.99137 32.0818 8.40468L33.8074 10.6917C34.1193 11.105 34.0371 11.6929 33.6238 12.0047L33.3691 12.1969C32.9558 12.5087 32.3679 12.4265 32.0561 12.0132L31.1244 10.7785C30.8379 10.3988 30.2758 10.3758 29.9594 10.7309C29.6148 11.1174 29.0222 11.1514 28.6357 10.8069L26.497 8.90048C26.1105 8.55596 26.0765 7.96334 26.421 7.57684C26.7002 7.26368 26.6726 6.78352 26.3595 6.50438L24.8365 5.14683Z" fill="black"/>
<path d="M14.9329 5.14683C15.3194 4.8023 15.3534 4.20969 15.0089 3.82318L14.7966 3.58505C14.4521 3.19855 13.8595 3.16452 13.473 3.50905L11.3343 5.41545C10.9505 5.75762 10.9143 6.3445 11.2513 6.73114L9.31221 8.45963C9.294 8.44354 9.27503 8.42803 9.25531 8.41315L9.00066 8.221C8.58735 7.90914 7.99949 7.99137 7.68762 8.40468L5.96196 10.6917C5.6501 11.105 5.73234 11.6929 6.14564 12.0047L6.40029 12.1969C6.8136 12.5087 7.40147 12.4265 7.71333 12.0132L8.645 10.7785C8.93148 10.3988 9.49357 10.3758 9.81005 10.7309C10.1546 11.1174 10.7472 11.1514 11.1337 10.8069L13.2724 8.90048C13.6589 8.55596 13.6929 7.96334 13.3484 7.57684C13.0692 7.26368 13.0968 6.78352 13.4099 6.50438L14.9329 5.14683Z" fill="black"/>
</svg>
