<svg width="48" height="48" viewBox="0 0 48 48" fill="none" xmlns="http://www.w3.org/2000/svg">
<path fill-rule="evenodd" clip-rule="evenodd" d="M25 12C25 13.1153 24.8595 14.1979 24.5953 15.2309C30.9713 17.3896 36.0001 22.3808 36.0001 29.9999L36.0401 45.9999H39.4401C41.1201 45.9999 42.5001 44.6999 42.7001 43.0599L45.7801 12.1999C45.9001 11.0199 44.9801 9.99994 43.8001 9.99994H36.0001V3.99994C36.0001 2.89994 35.1001 1.99994 34.0001 1.99994C32.9001 1.99994 32.0001 2.89994 32.0001 3.99994V9.99994H24.8471C24.9477 10.6519 25 11.3198 25 12ZM12 25C9.29408 25 6.78129 24.1733 4.70037 22.7587C3.48827 24.1122 2.61391 25.7528 2.22012 27.6799C1.98012 28.8799 2.98012 29.9999 4.20012 29.9999H29.8001C31.0401 29.9999 32.0201 28.8799 31.7801 27.6799C30.8776 23.1952 27.3532 20.2623 23.0272 18.8881C20.7295 22.5588 16.6498 25 12 25ZM2.00012 43.9999C2.00012 42.8999 2.90012 41.9999 4.00012 41.9999H30.0001C31.1001 41.9999 32.0001 42.8999 32.0001 43.9999C32.0001 45.0999 31.1001 45.9999 30.0001 45.9999H4.00012C2.90012 45.9999 2.00012 45.0999 2.00012 43.9999ZM2.00012 35.9999C2.00012 34.8999 2.90012 33.9999 4.00012 33.9999H30.0001C31.1001 33.9999 32.0001 34.8999 32.0001 35.9999C32.0001 37.0999 31.1001 37.9999 30.0001 37.9999H4.00012C2.90012 37.9999 2.00012 37.0999 2.00012 35.9999Z" fill="black"/>
<path fill-rule="evenodd" clip-rule="evenodd" d="M3 12C3 7.02944 7.02944 3 12 3C16.9706 3 21 7.02944 21 12C21 16.9706 16.9706 21 12 21C7.02944 21 3 16.9706 3 12ZM12 1C5.92487 1 1 5.92487 1 12C1 18.0751 5.92487 23 12 23C18.0751 23 23 18.0751 23 12C23 5.92487 18.0751 1 12 1ZM16.7682 10.1402C17.1218 9.71591 17.0645 9.08534 16.6402 8.73178C16.2159 8.37821 15.5853 8.43554 15.2318 8.85982L10.9328 14.0186L8.70711 11.7929C8.31658 11.4024 7.68342 11.4024 7.29289 11.7929C6.90237 12.1834 6.90237 12.8166 7.29289 13.2071L10.2929 16.2071C10.4916 16.4058 10.7646 16.5117 11.0453 16.499C11.326 16.4862 11.5884 16.356 11.7682 16.1402L16.7682 10.1402Z" fill="black"/>
</svg>
