<svg width="28" height="28" viewBox="0 0 28 28" fill="none" xmlns="http://www.w3.org/2000/svg">
<rect width="28" height="28" rx="6" fill="#DC0000"/>
<path d="M14.0008 5C11.5545 5 11.2496 5.01181 10.2923 5.05231C9.33095 5.09956 8.6807 5.24862 8.10695 5.47137C7.50646 5.69807 6.96264 6.05301 6.51339 6.51144C6.05368 6.95964 5.69855 7.50376 5.47333 8.105C5.25058 8.67875 5.10152 9.329 5.05427 10.2903C5.01095 11.2483 5.00195 11.5526 5.00195 13.9989C5.00195 16.4452 5.01377 16.7501 5.05427 17.7074C5.10152 18.6659 5.25058 19.319 5.47333 19.8927C5.70003 20.4932 6.05496 21.0371 6.51339 21.4863C6.96159 21.946 7.50572 22.3012 8.10695 22.5264C8.6807 22.7463 9.33377 22.8982 10.2923 22.9454C11.2502 22.9888 11.5545 22.9977 14.0008 22.9977C16.4471 22.9977 16.752 22.9859 17.7094 22.9454C18.6679 22.8982 19.321 22.7458 19.8947 22.5264C20.4952 22.2997 21.039 21.9447 21.4883 21.4863C21.9486 21.0386 22.3038 20.4943 22.5283 19.8927C22.7483 19.319 22.9001 18.6659 22.9474 17.7074C22.9907 16.7495 22.9997 16.4452 22.9997 13.9989C22.9997 11.5526 22.9879 11.2477 22.9474 10.2903C22.9001 9.33181 22.7477 8.67537 22.5283 8.105C22.3016 7.50451 21.9467 6.96069 21.4883 6.51144C21.0406 6.05114 20.4963 5.69591 19.8947 5.47137C19.321 5.24862 18.6679 5.09956 17.7094 5.05231C16.7515 5.009 16.4471 5 14.0008 5ZM14.0008 6.62C16.4033 6.62 16.6901 6.63181 17.6396 6.67231C18.5155 6.71337 18.9925 6.85962 19.3091 6.98338C19.7007 7.12789 20.055 7.35792 20.3464 7.65669C20.6447 7.94684 20.8738 8.30038 21.0169 8.69112C21.1406 9.00781 21.2869 9.48481 21.328 10.3606C21.3685 11.3101 21.3803 11.5976 21.3803 13.9994C21.3803 16.4013 21.3685 16.6888 21.3246 17.6383C21.2773 18.5141 21.1311 18.9911 21.0079 19.3078C20.8375 19.7302 20.6473 20.0255 20.3335 20.345C20.0411 20.6419 19.687 20.8708 19.2962 21.0155C18.9835 21.1392 18.4997 21.2855 17.6205 21.3266C16.666 21.3671 16.3847 21.3789 13.9761 21.3789C11.5675 21.3789 11.2868 21.3671 10.3311 21.3232C9.45527 21.2759 8.97208 21.1297 8.65539 21.0065C8.22789 20.8361 7.93483 20.6459 7.62095 20.3321C7.30427 20.0154 7.10289 19.7139 6.94764 19.2948C6.82164 18.9821 6.67764 18.4983 6.63095 17.6191C6.59889 16.6758 6.5837 16.3833 6.5837 13.9859C6.5837 11.5897 6.59889 11.2966 6.63095 10.3415C6.67764 9.46231 6.82164 8.97969 6.94764 8.66581C7.10289 8.23775 7.30483 7.94525 7.62095 7.62856C7.93427 7.31525 8.22789 7.11275 8.65539 6.95412C8.97208 6.83094 9.44345 6.68469 10.3226 6.64081C11.2772 6.6065 11.5585 6.59413 13.9637 6.59413L14.0008 6.62ZM14.0008 9.38019C13.3941 9.37997 12.7932 9.49931 12.2326 9.7314C11.672 9.96349 11.1627 10.3038 10.7336 10.7328C10.3046 11.1618 9.96431 11.6712 9.73223 12.2318C9.50014 12.7924 9.38079 13.3933 9.38102 14C9.38079 14.6067 9.50014 15.2076 9.73223 15.7682C9.96431 16.3288 10.3046 16.8382 10.7336 17.2672C11.1627 17.6962 11.672 18.0365 12.2326 18.2686C12.7932 18.5007 13.3941 18.62 14.0008 18.6198C14.6076 18.62 15.2084 18.5007 15.769 18.2686C16.3296 18.0365 16.839 17.6962 17.268 17.2672C17.6971 16.8382 18.0373 16.3288 18.2694 15.7682C18.5015 15.2076 18.6209 14.6067 18.6206 14C18.6209 13.3933 18.5015 12.7924 18.2694 12.2318C18.0373 11.6712 17.6971 11.1618 17.268 10.7328C16.839 10.3038 16.3296 9.96349 15.769 9.7314C15.2084 9.49931 14.6076 9.37997 14.0008 9.38019ZM14.0008 16.9998C12.3426 16.9998 11.001 15.6582 11.001 14C11.001 12.3418 12.3426 11.0002 14.0008 11.0002C15.6591 11.0002 17.0006 12.3418 17.0006 14C17.0006 15.6582 15.6591 16.9998 14.0008 16.9998ZM19.8868 9.19569C19.8865 9.48237 19.7724 9.75722 19.5696 9.95983C19.3668 10.1624 19.0918 10.2763 18.8051 10.2762C18.6634 10.2762 18.523 10.2483 18.3921 10.1941C18.2611 10.1398 18.1421 10.0603 18.0419 9.96009C17.9416 9.85986 17.8621 9.74086 17.8079 9.6099C17.7536 9.47893 17.7257 9.33857 17.7257 9.19681C17.7257 9.05506 17.7536 8.91469 17.8079 8.78373C17.8621 8.65277 17.9416 8.53377 18.0419 8.43353C18.1421 8.3333 18.2611 8.25379 18.3921 8.19954C18.523 8.1453 18.6634 8.11737 18.8051 8.11737C19.3997 8.11737 19.8868 8.60113 19.8868 9.19569Z" fill="white"/>
</svg>
