<svg width="48" height="48" viewBox="0 0 48 48" fill="none" xmlns="http://www.w3.org/2000/svg">
<path fill-rule="evenodd" clip-rule="evenodd" d="M18.7126 23.1351C21.0673 21.7126 22.9344 19.5642 24.0037 17H29.9897C29.2267 17.4417 28.5178 17.9839 27.8836 18.618C25.9672 20.5344 24.8906 23.1336 24.8906 25.8438V36.3063C24.8906 39.0164 25.9672 41.6156 27.8836 43.532C28.4523 44.1007 29.0811 44.5954 29.7551 45.01H8.5C7.90905 45.01 7.32389 44.8936 6.77792 44.6675C6.23196 44.4413 5.73588 44.1098 5.31802 43.692C4.90016 43.2741 4.56869 42.778 4.34254 42.2321C4.1164 41.6861 4 41.1009 4 40.51V22.2477C5.71013 23.5846 7.76346 24.5028 10.0058 24.848C10.0019 24.8984 10 24.9491 10 25C10 25.5304 10.2107 26.0391 10.5858 26.4142C10.9609 26.7893 11.4696 27 12 27C12.5304 27 13.0391 26.7893 13.4142 26.4142C13.7893 26.0391 14 25.5304 14 25C14 24.9491 13.9981 24.8984 13.9942 24.848C14.7183 24.7365 15.4227 24.5653 16.1022 24.3395C16.0286 24.5498 15.99 24.7729 15.99 25C15.99 25.5304 16.2007 26.0391 16.5758 26.4142C16.9509 26.7893 17.4596 27 17.99 27C18.5204 27 19.0291 26.7893 19.4042 26.4142C19.7793 26.0391 19.99 25.5304 19.99 25C19.99 24.4696 19.7793 23.9609 19.4042 23.5858C19.2056 23.3872 18.9696 23.2347 18.7126 23.1351ZM20 39H13C12.6022 39 12.2206 38.842 11.9393 38.5607C11.658 38.2794 11.5 37.8978 11.5 37.5C11.5 37.1022 11.658 36.7206 11.9393 36.4393C12.2206 36.158 12.6022 36 13 36H20C20.3978 36 20.7794 36.158 21.0607 36.4393C21.342 36.7206 21.5 37.1022 21.5 37.5C21.5 37.8978 21.342 38.2794 21.0607 38.5607C20.7794 38.842 20.3978 39 20 39ZM17.5958 29.5858C17.9709 29.2107 18.4796 29 19.01 29C19.5404 29 20.0491 29.2107 20.4242 29.5858C20.7993 29.9609 21.01 30.4696 21.01 31C21.01 31.5304 20.7993 32.0391 20.4242 32.4142C20.0491 32.7893 19.5404 33 19.01 33C18.4796 33 17.9709 32.7893 17.5958 32.4142C17.2207 32.0391 17.01 31.5304 17.01 31C17.01 30.4696 17.2207 29.9609 17.5958 29.5858ZM11.5958 29.5858C11.9709 29.2107 12.4796 29 13.01 29C13.5404 29 14.0491 29.2107 14.4242 29.5858C14.7993 29.9609 15.01 30.4696 15.01 31C15.01 31.5304 14.7993 32.0391 14.4242 32.4142C14.0491 32.7893 13.5404 33 13.01 33C12.4796 33 11.9709 32.7893 11.5958 32.4142C11.2207 32.0391 11.01 31.5304 11.01 31C11.01 30.4696 11.2207 29.9609 11.5958 29.5858ZM35.6209 45.01C37.7467 44.8851 39.7604 43.9854 41.2745 42.4713C42.9095 40.8363 43.8281 38.6186 43.8281 36.3063V25.8438C43.8281 23.5314 42.9095 21.3137 41.2745 19.6787C39.6394 18.0436 37.4217 17.125 35.1094 17.125C32.797 17.125 30.5794 18.0436 28.9443 19.6787C27.3092 21.3137 26.3906 23.5314 26.3906 25.8438V36.3063C26.3906 38.6186 27.3092 40.8363 28.9443 42.4713C30.4584 43.9854 32.472 44.8851 34.5978 45.01H35.6209ZM35.9812 23.2281C35.9812 22.9969 35.8894 22.7751 35.7259 22.6116C35.5624 22.4481 35.3406 22.3563 35.1094 22.3563C34.8781 22.3563 34.6564 22.4481 34.4929 22.6116C34.3294 22.7751 34.2375 22.9969 34.2375 23.2281V26.7156C34.2375 26.9469 34.3294 27.1686 34.4929 27.3321C34.6564 27.4956 34.8781 27.5875 35.1094 27.5875C35.3406 27.5875 35.5624 27.4956 35.7259 27.3321C35.8894 27.1686 35.9812 26.9469 35.9812 26.7156V23.2281Z" fill="black"/>
<path fill-rule="evenodd" clip-rule="evenodd" d="M3 12C3 7.02944 7.02944 3 12 3C16.9706 3 21 7.02944 21 12C21 16.9706 16.9706 21 12 21C7.02944 21 3 16.9706 3 12ZM12 1C5.92487 1 1 5.92487 1 12C1 18.0751 5.92487 23 12 23C18.0751 23 23 18.0751 23 12C23 5.92487 18.0751 1 12 1ZM16.7682 10.1402C17.1218 9.71591 17.0645 9.08534 16.6402 8.73178C16.2159 8.37821 15.5853 8.43554 15.2318 8.85982L10.9328 14.0186L8.70711 11.7929C8.31658 11.4024 7.68342 11.4024 7.29289 11.7929C6.90237 12.1834 6.90237 12.8166 7.29289 13.2071L10.2929 16.2071C10.4916 16.4058 10.7646 16.5117 11.0453 16.499C11.326 16.4862 11.5884 16.356 11.7682 16.1402L16.7682 10.1402Z" fill="black"/>
</svg>
