<svg width="40" height="40" viewBox="0 0 40 40" fill="none" xmlns="http://www.w3.org/2000/svg">
<path fill-rule="evenodd" clip-rule="evenodd" d="M23.79 4.5752H37.9094C38.4636 4.57582 38.995 4.79625 39.387 5.18814C39.7789 5.58002 39.9994 6.11135 40 6.66556L39.9924 33.3345C39.9917 33.8887 39.7713 34.42 39.3793 34.8119C38.9874 35.2038 38.456 35.4242 37.9017 35.4249L23.79 35.4249C23.2357 35.4242 22.7043 35.2038 22.3124 34.8119C21.9204 34.42 21.7 33.8887 21.6993 33.3345V30.6319H23.6667C24.9828 30.6319 26.2447 30.1082 27.1749 29.1765C28.1051 28.2449 28.6275 26.9816 28.6275 25.6646V19.6165H35.0271C35.3043 19.6165 35.5702 19.5064 35.7663 19.3103C35.9623 19.1143 36.0724 18.8485 36.0724 18.5713C36.0724 18.2941 35.9623 18.0282 35.7663 17.8322C35.5702 17.6362 35.3043 17.5261 35.0271 17.5261H28.6275V15.4357H35.0271C35.3043 15.4357 35.5702 15.3256 35.7663 15.1296C35.9623 14.9336 36.0724 14.6678 36.0724 14.3906C36.0724 14.1134 35.9623 13.8475 35.7663 13.6515C35.5702 13.4555 35.3043 13.3454 35.0271 13.3454H28.4892C28.2971 12.5475 27.9091 11.8046 27.3545 11.1874H35.0272C35.3044 11.1874 35.5703 11.0773 35.7663 10.8813C35.9624 10.6853 36.0725 10.4194 36.0725 10.1422C36.0725 9.86501 35.9624 9.59916 35.7663 9.40315C35.5703 9.20714 35.3044 9.09702 35.0272 9.09702H26.6647C26.3874 9.09702 26.1215 9.20714 25.9255 9.40315C25.7751 9.55352 25.6753 9.74498 25.637 9.95113C25.0209 9.68416 24.3511 9.54255 23.6667 9.54255H21.6993V6.66556C21.7 6.11135 21.9204 5.58002 22.3124 5.18814C22.7043 4.79625 23.2357 4.57582 23.79 4.5752ZM23.6667 29.8476H21.6993V27.0589H23.6667C24.0359 27.0589 24.39 26.912 24.6511 26.6505C24.9122 26.389 25.0588 26.0344 25.0588 25.6646V14.5099C25.0588 14.1401 24.9122 13.7854 24.6511 13.5239C24.39 13.2624 24.0359 13.1155 23.6667 13.1155H21.6993V10.3269H23.6667C24.7744 10.3269 25.8367 10.7676 26.6199 11.552C27.1224 12.0554 27.4837 12.6738 27.6781 13.3454H26.6646C26.3874 13.3454 26.1215 13.4555 25.9254 13.6515C25.7294 13.8475 25.6193 14.1134 25.6193 14.3906C25.6193 14.6678 25.7294 14.9336 25.9254 15.1296C26.1215 15.3256 26.3874 15.4357 26.6646 15.4357H27.8432V17.5261H26.6646C26.3874 17.5261 26.1215 17.6362 25.9254 17.8322C25.7294 18.0282 25.6193 18.2941 25.6193 18.5713C25.6193 18.8485 25.7294 19.1143 25.9254 19.3103C26.1215 19.5064 26.3874 19.6165 26.6646 19.6165H27.8432V25.6646C27.8432 26.774 27.4031 27.8379 26.6199 28.6224C25.8367 29.4069 24.7744 29.8476 23.6667 29.8476ZM29.9747 29.8041C30.2326 29.9764 30.5357 30.0683 30.8459 30.0683C31.2616 30.0679 31.6601 29.9025 31.9541 29.6086C32.248 29.3147 32.4134 28.9162 32.4138 28.5005C32.4138 28.1905 32.3219 27.8873 32.1496 27.6295C31.9773 27.3717 31.7324 27.1708 31.4459 27.0521C31.1594 26.9334 30.8441 26.9024 30.54 26.9629C30.2358 27.0234 29.9564 27.1727 29.7371 27.3919C29.5178 27.6112 29.3685 27.8906 29.308 28.1947C29.2475 28.4988 29.2786 28.814 29.3972 29.1005C29.5159 29.387 29.7169 29.6318 29.9747 29.8041Z" fill="black"/>
<path d="M0 14.5099C0 13.4005 0.44002 12.3365 1.22326 11.5521C2.0065 10.7676 3.0688 10.3269 4.17647 10.3269H23.6667C24.7743 10.3269 25.8366 10.7676 26.6199 11.5521C27.4031 12.3365 27.8431 13.4005 27.8431 14.5099V25.6646C27.8431 26.774 27.4031 27.838 26.6199 28.6224C25.8366 29.4069 24.7743 29.8476 23.6667 29.8476H16.7059V32.6363H19.4902C19.8594 32.6363 20.2135 32.7832 20.4746 33.0447C20.7357 33.3062 20.8824 33.6608 20.8824 34.0306C20.8824 34.4004 20.7357 34.7551 20.4746 35.0166C20.2135 35.278 19.8594 35.4249 19.4902 35.4249H8.35294C7.98372 35.4249 7.62962 35.278 7.36854 35.0166C7.10746 34.7551 6.96078 34.4004 6.96078 34.0306C6.96078 33.6608 7.10746 33.3062 7.36854 33.0447C7.62962 32.7832 7.98372 32.6363 8.35294 32.6363H11.1373V29.8476H4.17647C3.0688 29.8476 2.0065 29.4069 1.22326 28.6224C0.44002 27.838 0 26.774 0 25.6646V14.5099ZM4.17647 13.1156C3.80725 13.1156 3.45315 13.2625 3.19207 13.524C2.93099 13.7855 2.78431 14.1401 2.78431 14.5099V25.6646C2.78431 26.0344 2.93099 26.3891 3.19207 26.6505C3.45315 26.912 3.80725 27.0589 4.17647 27.0589H23.6667C24.0359 27.0589 24.39 26.912 24.6511 26.6505C24.9122 26.3891 25.0588 26.0344 25.0588 25.6646V14.5099C25.0588 14.1401 24.9122 13.7855 24.6511 13.524C24.39 13.2625 24.0359 13.1156 23.6667 13.1156H4.17647Z" fill="black"/>
</svg>
