<svg width="40" height="40" viewBox="0 0 40 40" fill="none" xmlns="http://www.w3.org/2000/svg">
<path fill-rule="evenodd" clip-rule="evenodd" d="M36.8726 9.84375H37.4169C37.9805 9.84375 38.4374 10.3358 38.4374 10.943V19.3696C38.4374 19.9766 37.9805 20.4687 37.4169 20.4687H34.3162H32.1715H31.7364C30.6478 18.4583 29.2522 17.1474 27.4382 16.6118L27.4374 16.6116L27.4366 16.6113C26.7864 16.4206 26.1119 16.3252 25.4344 16.3282C24.5278 16.3285 23.7451 16.548 23.0532 16.742L23.015 16.7527C22.1679 16.9904 21.2917 17.2345 19.9988 17.2345C18.7058 17.2345 17.8289 16.9909 16.9802 16.7533L16.9798 16.7531L16.9441 16.7431C16.2512 16.5484 15.4681 16.3284 14.5626 16.3282C13.8687 16.3259 13.1779 16.42 12.5099 16.6079L12.5039 16.6095L12.4979 16.6113C10.6908 17.1454 9.29832 18.4567 8.20829 20.4687H5.68377H2.58304C2.0194 20.4687 1.5625 19.9766 1.5625 19.3696V10.943C1.5625 10.336 2.0194 9.84391 2.58304 9.84383L3.1273 9.84375H36.8726ZM30.6574 20.4687C29.7033 18.8853 28.5539 17.9187 27.1727 17.5109C26.6089 17.3455 26.0241 17.2629 25.4366 17.2657C25.4333 17.2657 25.4301 17.2657 25.4268 17.2657C24.6543 17.2672 23.9807 17.4557 23.2682 17.6554C22.4061 17.8972 21.4268 18.172 19.9988 18.172C18.5708 18.172 17.5908 17.8978 16.727 17.6559C16.011 17.4548 15.3353 17.2657 14.561 17.2657C13.9534 17.2635 13.3485 17.3459 12.7637 17.5104C11.3886 17.9167 10.2423 18.8834 9.28732 20.4687H11.9336H16.0748H19.5318H25.4011H25.6896H28.9666H30.6574ZM5.8487 15.486H7.88971C8.26544 15.486 8.57002 15.158 8.57002 14.7533C8.57002 14.3486 8.26544 14.0206 7.88971 14.0206H5.8487C5.47304 14.0206 5.16839 14.3486 5.16839 14.7533C5.16839 15.158 5.47296 15.486 5.8487 15.486Z" fill="black"/>
<path d="M37.4169 2.8125H2.58304C2.0194 2.8125 1.5625 3.31093 1.5625 3.9258V7.63669C1.5625 8.25156 2.0194 8.74999 2.58304 8.74999H3.18435H36.8157H37.417C37.9805 8.74999 38.4374 8.25156 38.4374 7.63669V3.9258C38.4374 3.31093 37.9805 2.8125 37.4169 2.8125Z" fill="black"/>
<path d="M32.8643 26.6242C31.6629 21.198 29.8548 18.3018 27.1727 17.5107C26.609 17.3455 26.0241 17.263 25.4366 17.2657C24.66 17.2657 23.9837 17.4547 23.2683 17.655C22.4062 17.8966 21.4268 18.1711 19.9988 18.1711C18.5708 18.1711 17.5909 17.8972 16.7271 17.6556C16.0111 17.4547 15.3353 17.2657 14.561 17.2657C13.9535 17.2636 13.3486 17.3459 12.7637 17.5101C10.0958 18.2979 8.28884 21.1929 7.06987 26.6208C5.75913 32.4618 6.4043 36.1496 8.87907 37.0052C9.2183 37.1247 9.57522 37.1863 9.93491 37.1875C11.6303 37.1875 12.9897 35.7767 13.9187 34.6218C14.9683 33.3146 16.1969 32.6514 19.9988 32.6514C23.3946 32.6514 24.7999 33.1114 26.0138 34.6218C26.7768 35.5713 27.4979 36.2357 28.2173 36.6538C29.174 37.2095 30.1301 37.3329 31.0585 37.0143C32.521 36.5158 33.3594 35.1978 33.5508 33.0962C33.6964 31.4845 33.4721 29.3676 32.8643 26.6242ZM17.2799 26.3198H15.4673V28.1306C15.4673 28.3707 15.3718 28.601 15.2019 28.7708C15.0319 28.9406 14.8014 29.036 14.561 29.036C14.3206 29.036 14.0901 28.9406 13.9202 28.7708C13.7502 28.601 13.6547 28.3707 13.6547 28.1306V26.3198H11.8421C11.6017 26.3198 11.3712 26.2244 11.2013 26.0546C11.0313 25.8848 10.9358 25.6545 10.9358 25.4143C10.9358 25.1742 11.0313 24.9439 11.2013 24.7741C11.3712 24.6043 11.6017 24.5089 11.8421 24.5089H13.6547V22.6981C13.6547 22.458 13.7502 22.2277 13.9202 22.0579C14.0901 21.8881 14.3206 21.7927 14.561 21.7927C14.8014 21.7927 15.0319 21.8881 15.2019 22.0579C15.3718 22.2277 15.4673 22.458 15.4673 22.6981V24.5089H17.2799C17.5203 24.5089 17.7508 24.6043 17.9208 24.7741C18.0907 24.9439 18.1862 25.1742 18.1862 25.4143C18.1862 25.6545 18.0907 25.8848 17.9208 26.0546C17.7508 26.2244 17.5203 26.3198 17.2799 26.3198ZM22.038 26.5461C21.8139 26.5461 21.5949 26.4797 21.4086 26.3554C21.2223 26.231 21.0771 26.0543 20.9913 25.8475C20.9056 25.6407 20.8832 25.4131 20.9269 25.1936C20.9706 24.974 21.0785 24.7724 21.2369 24.6141C21.3954 24.4558 21.5972 24.348 21.817 24.3043C22.0367 24.2607 22.2645 24.2831 22.4715 24.3687C22.6785 24.4544 22.8555 24.5995 22.9799 24.7856C23.1044 24.9717 23.1709 25.1905 23.1709 25.4143C23.1709 25.7145 23.0515 26.0024 22.839 26.2146C22.6266 26.4269 22.3384 26.5461 22.038 26.5461ZM24.5303 29.036C24.3061 29.036 24.087 28.9695 23.9006 28.845C23.7143 28.7206 23.5691 28.5436 23.4834 28.3367C23.3977 28.1297 23.3755 27.902 23.4194 27.6824C23.4634 27.4628 23.5715 27.2611 23.7303 27.1029C23.889 26.9448 24.0911 26.8372 24.311 26.7939C24.531 26.7505 24.7589 26.7733 24.9658 26.8594C25.1728 26.9455 25.3495 27.091 25.4736 27.2775C25.5978 27.464 25.6637 27.6831 25.6632 27.907C25.6624 28.2067 25.5427 28.4939 25.3304 28.7055C25.118 28.9171 24.8303 29.036 24.5303 29.036ZM24.5303 24.0562C24.3062 24.0562 24.0872 23.9899 23.9009 23.8655C23.7146 23.7411 23.5694 23.5644 23.4837 23.3576C23.3979 23.1508 23.3755 22.9232 23.4192 22.7037C23.4629 22.4841 23.5708 22.2825 23.7292 22.1242C23.8877 21.9659 24.0895 21.8581 24.3093 21.8145C24.5291 21.7708 24.7568 21.7932 24.9638 21.8789C25.1708 21.9645 25.3478 22.1096 25.4723 22.2957C25.5967 22.4818 25.6632 22.7006 25.6632 22.9245C25.6632 23.2246 25.5438 23.5125 25.3314 23.7248C25.1189 23.937 24.8308 24.0562 24.5303 24.0562ZM27.0226 26.5461C26.7986 26.5461 26.5795 26.4797 26.3932 26.3554C26.2069 26.231 26.0617 26.0543 25.976 25.8475C25.8902 25.6407 25.8678 25.4131 25.9115 25.1936C25.9552 24.974 26.0631 24.7724 26.2216 24.6141C26.38 24.4558 26.5819 24.348 26.8016 24.3043C27.0214 24.2607 27.2492 24.2831 27.4562 24.3687C27.6632 24.4544 27.8401 24.5995 27.9646 24.7856C28.0891 24.9717 28.1555 25.1905 28.1555 25.4143C28.1555 25.7145 28.0362 26.0024 27.8237 26.2146C27.6112 26.4269 27.3231 26.5461 27.0226 26.5461Z" fill="black"/>
</svg>
