<svg width="48" height="48" viewBox="0 0 48 48" fill="none" xmlns="http://www.w3.org/2000/svg">
<path fill-rule="evenodd" clip-rule="evenodd" d="M14 10C14 9.46957 14.2107 8.96086 14.5858 8.58579C14.9609 8.21071 15.4696 8 16 8H32C32.5304 8 33.0391 8.21071 33.4142 8.58579C33.7893 8.96086 34 9.46957 34 10V12H14V10ZM10 12V10C10 8.4087 10.6321 6.88258 11.7574 5.75736C12.8826 4.63214 14.4087 4 16 4H32C33.5913 4 35.1174 4.63214 36.2426 5.75736C37.3679 6.88258 38 8.4087 38 10V12C39.5913 12 41.1174 12.6321 42.2426 13.7574C43.3679 14.8826 44 16.4087 44 18V30C44 31.5913 43.3679 33.1174 42.2426 34.2426C41.1174 35.3679 39.5913 36 38 36H36V38C36 39.5913 35.3679 41.1174 34.2426 42.2426C33.1174 43.3679 31.5913 44 30 44H18C16.4087 44 14.8826 43.3679 13.7574 42.2426C12.6321 41.1174 12 39.5913 12 38V36H10C8.4087 36 6.88258 35.3679 5.75736 34.2426C4.63214 33.1174 4 31.5913 4 30V18C4 16.4087 4.63214 14.8826 5.75736 13.7574C6.88258 12.6321 8.4087 12 10 12ZM16 30V38C16 38.5304 16.2107 39.0391 16.5858 39.4142C16.9609 39.7893 17.4696 40 18 40H30C30.5304 40 31.0391 39.7893 31.4142 39.4142C31.7893 39.0391 32 38.5304 32 38V30C32 29.4696 31.7893 28.9609 31.4142 28.5858C31.0391 28.2107 30.5304 28 30 28H18C17.4696 28 16.9609 28.2107 16.5858 28.5858C16.2107 28.9609 16 29.4696 16 30ZM12 20C12 19.4696 12.2107 18.9609 12.5858 18.5858C12.9609 18.2107 13.4696 18 14 18H18C18.5304 18 19.0391 18.2107 19.4142 18.5858C19.7893 18.9609 20 19.4696 20 20C20 20.5304 19.7893 21.0391 19.4142 21.4142C19.0391 21.7893 18.5304 22 18 22H14C13.4696 22 12.9609 21.7893 12.5858 21.4142C12.2107 21.0391 12 20.5304 12 20Z" fill="black"/>
</svg>
