<svg width="48" height="48" viewBox="0 0 48 48" fill="none" xmlns="http://www.w3.org/2000/svg">
<g clip-path="url(#clip0)">
<path d="M15.6398 13.8577V7.49791C15.6398 3.41423 19.2891 0 23.9337 0C28.5118 0 32.2275 3.41423 32.2275 7.49791V13.8577H15.6398ZM38 14.2594V27.046C35.2796 34.5439 27.2512 35.682 27.2512 35.682V44.1841H36.0758V48H11.7915V44.1841H20.6825V35.682C20.6825 35.682 12.7204 34.5439 10 27.046V14.2594L13.2512 12.7197V24.3682C13.2512 24.3682 14.2464 32.2008 23.9337 32.2008C33.6209 32.2008 34.7488 24.3682 34.7488 24.3682V12.7197L38 14.2594ZM32.2275 16.0669V21.8243C32.2275 25.9079 28.5118 29.3222 23.9337 29.3222C19.2891 29.3222 15.6398 25.9079 15.6398 21.8243V16.0669H32.2275Z" fill="black"/>
</g>
<defs>
<clipPath id="clip0">
<rect width="48" height="48" fill="white"/>
</clipPath>
</defs>
</svg>
