<svg width="48" height="48" viewBox="0 0 48 48" fill="none" xmlns="http://www.w3.org/2000/svg">
<rect x="22" width="4" height="5.8022" fill="#212121"/>
<rect x="20.25" y="5.80225" width="7.5" height="1.05494" fill="#212121"/>
<rect x="19.5275" y="7.38459" width="8.94506" height="10.5494" stroke="#212121" stroke-width="1.05494"/>
<path d="M19 12.6594C21.0622 13.3773 22.1523 13.3429 24 12.6594C26.0084 11.935 27.1095 11.9734 29 12.6594V18.4616H19V12.6594Z" fill="#212121"/>
<path fill-rule="evenodd" clip-rule="evenodd" d="M19 18.989H29V48H19V18.989ZM26.25 24.2638C26.25 25.5747 25.2426 26.6374 24 26.6374C22.7573 26.6374 21.75 25.5747 21.75 24.2638C21.75 22.9529 22.7573 21.8902 24 21.8902C25.2426 21.8902 26.25 22.9529 26.25 24.2638ZM26 28.7473H22V38.2418H26V28.7473Z" fill="#212121"/>
</svg>
