<svg width="28" height="28" viewBox="0 0 28 28" fill="none" xmlns="http://www.w3.org/2000/svg">
<rect width="28" height="28" rx="6" fill="#DC0000"/>
<path fill-rule="evenodd" clip-rule="evenodd" d="M14.5019 10.3354C13.1404 10.9012 10.4185 12.0737 6.33754 13.8517C5.67487 14.1154 5.3272 14.3732 5.2957 14.6252C5.24204 15.0522 5.77637 15.2202 6.50204 15.4477C6.6012 15.4792 6.70387 15.5107 6.80887 15.5457C7.52404 15.7779 8.48537 16.0497 8.9847 16.0602C9.43854 16.0695 9.94487 15.8829 10.5037 15.5002C14.3164 12.9254 16.2845 11.6245 16.4082 11.5965C16.4957 11.5767 16.617 11.551 16.6987 11.6245C16.7804 11.6969 16.7722 11.8345 16.764 11.8719C16.7104 12.097 14.6174 14.0442 13.5324 15.0522C13.194 15.366 12.9549 15.5889 12.9059 15.6402C12.7962 15.7534 12.6842 15.8619 12.5769 15.9657C11.9119 16.605 11.4149 17.0857 12.6049 17.8697C13.1765 18.2465 13.6339 18.558 14.09 18.8684C14.5882 19.2079 15.0852 19.5462 15.7292 19.9685C15.8925 20.0759 16.0489 20.1867 16.2017 20.2952C16.7815 20.7094 17.303 21.0804 17.947 21.022C18.3204 20.987 18.7077 20.6359 18.9037 19.587C19.3669 17.1067 20.2792 11.7354 20.4904 9.52103C20.5032 9.33718 20.4954 9.15247 20.467 8.97036C20.4501 8.82328 20.3784 8.68795 20.2664 8.59119C20.0995 8.45469 19.8405 8.42553 19.7239 8.42786C19.1977 8.43719 18.3904 8.71836 14.5019 10.3354Z" fill="white"/>
</svg>
