<svg width="48" height="48" viewBox="0 0 48 48" fill="none" xmlns="http://www.w3.org/2000/svg">
<path d="M40.5 4.5C41.325 4.5 42 3.825 42 3V1.5C42 0.675 41.325 0 40.5 0H7.5C6.675 0 6 0.675 6 1.5V3C6 3.825 6.675 4.5 7.5 4.5H9V19.1906C7.10625 20.1375 6 21.2719 6 22.5C6 28.8 9.24375 34.3312 14.1375 37.5469L12.1313 44.1281C11.5406 46.05 12.9844 48 15 48H33C35.0156 48 36.4594 46.05 35.8688 44.1281L33.8625 37.5469C38.7563 34.3312 42 28.8 42 22.5C42 21.2719 40.8937 20.1375 39 19.1906V4.5H40.5ZM13.5 6.75C13.5 6.3375 13.8375 6 14.25 6H18.75C19.1625 6 19.5 6.3375 19.5 6.75V8.25C19.5 8.6625 19.1625 9 18.75 9H14.25C13.8375 9 13.5 8.6625 13.5 8.25V6.75ZM24 25.5C16.7719 25.5 10.9125 24.1594 10.9125 22.5C10.9125 20.8406 16.7719 19.5 24 19.5C31.2281 19.5 37.0875 20.8406 37.0875 22.5C37.0875 24.1594 31.2281 25.5 24 25.5Z" fill="black"/>
</svg>
