<svg width="36" height="36" viewBox="0 0 36 36" fill="none" xmlns="http://www.w3.org/2000/svg">
<path d="M26.7067 4.22693H10.287C9.15342 4.22693 8.2345 5.14585 8.2345 6.2794V16.5417C8.2345 17.6753 9.15342 18.5942 10.287 18.5942H26.7067C27.8403 18.5942 28.7592 17.6753 28.7592 16.5417V6.2794C28.7592 5.14585 27.8403 4.22693 26.7067 4.22693Z" stroke="black" stroke-width="2.05247" stroke-linecap="round" stroke-linejoin="round"/>
<path d="M14.3919 22.6992H22.6018" stroke="black" stroke-width="2.05247" stroke-linecap="round" stroke-linejoin="round"/>
<path d="M18.4968 18.5944V22.6993" stroke="black" stroke-width="2.05247" stroke-linecap="round" stroke-linejoin="round"/>
<path d="M6.50607 27.2362C6.50607 27.0857 6.50607 27.0105 6.5092 26.9469C6.51746 26.7787 6.54168 26.6147 6.58038 26.4564C7.8231 26.6481 8.77459 27.7222 8.77459 29.0186V30.963H7.54311C7.18011 30.963 6.99861 30.963 6.85997 30.8924C6.73801 30.8303 6.63886 30.7311 6.57672 30.6092C6.50607 30.4705 6.50607 30.289 6.50607 29.926V27.2362Z" fill="black"/>
<path d="M30.4132 26.4564C30.4519 26.6147 30.4762 26.7787 30.4844 26.9469C30.4876 27.0105 30.4876 27.0857 30.4876 27.2362V29.926C30.4876 30.289 30.4876 30.4705 30.4169 30.6092C30.3548 30.7311 30.2556 30.8303 30.1337 30.8924C29.995 30.963 29.8135 30.963 29.4505 30.963H28.219V29.0186C28.219 27.7222 29.1705 26.6481 30.4132 26.4564Z" fill="black"/>
<path d="M6.81811 25.8403C7.96851 26.0692 8.89944 26.9072 9.26071 28.0039C9.62197 26.9072 10.5529 26.0692 11.7033 25.8403C11.2839 25.0661 10.4823 24.5305 9.54995 24.4847C9.48638 24.4816 9.41116 24.4816 9.2607 24.4816C9.11025 24.4816 9.03502 24.4816 8.97145 24.4847C8.03912 24.5305 7.23754 25.0661 6.81811 25.8403Z" fill="black"/>
<path d="M12.7378 26.4564C13.9805 26.6481 14.932 27.7222 14.932 29.0186V30.963H13.7005C13.3375 30.963 13.156 30.963 13.0174 30.8924C12.8954 30.8303 12.7963 30.7311 12.7341 30.6092C12.6635 30.4705 12.6635 30.289 12.6635 29.926V27.2362C12.6635 27.0857 12.6635 27.0105 12.6666 26.9469C12.6749 26.7787 12.6991 26.6147 12.7378 26.4564Z" fill="black"/>
<path d="M11.941 26.4564C11.9797 26.6147 12.0039 26.7787 12.0122 26.9469C12.0153 27.0105 12.0153 27.0857 12.0153 27.2362V29.926C12.0153 30.289 12.0153 30.4705 11.9447 30.6092C11.8825 30.7311 11.7834 30.8303 11.6614 30.8924C11.5228 30.963 11.3413 30.963 10.9783 30.963H9.74682V29.0186C9.74682 27.7222 10.6983 26.6481 11.941 26.4564Z" fill="black"/>
<path d="M12.9755 25.8403C13.395 25.0661 14.1965 24.5305 15.1289 24.4847C15.1924 24.4816 15.2677 24.4816 15.4181 24.4816C15.5686 24.4816 15.6438 24.4816 15.7074 24.4847C16.6397 24.5305 17.4413 25.0661 17.8607 25.8403C16.7103 26.0692 15.7794 26.9072 15.4181 28.0039C15.0568 26.9072 14.1259 26.0692 12.9755 25.8403Z" fill="black"/>
<path d="M18.8952 26.4564C20.1379 26.6481 21.0894 27.7222 21.0894 29.0186V30.963H19.8579C19.4949 30.963 19.3134 30.963 19.1748 30.8924C19.0528 30.8303 18.9537 30.7311 18.8915 30.6092C18.8209 30.4705 18.8209 30.289 18.8209 29.926V27.2362C18.8209 27.0857 18.8209 27.0105 18.824 26.9469C18.8323 26.7787 18.8565 26.6147 18.8952 26.4564Z" fill="black"/>
<path d="M18.0984 26.4564C18.1371 26.6147 18.1614 26.7787 18.1696 26.9469C18.1727 27.0105 18.1727 27.0857 18.1727 27.2362V29.926C18.1727 30.289 18.1727 30.4705 18.1021 30.6092C18.04 30.7311 17.9408 30.8303 17.8188 30.8924C17.6802 30.963 17.4987 30.963 17.1357 30.963H15.9042V29.0186C15.9042 27.7222 16.8557 26.6481 18.0984 26.4564Z" fill="black"/>
<path d="M19.1329 25.8403C19.5524 25.0661 20.3539 24.5305 21.2863 24.4847C21.3498 24.4816 21.4251 24.4816 21.5755 24.4816C21.726 24.4816 21.8012 24.4816 21.8648 24.4847C22.7971 24.5305 23.5987 25.0661 24.0181 25.8403C22.8677 26.0692 21.9368 26.9072 21.5755 28.0039C21.2143 26.9072 20.2833 26.0692 19.1329 25.8403Z" fill="black"/>
<path d="M25.2903 25.8403C25.7098 25.0661 26.5113 24.5305 27.4437 24.4847C27.5072 24.4816 27.5825 24.4816 27.7329 24.4816C27.8834 24.4816 27.9586 24.4816 28.0222 24.4847C28.9545 24.5305 29.7561 25.0661 30.1755 25.8403C29.0251 26.0692 28.0942 26.9072 27.7329 28.0039C27.3717 26.9072 26.4407 26.0692 25.2903 25.8403Z" fill="black"/>
<path d="M25.0526 26.4564C26.2953 26.6481 27.2468 27.7222 27.2468 29.0186V30.963H26.0153C25.6523 30.963 25.4708 30.963 25.3322 30.8924C25.2102 30.8303 25.1111 30.7311 25.0489 30.6092C24.9783 30.4705 24.9783 30.289 24.9783 29.926V27.2362C24.9783 27.0857 24.9783 27.0105 24.9814 26.9469C24.9897 26.7787 25.0139 26.6147 25.0526 26.4564Z" fill="black"/>
<path d="M24.2558 26.4564C24.2945 26.6147 24.3188 26.7787 24.327 26.9469C24.3301 27.0105 24.3301 27.0857 24.3301 27.2362V29.926C24.3301 30.289 24.3301 30.4705 24.2595 30.6092C24.1974 30.7311 24.0982 30.8303 23.9763 30.8924C23.8376 30.963 23.6561 30.963 23.2931 30.963H22.0616V29.0186C22.0616 27.7222 23.0131 26.6481 24.2558 26.4564Z" fill="black"/>
<path d="M3.58942 29.0186C3.58942 27.5868 4.75016 26.426 6.18201 26.426C7.61386 26.426 8.7746 27.5868 8.7746 29.0186V31.8705C8.7746 32.2335 8.7746 32.415 8.70396 32.5536C8.64182 32.6756 8.54266 32.7747 8.42071 32.8369C8.28206 32.9075 8.10056 32.9075 7.73757 32.9075H4.62645C4.26346 32.9075 4.08196 32.9075 3.94331 32.8369C3.82135 32.7747 3.7222 32.6756 3.66006 32.5536C3.58942 32.415 3.58942 32.2335 3.58942 31.8705V29.0186Z" fill="black"/>
<path d="M9.74682 29.0186C9.74682 27.5868 10.9076 26.426 12.3394 26.426C13.7713 26.426 14.932 27.5868 14.932 29.0186V31.8705C14.932 32.2335 14.932 32.415 14.8614 32.5536C14.7992 32.6756 14.7001 32.7747 14.5781 32.8369C14.4395 32.9075 14.258 32.9075 13.895 32.9075H10.7839C10.4209 32.9075 10.2394 32.9075 10.1007 32.8369C9.97876 32.7747 9.87961 32.6756 9.81747 32.5536C9.74682 32.415 9.74682 32.2335 9.74682 31.8705V29.0186Z" fill="black"/>
<path d="M18.4968 26.426C17.065 26.426 15.9042 27.5868 15.9042 29.0186V31.8705C15.9042 32.2335 15.9042 32.415 15.9749 32.5536C16.037 32.6756 16.1362 32.7747 16.2581 32.8369C16.3968 32.9075 16.5783 32.9075 16.9413 32.9075H20.0524C20.4154 32.9075 20.5969 32.9075 20.7355 32.8369C20.8575 32.7747 20.9566 32.6756 21.0188 32.5536C21.0894 32.415 21.0894 32.2335 21.0894 31.8705V29.0186C21.0894 27.5868 19.9287 26.426 18.4968 26.426Z" fill="black"/>
<path d="M22.0616 29.0186C22.0616 27.5868 23.2224 26.426 24.6542 26.426C26.0861 26.426 27.2468 27.5868 27.2468 29.0186V31.8705C27.2468 32.2335 27.2468 32.415 27.1762 32.5536C27.114 32.6756 27.0149 32.7747 26.8929 32.8369C26.7543 32.9075 26.5728 32.9075 26.2098 32.9075H23.0987C22.7357 32.9075 22.5542 32.9075 22.4155 32.8369C22.2936 32.7747 22.1944 32.6756 22.1323 32.5536C22.0616 32.415 22.0616 32.2335 22.0616 31.8705V29.0186Z" fill="black"/>
<path d="M30.8116 26.426C29.3798 26.426 28.219 27.5868 28.219 29.0186V31.8705C28.219 32.2335 28.219 32.415 28.2897 32.5536C28.3518 32.6756 28.451 32.7747 28.5729 32.8369C28.7116 32.9075 28.8931 32.9075 29.2561 32.9075H32.3672C32.7302 32.9075 32.9117 32.9075 33.0503 32.8369C33.1723 32.7747 33.2714 32.6756 33.3336 32.5536C33.4042 32.415 33.4042 32.2335 33.4042 31.8705V29.0186C33.4042 27.5868 32.2435 26.426 30.8116 26.426Z" fill="black"/>
</svg>
