<svg width="48" height="48" viewBox="0 0 48 48" fill="none" xmlns="http://www.w3.org/2000/svg">
<path d="M4.00012 38H44.0001V42H4.00012V38ZM22.0001 16H26.0001V32H22.0001V16ZM15.9301 16H20.1801L14.2081 31.928H10.2081L4.23612 16H8.48612L12.2081 26.226L15.9301 16ZM34.0001 28V32H30.0001V16H38.0001C39.5914 16 41.1175 16.6321 42.2428 17.7574C43.368 18.8826 44.0001 20.4087 44.0001 22C44.0001 23.5913 43.368 25.1174 42.2428 26.2426C41.1175 27.3679 39.5914 28 38.0001 28H34.0001ZM34.0001 20V24H38.0001C38.5306 24 39.0393 23.7893 39.4143 23.4142C39.7894 23.0391 40.0001 22.5304 40.0001 22C40.0001 21.4696 39.7894 20.9609 39.4143 20.5858C39.0393 20.2107 38.5306 20 38.0001 20H34.0001ZM4.00012 6H44.0001V10H4.00012V6Z" fill="black"/>
</svg>
