<svg width="28" height="28" viewBox="0 0 28 28" fill="none" xmlns="http://www.w3.org/2000/svg">
<path d="M18.297 0H9.7019C1.8584 0 -0.000976562 1.85938 -0.000976562 9.70288V18.298C-0.000976562 26.1415 1.8584 28.0009 9.7019 28.0009H18.297C26.1405 28.0009 27.9999 26.1415 27.9999 18.298V9.70288C27.9999 1.85938 26.1221 0 18.297 0ZM22.6038 19.9745H20.5711C19.8011 19.9745 19.564 19.3637 18.1789 17.9602C16.9758 16.7939 16.4429 16.639 16.1463 16.639C15.7271 16.639 15.6081 16.7571 15.6081 17.332V19.1686C15.6081 19.6612 15.4533 19.957 14.1495 19.957C11.9935 19.957 9.60127 18.6533 7.9239 16.2243C5.39427 12.6648 4.70215 9.99862 4.70215 9.44738C4.70215 9.15075 4.82027 8.87337 5.3899 8.87337H7.4269C7.94227 8.87337 8.13827 9.1105 8.33865 9.66175C9.34577 12.5694 11.0231 15.1165 11.7153 15.1165C11.9708 15.1165 12.0889 14.9984 12.0889 14.3465V11.3435C12.011 9.95837 11.2821 9.83937 11.2821 9.34762C11.2821 9.1105 11.4781 8.87337 11.7923 8.87337H14.9956C15.4288 8.87337 15.588 9.1105 15.588 9.62062V13.6719C15.588 14.1094 15.784 14.2642 15.9021 14.2642C16.1576 14.2642 16.3764 14.1094 16.8498 13.6351C18.3128 11.9945 19.361 9.46488 19.361 9.46488C19.4975 9.16825 19.7346 8.89087 20.25 8.89087H22.287C22.8978 8.89087 23.0343 9.205 22.8978 9.6425C22.6423 10.8272 20.1494 14.3456 20.1494 14.3456C19.935 14.7009 19.8528 14.8558 20.1494 15.2521C20.3681 15.5487 21.0795 16.1639 21.5529 16.7151C22.4235 17.7039 23.0929 18.5334 23.2714 19.1074C23.4718 19.677 23.176 19.9736 22.6011 19.9736L22.6038 19.9745Z" fill="#DC0000"/>
</svg>
