<svg width="48" height="48" viewBox="0 0 48 48" fill="none" xmlns="http://www.w3.org/2000/svg">
<g clip-path="url(#clip0)">
<path d="M24 0.347061C13.9975 0.347061 5.88367 8.45537 5.88367 18.4615C5.88367 28.4621 13.9994 36.5741 24 36.5778C33.9987 36.5741 42.1163 28.4621 42.1163 18.4615C42.1163 8.45352 33.9951 0.345215 24 0.345215V0.347061ZM24 2.42398C32.8504 2.42398 40.0394 9.60552 40.0394 18.4615C40.0394 27.3157 32.8541 34.4972 24 34.5009C19.7463 34.5009 15.6669 32.8111 12.6591 29.8034C9.65128 26.7956 7.96151 22.7161 7.96151 18.4624C7.96151 14.2088 9.65128 10.1293 12.6591 7.12154C15.6669 4.11375 19.7463 2.42398 24 2.42398ZM19.4418 5.48122C17.2707 5.69352 15.1052 8.49045 16.4418 11.0197C17.6972 13.3901 20.3114 13.1612 21.1144 15.8658C21.8621 14.8394 23.3409 13.68 25.8461 14.8855C27.4671 8.88183 24.0461 5.04183 19.4418 5.48122ZM34.2683 15.6351C31.5914 15.5335 30.4338 17.904 27.6923 17.2504C28.2037 18.408 28.4898 20.2966 26.1914 21.8658C30.5797 26.2689 35.5791 25.2074 37.5009 21C38.4037 19.0154 37.1298 15.7384 34.2701 15.6351H34.2683ZM23.5384 16.0966C22.4492 16.3181 21.6351 17.3058 21.6351 18.4615C21.6351 19.7834 22.6781 20.8264 24 20.8264C25.3218 20.8264 26.3649 19.7834 26.3649 18.4615C26.3649 17.1397 25.3218 16.0966 24 16.0966C23.8338 16.0966 23.6935 16.0634 23.5384 16.0966ZM19.9606 18.6351C13.9532 20.232 12.3729 25.1354 15.0572 28.9034C16.3237 30.6775 19.824 31.1557 21.3452 28.7298C22.7723 26.4628 21.2529 24.3175 23.1914 22.2683C21.9341 22.1335 20.1692 21.408 19.9606 18.6351ZM20.3077 38.7692C20.3077 42.4634 12.9231 43.0966 12.9231 46.1538V48H35.0769V46.1538C35.0769 43.0966 27.6923 42.4634 27.6923 38.7692C27.6923 38.7692 26.9926 39.3471 24 39.3471C21.0074 39.3471 20.3077 38.7692 20.3077 38.7692Z" fill="black"/>
</g>
<defs>
<clipPath id="clip0">
<rect width="48" height="48" fill="white"/>
</clipPath>
</defs>
</svg>
