<svg width="28" height="28" viewBox="0 0 28 28" fill="none" xmlns="http://www.w3.org/2000/svg">
<path fill-rule="evenodd" clip-rule="evenodd" d="M21.9115 0.444874C22.1115 0.244905 22.3828 0.132568 22.6656 0.132568C22.9484 0.132568 23.2197 0.244905 23.4197 0.444874L27.6864 4.71154C27.7857 4.81062 27.8645 4.92833 27.9183 5.05792C27.9721 5.18751 27.9998 5.32644 27.9998 5.46674C27.9998 5.60704 27.9721 5.74597 27.9183 5.87556C27.8645 6.00515 27.7857 6.12286 27.6864 6.22194L19.2768 14.6315C19.1147 14.7942 18.9274 14.9296 18.7221 15.0326L10.3445 19.2203C10.1445 19.3202 9.91805 19.3547 9.69733 19.3189C9.4766 19.283 9.27271 19.1788 9.11447 19.0208C8.95623 18.8628 8.85165 18.659 8.81551 18.4384C8.77937 18.2177 8.81349 17.9912 8.91306 17.791L13.1008 9.41127C13.2038 9.206 13.3392 9.01871 13.5019 8.85661L21.9115 0.444874ZM22.6667 2.70834L15.008 10.367L12.7957 14.7958L13.3376 15.3377L17.7685 13.1233L25.4251 5.46674L22.6667 2.70834ZM17.3333 2.26674L15.2 4.40007H6.45333C5.54026 4.40007 4.91733 4.40007 4.43946 4.44061C3.97013 4.47901 3.7312 4.54727 3.5648 4.63261C3.1634 4.83713 2.83706 5.16348 2.63253 5.56487C2.5472 5.73127 2.47893 5.97021 2.44053 6.43954C2.4 6.91741 2.4 7.54034 2.4 8.45341V21.6801C2.4 22.5931 2.4 23.2161 2.44053 23.6939C2.47893 24.1633 2.5472 24.4022 2.63253 24.5686C2.83706 24.97 3.1634 25.2963 3.5648 25.5009C3.7312 25.5862 3.97013 25.6545 4.43946 25.6929C4.91946 25.7334 5.54026 25.7334 6.45333 25.7334H19.68C20.5931 25.7334 21.216 25.7334 21.6939 25.6929C22.1632 25.6545 22.4021 25.5862 22.5685 25.5009C22.9699 25.2963 23.2963 24.97 23.5008 24.5686C23.5861 24.4022 23.6544 24.1633 23.6928 23.6939C23.7333 23.2139 23.7333 22.5931 23.7333 21.6801V12.9334L25.8667 10.8001V21.7227C25.8667 22.5825 25.8667 23.2907 25.8197 23.8689C25.7707 24.4683 25.6661 25.0209 25.4016 25.5371C24.9925 26.3399 24.3399 26.9926 23.5371 27.4017C23.0187 27.6662 22.4683 27.7707 21.8688 27.8198C21.2928 27.8667 20.5824 27.8667 19.7248 27.8667H6.41066C5.55093 27.8667 4.84266 27.8667 4.26453 27.8198C3.66506 27.7707 3.11253 27.6662 2.59626 27.4017C1.79347 26.9926 1.14078 26.3399 0.731729 25.5371C0.467196 25.0187 0.362663 24.4683 0.313596 23.8689C0.266663 23.2929 0.266663 22.5825 0.266663 21.7227V8.41074C0.266663 7.55101 0.266663 6.84274 0.313596 6.26461C0.362663 5.66514 0.467196 5.11261 0.731729 4.59634C1.14078 3.79355 1.79347 3.14086 2.59626 2.73181C3.11466 2.46727 3.66506 2.36274 4.26453 2.31367C4.84053 2.26674 5.55093 2.26674 6.41066 2.26674H17.3333Z" fill="#DC0000"/>
</svg>
