<svg width="34" height="34" viewBox="0 0 34 34" fill="none" xmlns="http://www.w3.org/2000/svg">
<path d="M16.8684 17C14.8045 17 13.0459 16.2622 11.5925 14.7865C10.1391 13.3108 9.41238 11.5252 9.41238 9.42969C9.41238 7.3342 10.1391 5.54861 11.5925 4.07292C13.0459 2.59722 14.8045 1.85938 16.8684 1.85938C18.9322 1.85938 20.6908 2.59722 22.1442 4.07292C23.5977 5.54861 24.3244 7.3342 24.3244 9.42969C24.3244 11.5252 23.5977 13.3108 22.1442 14.7865C20.6908 16.2622 18.9322 17 16.8684 17ZM16.8684 20.8073C18.6997 20.8073 20.7199 21.0729 22.9291 21.6042C25.1383 22.1354 27.1585 23.0061 28.9898 24.2161C30.8211 25.4262 31.7367 26.7986 31.7367 28.3333V32.1406H2V28.3333C2 26.7986 2.91565 25.4262 4.74694 24.2161C6.57824 23.0061 8.59848 22.1354 10.8077 21.6042C13.0168 21.0729 15.0371 20.8073 16.8684 20.8073Z" fill="white"/>
</svg>
