<svg width="34" height="34" viewBox="0 0 34 34" fill="none" xmlns="http://www.w3.org/2000/svg">
<path d="M15.9375 19.2578H12.3516C12.2811 19.2578 12.2136 19.2858 12.1637 19.3356C12.1139 19.3854 12.0859 19.453 12.0859 19.5234V21.1172C12.0859 21.1876 12.1139 21.2552 12.1637 21.305C12.2136 21.3548 12.2811 21.3828 12.3516 21.3828H15.9375V24.9688C15.9375 25.0392 15.9655 25.1068 16.0153 25.1566C16.0651 25.2064 16.1327 25.2344 16.2031 25.2344H17.7969C17.8673 25.2344 17.9349 25.2064 17.9847 25.1566C18.0345 25.1068 18.0625 25.0392 18.0625 24.9688V21.3828H21.6484C21.7189 21.3828 21.7864 21.3548 21.8363 21.305C21.8861 21.2552 21.9141 21.1876 21.9141 21.1172V19.5234C21.9141 19.453 21.8861 19.3854 21.8363 19.3356C21.7864 19.2858 21.7189 19.2578 21.6484 19.2578H18.0625V15.6719C18.0625 15.6014 18.0345 15.5339 17.9847 15.484C17.9349 15.4342 17.8673 15.4062 17.7969 15.4062H16.2031C16.1327 15.4062 16.0651 15.4342 16.0153 15.484C15.9655 15.5339 15.9375 15.6014 15.9375 15.6719V19.2578ZM28.3754 9.58574C28.5746 9.78496 28.6875 10.0539 28.6875 10.3361V30.8125C28.6875 31.4002 28.2127 31.875 27.625 31.875H6.375C5.7873 31.875 5.3125 31.4002 5.3125 30.8125V3.1875C5.3125 2.5998 5.7873 2.125 6.375 2.125H20.4764C20.7586 2.125 21.0309 2.23789 21.2301 2.43711L28.3754 9.58574ZM26.2371 10.8242L19.9883 4.57539V10.8242H26.2371Z" fill="white"/>
</svg>
