<svg width="22" height="22" viewBox="0 0 22 22" fill="none" xmlns="http://www.w3.org/2000/svg">
<path d="M17.4167 10.0833H6.54501L9.87251 6.08666C10.0281 5.89947 10.103 5.65813 10.0806 5.41574C10.0583 5.17334 9.94054 4.94976 9.75334 4.79417C9.56614 4.63857 9.3248 4.56371 9.08241 4.58606C8.84002 4.60841 8.61643 4.72613 8.46084 4.91333L3.87751 10.4133C3.84667 10.4571 3.81909 10.503 3.795 10.5508C3.795 10.5967 3.79501 10.6242 3.73084 10.67C3.68929 10.7751 3.66753 10.887 3.66667 11C3.66753 11.113 3.68929 11.2249 3.73084 11.33C3.73084 11.3758 3.73084 11.4033 3.795 11.4492C3.81909 11.497 3.84667 11.5429 3.87751 11.5867L8.46084 17.0867C8.54703 17.1901 8.65495 17.2734 8.77695 17.3304C8.89894 17.3874 9.032 17.4169 9.16667 17.4167C9.38085 17.4171 9.58842 17.3425 9.75334 17.2058C9.84616 17.1289 9.92289 17.0344 9.97913 16.9277C10.0354 16.8211 10.07 16.7044 10.0811 16.5843C10.0922 16.4642 10.0794 16.3432 10.0436 16.228C10.0078 16.1129 9.94969 16.006 9.87251 15.9133L6.54501 11.9167H17.4167C17.6598 11.9167 17.8929 11.8201 18.0649 11.6482C18.2368 11.4763 18.3333 11.2431 18.3333 11C18.3333 10.7569 18.2368 10.5237 18.0649 10.3518C17.8929 10.1799 17.6598 10.0833 17.4167 10.0833Z" fill="white"/>
</svg>
