<svg width="23" height="18" viewBox="0 0 23 18" fill="none" xmlns="http://www.w3.org/2000/svg">
<path d="M17.75 1.25C17.75 1.05109 17.829 0.860322 17.9697 0.71967C18.1104 0.579018 18.3011 0.5 18.5 0.5C18.6989 0.5 18.8897 0.579018 19.0304 0.71967C19.171 0.860322 19.25 1.05109 19.25 1.25V14.4395L20.969 12.719C21.0388 12.6493 21.1215 12.594 21.2127 12.5562C21.3038 12.5185 21.4014 12.4991 21.5 12.4991C21.5986 12.4991 21.6963 12.5185 21.7874 12.5562C21.8785 12.594 21.9613 12.6493 22.031 12.719C22.1008 12.7887 22.1561 12.8715 22.1938 12.9626C22.2316 13.0537 22.251 13.1514 22.251 13.25C22.251 13.3486 22.2316 13.4463 22.1938 13.5374C22.1561 13.6285 22.1008 13.7113 22.031 13.781L19.031 16.7795L19.0205 16.79C18.8797 16.9273 18.6903 17.0034 18.4937 17.0017C18.297 17 18.109 16.9207 17.9705 16.781L14.9705 13.781C14.8297 13.6404 14.7505 13.4496 14.7504 13.2505C14.7502 13.0515 14.8291 12.8606 14.9698 12.7197C15.1104 12.5789 15.3012 12.4997 15.5002 12.4996C15.6993 12.4994 15.8902 12.5784 16.031 12.719L17.75 14.4395V1.25ZM11.75 2C11.9489 2 12.1397 1.92098 12.2804 1.78033C12.421 1.63968 12.5 1.44891 12.5 1.25C12.5 1.05109 12.421 0.860322 12.2804 0.71967C12.1397 0.579018 11.9489 0.5 11.75 0.5H10.25C10.0511 0.5 9.86035 0.579018 9.7197 0.71967C9.57905 0.860322 9.50003 1.05109 9.50003 1.25C9.50003 1.44891 9.57905 1.63968 9.7197 1.78033C9.86035 1.92098 10.0511 2 10.25 2H11.75ZM11.75 6.5C11.9489 6.5 12.1397 6.42098 12.2804 6.28033C12.421 6.13968 12.5 5.94891 12.5 5.75C12.5 5.55109 12.421 5.36032 12.2804 5.21967C12.1397 5.07902 11.9489 5 11.75 5H7.25003C7.05112 5 6.86035 5.07902 6.7197 5.21967C6.57905 5.36032 6.50003 5.55109 6.50003 5.75C6.50003 5.94891 6.57905 6.13968 6.7197 6.28033C6.86035 6.42098 7.05112 6.5 7.25003 6.5H11.75ZM11.75 11C11.9489 11 12.1397 10.921 12.2804 10.7803C12.421 10.6397 12.5 10.4489 12.5 10.25C12.5 10.0511 12.421 9.86032 12.2804 9.71967C12.1397 9.57902 11.9489 9.5 11.75 9.5H4.25003C4.05112 9.5 3.86035 9.57902 3.7197 9.71967C3.57905 9.86032 3.50003 10.0511 3.50003 10.25C3.50003 10.4489 3.57905 10.6397 3.7197 10.7803C3.86035 10.921 4.05112 11 4.25003 11H11.75ZM12.5 14.75C12.5 14.9489 12.421 15.1397 12.2804 15.2803C12.1397 15.421 11.9489 15.5 11.75 15.5H1.25003C1.05112 15.5 0.860353 15.421 0.7197 15.2803C0.579048 15.1397 0.500031 14.9489 0.500031 14.75C0.500031 14.5511 0.579048 14.3603 0.7197 14.2197C0.860353 14.079 1.05112 14 1.25003 14H11.75C11.9489 14 12.1397 14.079 12.2804 14.2197C12.421 14.3603 12.5 14.5511 12.5 14.75Z" fill="black"/>
</svg>
