<svg width="60" height="60" viewBox="0 0 60 60" fill="none" xmlns="http://www.w3.org/2000/svg">
<path d="M30.0002 56.6667C33.5028 56.6712 36.9717 55.9835 40.2077 54.6431C43.4436 53.3027 46.3827 51.336 48.8562 48.856C51.3361 46.3826 53.3028 43.4434 54.6433 40.2075C55.9837 36.9715 56.6714 33.5026 56.6668 30C56.6713 26.4974 55.9836 23.0285 54.6432 19.7926C53.3028 16.5566 51.3361 13.6175 48.8562 11.144C46.3827 8.66404 43.4436 6.69733 40.2077 5.35692C36.9717 4.0165 33.5028 3.3288 30.0002 3.33334C26.4976 3.32887 23.0287 4.0166 19.7928 5.35702C16.5568 6.69743 13.6177 8.6641 11.1442 11.144C8.66428 13.6175 6.69761 16.5566 5.3572 19.7926C4.01679 23.0285 3.32905 26.4974 3.33352 30C3.32898 33.5026 4.01668 36.9715 5.3571 40.2075C6.69752 43.4434 8.66422 46.3826 11.1442 48.856C13.6177 51.3359 16.5568 53.3026 19.7928 54.643C23.0287 55.9834 26.4976 56.6711 30.0002 56.6667V56.6667Z" stroke="#DC0000" stroke-width="5.33333" stroke-linejoin="round"/>
<path fill-rule="evenodd" clip-rule="evenodd" d="M30.0003 47.3334C30.8844 47.3334 31.7322 46.9822 32.3573 46.3571C32.9825 45.732 33.3337 44.8841 33.3337 44.0001C33.3337 43.116 32.9825 42.2682 32.3573 41.6431C31.7322 41.0179 30.8844 40.6667 30.0003 40.6667C29.1163 40.6667 28.2684 41.0179 27.6433 41.6431C27.0182 42.2682 26.667 43.116 26.667 44.0001C26.667 44.8841 27.0182 45.732 27.6433 46.3571C28.2684 46.9822 29.1163 47.3334 30.0003 47.3334Z" fill="#DC0000"/>
<path d="M30 14.0001V35.3334" stroke="#DC0000" stroke-width="5.33333" stroke-linecap="round" stroke-linejoin="round"/>
</svg>
