<svg width="48" height="48" viewBox="0 0 48 48" fill="none" xmlns="http://www.w3.org/2000/svg">
<path d="M7.954 19.68C8.03444 18.6776 8.4895 17.7423 9.22854 17.0603C9.96759 16.3784 10.9364 15.9998 11.942 16H36.058C37.0636 15.9998 38.0324 16.3784 38.7714 17.0603C39.5105 17.7423 39.9655 18.6776 40.046 19.68L41.652 39.68C41.6962 40.2304 41.6259 40.784 41.4457 41.3059C41.2654 41.8278 40.979 42.3067 40.6046 42.7125C40.2302 43.1183 39.7758 43.4422 39.27 43.6638C38.7643 43.8854 38.2182 43.9998 37.666 44H10.334C9.78184 43.9998 9.2357 43.8854 8.72995 43.6638C8.22421 43.4422 7.76982 43.1183 7.39539 42.7125C7.02096 42.3067 6.7346 41.8278 6.55434 41.3059C6.37408 40.784 6.30382 40.2304 6.348 39.68L7.954 19.68V19.68Z" stroke="#DC0000" stroke-width="3" stroke-linecap="round" stroke-linejoin="round"/>
<path d="M32 22V12C32 9.87827 31.1571 7.84344 29.6569 6.34315C28.1566 4.84285 26.1217 4 24 4C21.8783 4 19.8434 4.84285 18.3431 6.34315C16.8429 7.84344 16 9.87827 16 12V22" stroke="#DC0000" stroke-width="3" stroke-linecap="round" stroke-linejoin="round"/>
</svg>
