<svg width="6" height="8" viewBox="0 0 6 8" fill="none" xmlns="http://www.w3.org/2000/svg">
<path d="M0.845354 7.29535C0.899275 7.32339 0.959817 7.33623 1.02048 7.33247C1.08114 7.32871 1.13964 7.3085 1.18969 7.27401L5.52302 4.27401C5.5673 4.24334 5.60348 4.20239 5.62848 4.15467C5.65347 4.10695 5.66652 4.05388 5.66652 4.00001C5.66652 3.94615 5.65347 3.89308 5.62848 3.84536C5.60348 3.79764 5.5673 3.75669 5.52302 3.72601L1.18969 0.726015C1.13968 0.691412 1.08116 0.67115 1.02046 0.667421C0.95976 0.663692 0.899198 0.67664 0.84533 0.704861C0.791462 0.733083 0.746341 0.775503 0.714853 0.827528C0.683364 0.879554 0.666708 0.939202 0.666687 1.00001V7.00001C0.666677 7.06086 0.683321 7.12055 0.714816 7.17261C0.746311 7.22467 0.791454 7.26712 0.845354 7.29535Z" fill="#C4C4C4"/>
</svg>
