<svg width="30" height="30" viewBox="0 0 30 30" fill="none" xmlns="http://www.w3.org/2000/svg">
<path d="M15 2.5C8.1075 2.5 2.5 8.1075 2.5 15C2.5 21.8925 8.1075 27.5 15 27.5C21.8925 27.5 27.5 21.8925 27.5 15C27.5 8.1075 21.8925 2.5 15 2.5ZM5 15C5 13.8763 5.195 12.7975 5.53875 11.7887L7.5 13.75L10 16.25V18.75L12.5 21.25L13.75 22.5V24.9137C8.82625 24.295 5 20.09 5 15ZM22.9125 21.0912C22.0963 20.4337 20.8587 20 20 20V18.75C20 18.087 19.7366 17.4511 19.2678 16.9822C18.7989 16.5134 18.163 16.25 17.5 16.25H12.5V12.5C13.163 12.5 13.7989 12.2366 14.2678 11.7678C14.7366 11.2989 15 10.663 15 10V8.75H16.25C16.913 8.75 17.5489 8.48661 18.0178 8.01777C18.4866 7.54893 18.75 6.91304 18.75 6.25V5.73625C22.41 7.2225 25 10.8125 25 15C24.9998 17.2059 24.2653 19.3489 22.9125 21.0912Z" fill="white"/>
</svg>
