<svg width="46" height="34" viewBox="0 0 46 34" fill="none" xmlns="http://www.w3.org/2000/svg">
<g clip-path="url(#clip0)">
<rect width="46" height="34" rx="12" fill="#DC0000"/>
<path d="M22.6586 15.8727C23.0686 15.8727 23.4693 15.7542 23.8102 15.5322C24.1511 15.3102 24.4168 14.9946 24.5737 14.6254C24.7305 14.2562 24.7716 13.8499 24.6916 13.458C24.6116 13.066 24.4142 12.706 24.1243 12.4234C23.8344 12.1409 23.4651 11.9484 23.063 11.8705C22.6609 11.7925 22.2441 11.8325 21.8653 11.9854C21.4866 12.1384 21.1628 12.3973 20.9351 12.7296C20.7073 13.0619 20.5857 13.4525 20.5857 13.8522C20.5857 14.3881 20.8041 14.902 21.1929 15.2809C21.5816 15.6598 22.1088 15.8727 22.6586 15.8727ZM21.9227 22.8537C22.0191 22.9484 22.1337 23.0235 22.26 23.0748C22.3863 23.1261 22.5218 23.1525 22.6586 23.1525C22.7954 23.1525 22.9309 23.1261 23.0572 23.0748C23.1835 23.0235 23.2981 22.9484 23.3944 22.8537L27.6334 18.7116C28.618 17.7524 29.2886 16.5301 29.5604 15.1993C29.8323 13.8686 29.6931 12.4891 29.1606 11.2355C28.628 9.9818 27.7261 8.91024 26.5687 8.15632C25.4113 7.40241 24.0506 7 22.6586 7C21.2666 7 19.9058 7.40241 18.7485 8.15632C17.5911 8.91024 16.6891 9.9818 16.1566 11.2355C15.6241 12.4891 15.4849 13.8686 15.7568 15.1993C16.0286 16.5301 16.6992 17.7524 17.6837 18.7116L21.9227 22.8537ZM17.7148 13.3875C17.7857 12.6671 18.0206 11.9713 18.4025 11.3509C18.7845 10.7304 19.3037 10.2009 19.9224 9.80099C20.7352 9.2808 21.6863 9.00364 22.6586 9.00364C23.6309 9.00364 24.582 9.2808 25.3947 9.80099C26.0093 10.1995 26.5256 10.7258 26.9066 11.342C27.2876 11.9583 27.5237 12.6492 27.5981 13.365C27.6724 14.0808 27.583 14.8038 27.3365 15.482C27.0899 16.1602 26.6922 16.7766 26.1721 17.2871L22.6586 20.7119L19.1451 17.2871C18.6243 16.7816 18.2257 16.1693 17.9783 15.4947C17.7309 14.8201 17.6409 14.1002 17.7148 13.3875ZM29.9136 25.1672H15.4036C15.1287 25.1672 14.8651 25.2737 14.6707 25.4631C14.4764 25.6526 14.3672 25.9095 14.3672 26.1775C14.3672 26.4454 14.4764 26.7024 14.6707 26.8919C14.8651 27.0813 15.1287 27.1878 15.4036 27.1878H29.9136C30.1884 27.1878 30.4521 27.0813 30.6464 26.8919C30.8408 26.7024 30.95 26.4454 30.95 26.1775C30.95 25.9095 30.8408 25.6526 30.6464 25.4631C30.4521 25.2737 30.1884 25.1672 29.9136 25.1672Z" fill="white"/>
</g>
<defs>
<clipPath id="clip0">
<rect width="46" height="34" rx="12" fill="white"/>
</clipPath>
</defs>
</svg>
