<svg width="34" height="34" viewBox="0 0 34 34" fill="none" xmlns="http://www.w3.org/2000/svg">
<path d="M7.98432 7.98429C9.16827 6.80034 10.5738 5.86117 12.1207 5.22042C13.6677 4.57967 15.3256 4.24988 17 4.24988C18.6744 4.24988 20.3323 4.57967 21.8792 5.22042C23.4261 5.86117 24.8317 6.80033 26.0157 7.98429C27.1996 9.16824 28.1388 10.5738 28.7795 12.1207C29.4203 13.6676 29.7501 15.3256 29.7501 17C29.7501 18.6743 29.4203 20.3323 28.7795 21.8792C28.1388 23.4261 27.1996 24.8317 26.0157 26.0156C23.6245 28.4067 20.3815 29.75 17 29.75C13.6185 29.75 10.3754 28.4067 7.98432 26.0156C5.59322 23.6245 4.24991 20.3815 4.24991 17C4.24991 13.6184 5.59322 10.3754 7.98432 7.98429V7.98429Z" stroke="#DC0000" stroke-width="2.83333" stroke-linecap="round"/>
<path d="M8.5 8.5L25.5 25.5" stroke="#DC0000" stroke-width="2.83333" stroke-linecap="round"/>
</svg>
