<svg width="294" height="220" viewBox="0 0 294 220" fill="none" xmlns="http://www.w3.org/2000/svg">
<rect width="294" height="220" fill="#E5E5E5"/>
<path fill-rule="evenodd" clip-rule="evenodd" d="M146 71H194C195.591 71.0018 197.116 71.6345 198.241 72.7593C199.365 73.8842 199.998 75.4092 200 77V143C199.998 144.591 199.365 146.116 198.241 147.241C197.116 148.365 195.591 148.998 194 149H169.343C171.46 146.855 172.576 143.772 172.898 140.236L172.898 140.233C173.087 138.134 173.022 135.757 172.72 133.082C172.882 132.96 173.036 132.826 173.181 132.681C174.024 131.837 174.499 130.693 174.5 129.5C174.5 128.61 174.236 127.74 173.742 127C173.247 126.26 172.544 125.683 171.722 125.343C171.605 125.294 171.486 125.251 171.366 125.212C171.352 125.149 171.338 125.085 171.324 125.021C169.044 114.718 165.569 107.336 159.8 104H182C182.796 104 183.559 103.684 184.121 103.121C184.684 102.559 185 101.796 185 101C185 100.204 184.684 99.4413 184.121 98.8787C183.559 98.3161 182.796 98 182 98H158C157.204 98 156.441 98.3161 155.879 98.8787C155.316 99.4413 155 100.204 155 101C155 101.463 155.107 101.916 155.308 102.324C154.219 102.104 153.109 101.995 151.996 102C149.866 102.001 148.033 102.515 146.521 102.939L146.408 102.971L146.407 102.971C144.552 103.492 142.721 104 140.002 104C140.001 104 140.001 104 140 104V77C140.002 75.4092 140.635 73.8842 141.759 72.7593C142.884 71.6345 144.409 71.0018 146 71ZM140 141.981V143C140.002 144.591 140.635 146.116 141.759 147.241C142.884 148.365 144.409 148.998 146 149H154.604C153.342 147.97 152.131 146.698 150.937 145.212C149.913 143.937 148.935 143.224 147.51 142.757C145.934 142.24 143.679 141.981 140.002 141.981C140.001 141.981 140.001 141.981 140 141.981ZM158 92H182C182.796 92 183.559 91.6839 184.121 91.1213C184.684 90.5587 185 89.7956 185 89C185 88.2044 184.684 87.4413 184.121 86.8787C183.559 86.3161 182.796 86 182 86H158C157.204 86 156.441 86.3161 155.879 86.8787C155.316 87.4413 155 88.2044 155 89C155 89.7956 155.316 90.5587 155.879 91.1213C156.441 91.6839 157.204 92 158 92Z" fill="white"/>
<path d="M168.395 125.67C165.743 113.685 161.753 107.289 155.834 105.541C154.59 105.176 153.299 104.994 152.003 105C150.289 105 148.796 105.418 147.217 105.86C145.315 106.394 143.153 107 140.002 107C136.85 107 134.688 106.395 132.781 105.861C131.201 105.418 129.71 105 128.001 105C126.66 104.995 125.325 105.177 124.035 105.54C118.147 107.28 114.159 113.674 111.469 125.662C108.576 138.563 110 146.708 115.462 148.598C116.21 148.861 116.998 148.997 117.792 149C121.533 149 124.533 145.884 126.584 143.333C128.9 140.446 131.611 138.981 140.002 138.981C147.496 138.981 150.597 139.998 153.276 143.333C154.96 145.431 156.552 146.898 158.139 147.821C160.251 149.049 162.361 149.321 164.41 148.618C167.637 147.516 169.487 144.606 169.91 139.964C170.231 136.404 169.736 131.729 168.395 125.67ZM134.002 124.997H130.001V128.997C130.001 129.527 129.791 130.036 129.415 130.411C129.04 130.786 128.532 130.996 128.001 130.996C127.471 130.996 126.962 130.786 126.587 130.411C126.212 130.036 126.001 129.527 126.001 128.997V124.997H122.001C121.47 124.997 120.962 124.787 120.587 124.412C120.211 124.037 120.001 123.528 120.001 122.998C120.001 122.467 120.211 121.959 120.587 121.584C120.962 121.209 121.47 120.998 122.001 120.998H126.001V116.998C126.001 116.468 126.212 115.959 126.587 115.584C126.962 115.209 127.471 114.999 128.001 114.999C128.532 114.999 129.04 115.209 129.415 115.584C129.791 115.959 130.001 116.468 130.001 116.998V120.998H134.002C134.532 120.998 135.041 121.209 135.416 121.584C135.791 121.959 136.002 122.467 136.002 122.998C136.002 123.528 135.791 124.037 135.416 124.412C135.041 124.787 134.532 124.997 134.002 124.997ZM144.502 125.497C144.008 125.497 143.524 125.351 143.113 125.076C142.702 124.801 142.382 124.411 142.192 123.954C142.003 123.497 141.954 122.995 142.05 122.51C142.146 122.025 142.385 121.58 142.734 121.23C143.084 120.88 143.529 120.642 144.014 120.546C144.499 120.449 145.002 120.499 145.459 120.688C145.916 120.877 146.306 121.198 146.581 121.609C146.856 122.02 147.002 122.503 147.002 122.998C147.002 123.66 146.739 124.296 146.27 124.765C145.801 125.234 145.165 125.497 144.502 125.497ZM150.002 130.996C149.508 130.996 149.024 130.85 148.613 130.575C148.201 130.3 147.881 129.909 147.692 129.452C147.503 128.995 147.454 128.492 147.551 128.007C147.648 127.522 147.887 127.076 148.237 126.727C148.587 126.378 149.033 126.14 149.519 126.044C150.004 125.949 150.507 125.999 150.964 126.189C151.42 126.379 151.81 126.701 152.084 127.113C152.358 127.524 152.504 128.008 152.503 128.503C152.501 129.165 152.237 129.799 151.768 130.266C151.299 130.734 150.664 130.996 150.002 130.996ZM150.002 119.998C149.508 119.998 149.025 119.851 148.613 119.577C148.202 119.302 147.882 118.912 147.693 118.455C147.503 117.998 147.454 117.496 147.55 117.011C147.647 116.526 147.885 116.08 148.235 115.731C148.584 115.381 149.03 115.143 149.515 115.047C150 114.95 150.502 115 150.959 115.189C151.416 115.378 151.807 115.699 152.081 116.11C152.356 116.521 152.503 117.004 152.503 117.498C152.503 118.161 152.239 118.797 151.77 119.266C151.301 119.735 150.666 119.998 150.002 119.998ZM155.503 125.497C155.008 125.497 154.525 125.351 154.114 125.076C153.703 124.801 153.382 124.411 153.193 123.954C153.004 123.497 152.954 122.995 153.051 122.51C153.147 122.025 153.385 121.58 153.735 121.23C154.085 120.88 154.53 120.642 155.015 120.546C155.5 120.449 156.003 120.499 156.46 120.688C156.916 120.877 157.307 121.198 157.582 121.609C157.856 122.02 158.003 122.503 158.003 122.998C158.003 123.66 157.739 124.296 157.271 124.765C156.802 125.234 156.166 125.497 155.503 125.497Z" fill="white"/>
<path d="M107 103C106.684 103.001 106.375 102.906 106.114 102.728C105.854 102.549 105.654 102.295 105.541 102L103.051 95.5247C103.001 95.3942 102.924 95.2757 102.825 95.1768C102.726 95.0779 102.607 95.0008 102.477 94.9503L96 92.4585C95.705 92.3452 95.4512 92.1452 95.2722 91.8847C95.0932 91.6243 94.9974 91.3157 94.9974 90.9997C94.9974 90.6837 95.0932 90.3751 95.2722 90.1147C95.4512 89.8542 95.705 89.6542 96 89.541L102.475 87.051C102.605 87.0005 102.724 86.9234 102.823 86.8245C102.922 86.7255 102.999 86.6071 103.049 86.4766L105.541 79.9997C105.654 79.7047 105.855 79.4509 106.115 79.2719C106.375 79.0929 106.684 78.9971 107 78.9971C107.316 78.9971 107.625 79.0929 107.885 79.2719C108.145 79.4509 108.346 79.7047 108.459 79.9997L110.949 86.4747C110.999 86.6052 111.076 86.7237 111.175 86.8226C111.274 86.9215 111.393 86.9986 111.523 87.0491L117.961 89.526C118.268 89.6398 118.532 89.8454 118.718 90.1149C118.904 90.3845 119.003 90.7048 119 91.0322C118.995 91.3427 118.897 91.6447 118.719 91.8989C118.541 92.1532 118.29 92.3481 118 92.4585L111.525 94.9485C111.395 94.9989 111.276 95.076 111.177 95.1749C111.078 95.2739 111.001 95.3923 110.951 95.5228L108.459 102C108.346 102.295 108.146 102.549 107.886 102.728C107.625 102.906 107.316 103.001 107 103Z" fill="white"/>
<path d="M99.5001 81.9998C99.3148 81.9998 99.1339 81.9437 98.9812 81.8388C98.8284 81.7339 98.7111 81.5852 98.6445 81.4123L97.5908 78.6723C97.5679 78.6124 97.5327 78.558 97.4873 78.5126C97.442 78.4673 97.3876 78.432 97.3276 78.4092L94.5876 77.3555C94.4147 77.2889 94.2661 77.1715 94.1612 77.0187C94.0564 76.866 94.0002 76.6851 94.0002 76.4998C94.0002 76.3146 94.0564 76.1336 94.1612 75.9809C94.2661 75.8282 94.4147 75.7108 94.5876 75.6442L97.3276 74.5905C97.3875 74.5675 97.4419 74.5322 97.4872 74.4869C97.5325 74.4416 97.5678 74.3872 97.5908 74.3273L98.6351 71.6117C98.694 71.4518 98.7954 71.311 98.9283 71.2044C99.0612 71.0978 99.2207 71.0295 99.3895 71.0067C99.5922 70.9821 99.7974 71.0258 99.9724 71.131C100.147 71.2362 100.282 71.3968 100.356 71.5873L101.41 74.3273C101.432 74.3872 101.468 74.4416 101.513 74.4869C101.558 74.5322 101.613 74.5675 101.673 74.5905L104.413 75.6442C104.586 75.7108 104.734 75.8282 104.839 75.9809C104.944 76.1336 105 76.3146 105 76.4998C105 76.6851 104.944 76.866 104.839 77.0187C104.734 77.1715 104.586 77.2889 104.413 77.3555L101.673 78.4092C101.613 78.432 101.558 78.4673 101.513 78.5126C101.468 78.558 101.432 78.6124 101.41 78.6723L100.356 81.4123C100.289 81.5852 100.172 81.7339 100.019 81.8388C99.8663 81.9437 99.6854 81.9998 99.5001 81.9998Z" fill="white"/>
<path d="M119 86.9994C118.798 86.9993 118.601 86.938 118.434 86.8236C118.267 86.7091 118.139 86.5468 118.067 86.3581L116.639 82.6475C116.614 82.5821 116.576 82.5228 116.526 82.4732C116.477 82.4237 116.417 82.3851 116.352 82.36L112.641 80.9325C112.453 80.8599 112.291 80.7318 112.176 80.5653C112.062 80.3987 112.001 80.2014 112.001 79.9994C112.001 79.7974 112.062 79.6001 112.176 79.4335C112.291 79.2669 112.453 79.1389 112.641 79.0663L116.352 77.6388C116.417 77.6137 116.477 77.5751 116.526 77.5256C116.576 77.476 116.614 77.4167 116.639 77.3513L118.056 73.6669C118.121 73.4927 118.232 73.3392 118.377 73.2229C118.522 73.1066 118.695 73.0317 118.879 73.0063C119.101 72.9795 119.324 73.0274 119.515 73.1423C119.706 73.2572 119.853 73.4326 119.933 73.6406L121.361 77.3513C121.386 77.4167 121.424 77.476 121.474 77.5256C121.523 77.5751 121.583 77.6137 121.648 77.6388L125.359 79.0663C125.547 79.1389 125.709 79.2669 125.824 79.4335C125.938 79.6001 125.999 79.7974 125.999 79.9994C125.999 80.2014 125.938 80.3987 125.824 80.5653C125.709 80.7318 125.547 80.8599 125.359 80.9325L121.648 82.36C121.583 82.3851 121.523 82.4237 121.474 82.4732C121.424 82.5228 121.386 82.5821 121.361 82.6475L119.933 86.3581C119.861 86.5468 119.733 86.7091 119.566 86.8236C119.399 86.938 119.202 86.9993 119 86.9994Z" fill="white"/>
</svg>
