<svg width="23" height="22" viewBox="0 0 23 22" fill="none" xmlns="http://www.w3.org/2000/svg">
<path d="M19.4221 5.9034L14.4684 0.949716C14.3303 0.811602 14.1438 0.733337 13.9482 0.733337H4.16971C3.76228 0.733337 3.43311 1.06251 3.43311 1.46994V20.6217C3.43311 21.0292 3.76228 21.3583 4.16971 21.3583H18.9019C19.3093 21.3583 19.6385 21.0292 19.6385 20.6217V6.42593C19.6385 6.23027 19.5602 6.04151 19.4221 5.9034ZM17.9811 19.701H5.09047V2.3907H12.0422V7.3628C12.0422 7.61921 12.1441 7.86512 12.3254 8.04643C12.5067 8.22774 12.7526 8.3296 13.009 8.3296H17.9811V19.701Z" fill="black"/>
</svg>
