<svg width="48" height="48" viewBox="0 0 48 48" fill="none" xmlns="http://www.w3.org/2000/svg">
<path d="M39 21H36V24H39C40.1931 24.0012 41.337 24.4757 42.1807 25.3193C43.0243 26.163 43.4988 27.3069 43.5 28.5V34.5H46.5V28.5C46.4976 26.5116 45.7067 24.6053 44.3007 23.1993C42.8947 21.7933 40.9884 21.0024 39 21Z" fill="#DC0000"/>
<path d="M36 6C36.89 6 37.76 6.26392 38.5001 6.75839C39.2401 7.25285 39.8169 7.95566 40.1575 8.77792C40.4981 9.60019 40.5872 10.505 40.4135 11.3779C40.2399 12.2508 39.8113 13.0526 39.182 13.682C38.5526 14.3113 37.7508 14.7399 36.8779 14.9135C36.005 15.0872 35.1002 14.9981 34.2779 14.6575C33.4557 14.3169 32.7529 13.7401 32.2584 13.0001C31.7639 12.26 31.5 11.39 31.5 10.5C31.5 9.30653 31.9741 8.16193 32.818 7.31802C33.6619 6.47411 34.8065 6 36 6ZM36 3C34.5166 3 33.0666 3.43987 31.8332 4.26398C30.5999 5.08809 29.6386 6.25943 29.0709 7.62987C28.5032 9.00032 28.3547 10.5083 28.6441 11.9632C28.9335 13.418 29.6478 14.7544 30.6967 15.8033C31.7456 16.8522 33.082 17.5665 34.5368 17.8559C35.9917 18.1453 37.4997 17.9968 38.8701 17.4291C40.2406 16.8614 41.4119 15.9001 42.236 14.6668C43.0601 13.4334 43.5 11.9834 43.5 10.5C43.5 8.51088 42.7098 6.60322 41.3033 5.1967C39.8968 3.79018 37.9891 3 36 3Z" fill="#DC0000"/>
<path d="M34.5 45H31.5V42C31.4988 40.8069 31.0243 39.663 30.1807 38.8193C29.337 37.9757 28.1931 37.5012 27 37.5H21C19.8069 37.5012 18.663 37.9757 17.8193 38.8193C16.9757 39.663 16.5012 40.8069 16.5 42V45H13.5V42C13.5024 40.0116 14.2933 38.1053 15.6993 36.6993C17.1053 35.2933 19.0116 34.5024 21 34.5H27C28.9884 34.5024 30.8947 35.2933 32.3007 36.6993C33.7067 38.1053 34.4976 40.0116 34.5 42V45Z" fill="#DC0000"/>
<path d="M24 19.5C24.89 19.5 25.76 19.7639 26.5001 20.2584C27.2401 20.7529 27.8169 21.4557 28.1575 22.2779C28.4981 23.1002 28.5872 24.005 28.4135 24.8779C28.2399 25.7508 27.8113 26.5526 27.182 27.182C26.5526 27.8113 25.7508 28.2399 24.8779 28.4135C24.005 28.5872 23.1002 28.4981 22.2779 28.1575C21.4557 27.8169 20.7529 27.2401 20.2584 26.5001C19.7639 25.76 19.5 24.89 19.5 24C19.5 22.8065 19.9741 21.6619 20.818 20.818C21.6619 19.9741 22.8065 19.5 24 19.5ZM24 16.5C22.5166 16.5 21.0666 16.9399 19.8332 17.764C18.5999 18.5881 17.6386 19.7594 17.0709 21.1299C16.5032 22.5003 16.3547 24.0083 16.6441 25.4632C16.9335 26.918 17.6478 28.2544 18.6967 29.3033C19.7456 30.3522 21.082 31.0665 22.5368 31.3559C23.9917 31.6453 25.4997 31.4968 26.8701 30.9291C28.2406 30.3614 29.4119 29.4001 30.236 28.1668C31.0601 26.9334 31.5 25.4834 31.5 24C31.5 22.0109 30.7098 20.1032 29.3033 18.6967C27.8968 17.2902 25.9891 16.5 24 16.5Z" fill="#DC0000"/>
<path d="M12 21H9C7.01161 21.0024 5.10534 21.7933 3.69933 23.1993C2.29332 24.6053 1.50238 26.5116 1.5 28.5V34.5H4.5V28.5C4.50119 27.3069 4.97568 26.163 5.81934 25.3193C6.66299 24.4757 7.80689 24.0012 9 24H12V21Z" fill="#DC0000"/>
<path d="M12 6C12.89 6 13.76 6.26392 14.5001 6.75839C15.2401 7.25285 15.8169 7.95566 16.1575 8.77792C16.4981 9.60019 16.5872 10.505 16.4135 11.3779C16.2399 12.2508 15.8113 13.0526 15.182 13.682C14.5526 14.3113 13.7508 14.7399 12.8779 14.9135C12.005 15.0872 11.1002 14.9981 10.2779 14.6575C9.45566 14.3169 8.75286 13.7401 8.25839 13.0001C7.76392 12.26 7.5 11.39 7.5 10.5C7.5 9.30653 7.97411 8.16193 8.81802 7.31802C9.66194 6.47411 10.8065 6 12 6ZM12 3C10.5166 3 9.0666 3.43987 7.83323 4.26398C6.59986 5.08809 5.63856 6.25943 5.07091 7.62987C4.50325 9.00032 4.35472 10.5083 4.64411 11.9632C4.9335 13.418 5.64781 14.7544 6.6967 15.8033C7.7456 16.8522 9.08197 17.5665 10.5368 17.8559C11.9917 18.1453 13.4997 17.9968 14.8701 17.4291C16.2406 16.8614 17.4119 15.9001 18.236 14.6668C19.0601 13.4334 19.5 11.9834 19.5 10.5C19.5 8.51088 18.7098 6.60322 17.3033 5.1967C15.8968 3.79018 13.9891 3 12 3Z" fill="#DC0000"/>
</svg>
