<svg width="26" height="26" viewBox="0 0 26 26" fill="none" xmlns="http://www.w3.org/2000/svg">
<path d="M23.725 5.41671H19.5V2.16671C19.5 1.57087 19.0125 1.08337 18.4167 1.08337C17.8209 1.08337 17.3334 1.57087 17.3334 2.16671V5.41671H13.1084C12.4692 5.41671 11.9709 5.96921 12.025 6.60837L12.155 7.91921C16.1417 8.84004 19.5 11.6675 19.5 16.25L19.5217 24.9167H21.3634C22.2734 24.9167 23.0209 24.2125 23.1292 23.3242L24.7975 6.60837C24.8625 5.96921 24.3642 5.41671 23.725 5.41671ZM16.25 22.75H2.16671C1.57087 22.75 1.08337 23.2375 1.08337 23.8334C1.08337 24.4292 1.57087 24.9167 2.16671 24.9167H16.25C16.8459 24.9167 17.3334 24.4292 17.3334 23.8334C17.3334 23.2375 16.8459 22.75 16.25 22.75Z" fill="white"/>
<path d="M2.27504 16.25H16.1417C16.8134 16.25 17.3442 15.6434 17.2142 14.9934C16.51 11.4942 12.8592 9.7392 9.20837 9.7392C5.55754 9.7392 1.91754 11.4942 1.20254 14.9934C1.07254 15.6434 1.61421 16.25 2.27504 16.25ZM16.25 18.4167H2.16671C1.57087 18.4167 1.08337 18.9042 1.08337 19.5C1.08337 20.0959 1.57087 20.5834 2.16671 20.5834H16.25C16.8459 20.5834 17.3334 20.0959 17.3334 19.5C17.3334 18.9042 16.8459 18.4167 16.25 18.4167Z" fill="white"/>
</svg>
