<svg width="34" height="34" viewBox="0 0 34 34" fill="none" xmlns="http://www.w3.org/2000/svg">
<path d="M28.3754 9.58574C28.5746 9.78496 28.6875 10.0539 28.6875 10.3361V30.8125C28.6875 31.4002 28.2127 31.875 27.625 31.875H6.375C5.7873 31.875 5.3125 31.4002 5.3125 30.8125V3.1875C5.3125 2.5998 5.7873 2.125 6.375 2.125H20.4764C20.7586 2.125 21.0309 2.23789 21.2301 2.43711L28.3754 9.58574ZM26.2371 10.8242L19.9883 4.57539V10.8242H26.2371ZM10.625 16.0039C10.5546 16.0039 10.487 16.0319 10.4372 16.0817C10.3874 16.1315 10.3594 16.1991 10.3594 16.2695V17.8633C10.3594 17.9337 10.3874 18.0013 10.4372 18.0511C10.487 18.1009 10.5546 18.1289 10.625 18.1289H23.375C23.4454 18.1289 23.513 18.1009 23.5628 18.0511C23.6126 18.0013 23.6406 17.9337 23.6406 17.8633V16.2695C23.6406 16.1991 23.6126 16.1315 23.5628 16.0817C23.513 16.0319 23.4454 16.0039 23.375 16.0039H10.625ZM10.625 20.5195C10.5546 20.5195 10.487 20.5475 10.4372 20.5973C10.3874 20.6471 10.3594 20.7147 10.3594 20.7852V22.3789C10.3594 22.4494 10.3874 22.5169 10.4372 22.5667C10.487 22.6165 10.5546 22.6445 10.625 22.6445H16.7344C16.8048 22.6445 16.8724 22.6165 16.9222 22.5667C16.972 22.5169 17 22.4494 17 22.3789V20.7852C17 20.7147 16.972 20.6471 16.9222 20.5973C16.8724 20.5475 16.8048 20.5195 16.7344 20.5195H10.625Z" fill="black"/>
</svg>
