<svg width="34" height="34" viewBox="0 0 34 34" fill="none" xmlns="http://www.w3.org/2000/svg">
<path d="M13.1608 29.7498C11.9904 29.7442 10.8328 29.5058 9.75539 29.0486C8.67796 28.5913 7.70224 27.9244 6.88502 27.0865C6.07392 26.3177 5.42238 25.3966 4.96767 24.3758C4.51296 23.355 4.26401 22.2545 4.23506 21.1374C4.20611 20.0202 4.39774 18.9083 4.79897 17.8653C5.2002 16.8223 5.80316 15.8687 6.57335 15.059L17 4.53315C17.5568 3.97736 18.2205 3.54017 18.951 3.24799C19.6814 2.9558 20.4635 2.81468 21.25 2.83315C22.0925 2.83602 22.926 3.0066 23.7019 3.33496C24.4778 3.66331 25.1806 4.14286 25.7692 4.74565C26.9408 5.87365 27.6202 7.41821 27.66 9.04406C27.6997 10.6699 27.0967 12.2459 25.9817 13.4298L15.4983 23.9556C15.1626 24.2937 14.763 24.5617 14.3228 24.7441C13.8827 24.9265 13.4106 25.0196 12.9342 25.0181C12.4195 25.0188 11.9098 24.9164 11.4354 24.7169C10.9609 24.5174 10.5312 24.2248 10.1717 23.8565C9.45305 23.1607 9.03803 22.2094 9.01681 21.2094C8.99558 20.2093 9.36988 19.2413 10.0583 18.5156L19.7342 8.79731C20.0096 8.61443 20.3402 8.5336 20.6689 8.56883C20.9976 8.60405 21.3036 8.75312 21.534 8.99021C21.7643 9.2273 21.9045 9.53748 21.9303 9.86705C21.9561 10.1966 21.8657 10.5248 21.675 10.7948L11.9992 20.5131C11.8378 20.7075 11.7593 20.9575 11.7805 21.2093C11.8017 21.461 11.9209 21.6943 12.1125 21.859C12.3119 22.0597 12.5806 22.1763 12.8633 22.1848C12.9681 22.1863 13.0721 22.1671 13.1693 22.1282C13.2666 22.0892 13.3552 22.0315 13.43 21.9581L23.8992 11.4323C24.4868 10.7795 24.794 9.92163 24.7542 9.04417C24.7144 8.16671 24.331 7.34015 23.6867 6.74315C23.0883 6.12185 22.2745 5.75355 21.4128 5.71402C20.5511 5.67449 19.707 5.96675 19.0542 6.53065L8.58501 16.9998C8.07593 17.5466 7.67999 18.1887 7.41999 18.8891C7.15998 19.5895 7.04104 20.3344 7.07001 21.0809C7.09897 21.8274 7.27527 22.5609 7.58877 23.239C7.90226 23.9172 8.34676 24.5266 8.89668 25.0323C9.44816 25.604 10.108 26.06 10.8377 26.3738C11.5675 26.6876 12.3524 26.8528 13.1467 26.8598C13.8315 26.8654 14.5107 26.7356 15.1452 26.4779C15.7798 26.2202 16.3571 25.8396 16.8442 25.3581L27.3133 14.8323C27.4445 14.7002 27.6004 14.5953 27.7721 14.5234C27.9438 14.4516 28.128 14.4143 28.3142 14.4136C28.5003 14.413 28.6848 14.449 28.857 14.5196C29.0292 14.5902 29.1858 14.6941 29.3179 14.8252C29.45 14.9564 29.555 15.1123 29.6268 15.284C29.6987 15.4557 29.736 15.6399 29.7366 15.8261C29.7373 16.0122 29.7013 16.1966 29.6307 16.3689C29.56 16.5411 29.4562 16.6977 29.325 16.8298L18.8558 27.3556C18.1125 28.1121 17.2263 28.7133 16.2486 29.1243C15.271 29.5353 14.2214 29.7479 13.1608 29.7498Z" fill="white"/>
</svg>
