<svg width="64" height="64" viewBox="0 0 64 64" fill="none" xmlns="http://www.w3.org/2000/svg">
<path d="M12.5599 48.03C12.5599 48.03 11.2249 55.525 18.0399 53.26C29.2699 49.525 29.8099 53.6 33.2549 55.005C38.3999 57.1 44.1849 56.87 50.1649 50.41C56.3949 43.675 34.4799 41.805 28.4999 41.18C22.5249 40.56 13.1849 47.905 13.1849 47.905" fill="#DBA689"/>
<path d="M3.45991 51.665L0.379905 60.5449V61.1049C0.379905 61.1049 -1.1001 64.8049 2.0299 62.1899C2.2399 62.1699 2.45491 62.095 2.45491 62.095C2.45491 62.095 10.8549 55.3149 11.1349 55.2249C11.4149 55.1349 15.1749 49.22 15.1749 49.22C15.1749 49.22 8.0499 43.525 6.87491 45.33C5.70491 47.125 3.45991 51.665 3.45991 51.665Z" fill="#DC0000"/>
<path d="M34.9797 23.7001C34.9797 23.7001 24.0447 18.12 19.1797 21.63C14.8997 24.72 11.3747 26.4851 9.21971 27.7301C7.06471 28.975 3.92471 28.7351 3.48971 34.5801C3.11971 39.6251 3.11471 43.885 2.30971 45.605C0.0297121 50.46 6.13971 53.775 8.40971 44.67C10.7397 36.95 17.4397 43.5501 22.6647 42.305C27.8947 41.06 37.5847 31.6851 38.6897 29.1701C40.2097 25.7101 34.9797 23.7001 34.9797 23.7001Z" fill="#DBA689"/>
<path d="M8.05498 42.615C8.05498 42.615 32.91 4.48 35.125 1.99C37.105 -0.234999 35.61 -0.329999 42.82 4.23C44.63 5.375 15.885 44.26 15.885 44.26L7.60498 43.51L8.05498 42.615Z" fill="#DC0000"/>
<path d="M27.1497 29.85C27.1497 29.85 22.9147 36.075 17.6847 38.565C12.4547 41.055 5.9797 42.05 6.9747 46.285C7.9697 50.52 12.9497 53.51 20.9197 47.53C25.1547 44.79 27.6447 47.03 31.3797 48.775C35.1147 50.52 35.8597 53.505 45.0747 52.01C54.2897 50.515 55.2047 52.225 59.2697 54.25C63.2547 51.76 63.7497 44.29 63.7497 39.555C63.7497 34.82 63.1747 35.43 57.5247 34.825C53.0447 33.33 41.0197 27.335 37.8047 25.32C36.5097 24.51 33.4347 22.28 29.5747 26.715" fill="#FADCBC"/>
</svg>
