<?xml version="1.0" encoding="utf-8"?>
<!-- Generator: Adobe Illustrator 24.2.3, SVG Export Plug-In . SVG Version: 6.00 Build 0)  -->
<svg version="1.1" id="Слой_1" xmlns="http://www.w3.org/2000/svg" xmlns:xlink="http://www.w3.org/1999/xlink" x="0px" y="0px"
	 viewBox="0 0 566.9 566.9" style="enable-background:new 0 0 566.9 566.9;" xml:space="preserve">
<g fill="white">
	<path d="M131.8,450.6c-5.2,4.1-11,6.9-13.8,13.7c-4.5,10.8-12.6,18.3-23.6,22.3c-3.6,1.3-5.1,3.3-5.6,7.2
		c-1.5,12.7-7.3,18-19.9,19.5c-1.4,0.2-2.8,2.1-3.6,3.5c-2.4,4.3-4,9.2-7,13c-4.3,5.4-12.8,5.2-17.8,0.4c-5.4-5.2-6.6-13.5-0.9-17.6
		c7.6-5.4,11-12.2,13.4-20.8c2.2-8,9.2-12.9,16.9-15.9c3.3-1.3,5.3-3.3,6.8-6.6c4.4-9.9,10.4-18.7,20.6-23.6
		c3.2-1.5,7.2-1.5,10.8-2.2c0.8-0.2,1.6-0.2,2.3-0.6c0.7-0.4,1.3-1,2-1.5c5.6-3.8,12.6-6.6,16.5-11.7c3.8-5,4.1-12.6,6.6-18.8
		c9.8-23.2,27.9-37.6,50.7-46.6c10-3.9,20.5-6.9,30.8-9.9c2.8-0.8,4-1.9,3.7-4.7c-0.2-1.6-0.2-3.3,0-5c0.5-5.2,0.2-9.5-6.3-11.2
		c-3.6-0.9-5.8-4.1-5.3-8.5c0.2-1.8,0.2-3.7-0.1-5.5c-2-10.1,3.2-16.9,10.5-22.5c3.1-2.4,4-4.9,4.1-8.8c0.2-6.2,1.6-12.4,2.7-19.8
		c-4.3-2.5-9.5-6.2-15.2-8.5c-9.2-3.7-13.1-9.5-11-19.4c0.6-2.8,0.1-5.9,0.1-9.7c8.3,0,16.1-0.1,23.8,0.2c1,0,2.3,2.1,2.9,3.4
		c2.8,6.9,5.4,13.9,8.2,20.9c0.7,1.8,1.5,3.6,2.3,5.4c0.6,0.1,1.2,0.2,1.8,0.3c1.1-3.9,2.9-7.8,3.1-11.8c0.5-10.1,0.3-20.3,0-30.4
		c-0.1-1.9-1.3-4.5-2.8-5.7c-11.9-9.2-19.2-20.4-18.7-36.1c0.2-8.1-3.4-12.2-11.1-15.3c-9.4-3.7-18.2-8.6-24.5-16.6
		c-2.7-3.3-4.2-7.6-7-12.7c5-0.2,8.2-0.6,11.4-0.5c13.1,0.3,26.3,0.5,39.4,1.3c7,0.4,5.9-5.5,8-8.8c2.1-3.3-1.2-4.1-3.1-5.5
		c-12.1-8.7-14.3-20.8-6-33.6c2.1-3.2,2-4.9-0.7-7.9c-6.6-7.4-13.3-15-18.5-23.4c-6.1-10-3.9-15.4,7.6-16.6
		c20.8-2.1,41.8-3.3,62.7-3.5c10.6-0.1,21.5,2.3,31.9,4.9c10.3,2.6,12.3,8.2,5.9,16.9c-5.4,7.4-12.5,13.7-18.8,20.5
		c-1,1.1-2.2,1.9-3.6,3.2c10.3,16.7,7.9,31-8.1,42.5c3.9,6.8,8.2,10.8,16.9,10.6c12.9-0.3,25.9,1.4,38.8,2.3c1.9,0.1,3.7,1,7.4,2.1
		c-5.9,6.1-10.6,11.7-16.1,16.3c-4.3,3.6-9.4,6.4-14.5,8.8c-9.5,4.5-14.6,11.8-15.6,22.1c-1.2,13.2-7.4,23.1-18.8,30
		c-1.5,0.9-2.9,3.3-2.9,5c-0.3,11.1-0.6,22.3,0.2,33.4c0.2,3.1,4,6,7,10.2c12.1-19.6,26.4-35.4,35-55.2c3.1,2.7,6.4,5.6,9.9,8.7
		c9.6-11.3,19-22.4,28.5-33.4c17.9-20.9,36-41.5,59.4-56.7c17.6-11.4,36.6-18.2,57.9-17.2c17.6,0.8,31.1,8.8,40,24.1
		c8.2,14.1,10.6,29.7,10.1,45.7c-1.4,44.9-15.3,85.4-42.9,121c-26.8,34.6-61.6,54.8-105.2,58.9c-18.2,1.7-36.5,1.9-54.8,2.9
		c-1.7,0.1-3.5,0.2-5.4,0.7c7.3,4.6,12.9,10.9,22.7,11.7c24.6,2,48.5,7.2,69,22.1c16.5,12,27.4,27.7,27.9,48.8
		c0.4,15.8-7.5,28.5-18.5,39c-25,23.8-55.3,37.5-89.2,42.2c-51.6,7.3-101.5-1.9-149.6-20.4c-25.1-9.6-42.5-27.4-50.6-53.6
		C132.8,451.8,132.4,451.5,131.8,450.6z M304.2,344.6c0.8,0.1,1.4,0.3,2.1,0.3c22.4,0,44.9,0.7,67.3-0.4c22.4-1,43.5-7.6,62.4-20.2
		c38-25.5,60.8-61.5,71.9-105.3c5.2-20.7,6.9-41.7,2-62.7c-4.7-19.9-19.4-30.6-39.5-28.8c-5.6,0.5-11.2,1.7-16.6,3.4
		c-18.7,5.8-34.5,16.8-47.8,30.7c-20.6,21.4-40.2,43.7-60.4,65.7c1.6,1.8,2.8,3.1,4,4.5c-0.9,0.8-1.5,1.4-2.2,1.9
		c-14.9,10.1-29.6,20.3-44.7,30.1c-4.5,2.9-6.7,5.6-4.6,11.1c1.1,2.8,1.1,6.2,1,9.4c-0.3,6.6,0.2,12.5,7,15.9c0.6,0.3,0.9,1,1.3,1.5
		c7.4,8.1,5.2,18.1,5.3,27.6c0,0.8-1.3,2-2.2,2.3C303.6,333.2,302.8,338.1,304.2,344.6z M352,394.2c1,2.6,1.8,4.6,2.5,6.5
		c7.3,19.9,2.5,39.8-14,51.3c-7.9,5.5-17.2,9.8-26.5,12.2c-32.4,8.5-65.3,8.4-97.9,1.2c-20.6-4.6-39-13.2-46.6-36.2
		c-6.5,3.3-12.7,6.4-18.9,9.4c-2.9,1.4-3.5,3.2-2.7,6.3c4.5,18.4,15.9,31.1,32.4,39.6c46.1,23.9,95.1,32.4,146.5,26.7
		c25.3-2.8,49-10.9,69.1-27.4c10.6-8.7,20.5-18.1,25.5-31.4c3.5-9.2,2.6-17.9-3.1-26.1C402.3,403.7,379,396.2,352,394.2z M148.6,420
		c6.9-3,12.5-5.3,18.1-7.8c0.8-0.4,1.7-1.2,2-2c2.2-6.7,4.2-13.4,6.4-20.4C163.6,396.9,154.3,405.8,148.6,420z"/>
</g>
</svg>
