<svg width="64" height="64" viewBox="0 0 64 64" fill="none" xmlns="http://www.w3.org/2000/svg">
<path d="M47.0937 38.0587C45.4023 38.0587 44.0312 36.6876 44.0312 34.9962V17.1631C44.0312 11.1526 39.1413 6.26273 33.1308 6.26273C27.1205 6.26273 22.2305 11.1526 22.2305 17.1631C22.2305 18.8545 20.8593 20.2256 19.168 20.2256C17.4766 20.2256 16.1055 18.8545 16.1055 17.1631C16.1055 7.77522 23.743 0.137726 33.1308 0.137726C42.5187 0.137726 50.1562 7.77535 50.1562 17.1631V34.9962C50.1562 36.6876 48.7851 38.0587 47.0937 38.0587Z" fill="#B1B4B5"/>
<path d="M51.7645 63.4324H14.4973C11.0179 63.4324 8.19727 60.6118 8.19727 57.1324V35.5864C8.19727 32.107 11.0179 29.2864 14.4973 29.2864H51.7645C55.2439 29.2864 58.0645 32.107 58.0645 35.5864V57.1323C58.0645 60.6118 55.2439 63.4324 51.7645 63.4324Z" fill="#DC0000"/>
<path d="M13.664 58.3552H13.3483C12.3542 58.3552 11.5483 57.5493 11.5483 56.5552V36.1637C11.5483 35.1695 12.3542 34.3637 13.3483 34.3637H13.664C14.6581 34.3637 15.464 35.1695 15.464 36.1637V56.5552C15.464 57.5493 14.6581 58.3552 13.664 58.3552Z" fill="#FF6363"/>
</svg>
