<svg width="274" height="64" viewBox="0 0 274 64" fill="none" xmlns="http://www.w3.org/2000/svg">
<path fill-rule="evenodd" clip-rule="evenodd" d="M11.7814 9.27767L14.0367 7.99469L28.0734 0L42.1101 7.99469L56.1468 16V31.6607L46.9107 26.3804V21.2591L37.492 15.894L28.0734 10.5182L18.6547 15.894L11.7814 19.8065V9.27767Z" fill="#DC0000"/>
<path fill-rule="evenodd" clip-rule="evenodd" d="M30.6294 52.0185L37.492 48.106L46.9107 42.7408V36.9092L56.1467 42.1895V48L42.1101 56.0053L39.8655 57.2882L30.6294 52.0185Z" fill="#DC0000"/>
<path fill-rule="evenodd" clip-rule="evenodd" d="M28.0734 64L14.0367 56.0053L0 48V32V16L9.23608 10.7303V21.2591V32V36.379V42.7409L18.6547 48.106L18.7514 48.159L28.0734 53.4817L37.3094 58.7408L28.0734 64Z" fill="black"/>
<path d="M21.0174 12.1193H11.7814V41.0126H21.0174V12.1193Z" fill="#DC0000"/>
<path fill-rule="evenodd" clip-rule="evenodd" d="M44.4835 49.389L39.8655 57.2883L11.7814 41.0126L16.3994 33.1239L44.4835 49.389Z" fill="#DC0000"/>
<path fill-rule="evenodd" clip-rule="evenodd" d="M56.1467 46.5792L29.2762 31.2048V20.6759L56.1467 36.0504V46.5792Z" fill="#DC0000"/>
<path d="M92.2319 45.8583H67.6596V17.5588H74.2108V39.3905H92.2211V45.8583H92.2319Z" fill="black"/>
<path d="M124.569 45.8583H107.783L104.915 39.3905H114.323L109.211 28.0028L101.21 45.8583H93.8643V39.3905H96.7748L106.559 17.5588H111.885L124.569 45.8583Z" fill="black"/>
<path d="M152.825 45.8583H146.274L132.763 29.8053V45.8583H126.212V17.5588H132.774L146.274 33.5906V17.5588H152.825V45.8583Z" fill="black"/>
<path d="M183.111 45.8582H168.784C164.821 45.8582 161.449 44.4798 158.646 41.7124C155.843 38.9556 154.446 35.6156 154.446 31.7031C154.446 27.8012 155.843 24.4612 158.646 21.6938C161.438 18.937 164.821 17.548 168.784 17.548H183.111V24.0159H168.784C166.625 24.0159 164.789 24.7687 163.274 26.2637C161.76 27.7588 160.998 29.5719 160.998 31.7031C160.998 33.8343 161.76 35.6474 163.274 37.1425C164.789 38.6375 166.625 39.3903 168.784 39.3903H176.559V34.9476H172.468L169.6 28.4798H183.111V45.8582Z" fill="#DC0000"/>
<path d="M215.458 45.8583H198.672L195.805 39.3905H205.213L200.101 28.0028L192.1 45.8583H184.754V39.3905H187.664L197.448 17.5588H202.775L215.458 45.8583Z" fill="#DC0000"/>
<path d="M247.806 45.8583H241.255V33.0392L234.5 45.8477H230.408L223.653 33.0392V45.8477H217.101V17.5588H223.663L232.459 34.9372L241.255 17.5588H247.817V45.8583H247.806Z" fill="#DC0000"/>
<path d="M274 45.8583H249.438V17.5588H274V24.0267H255.99V28.4693H269.908V34.9372H255.99V39.3799H274V45.8583Z" fill="#DC0000"/>
</svg>
