<svg width="30" height="24" viewBox="0 0 30 24" fill="none" xmlns="http://www.w3.org/2000/svg">
<path d="M27.0007 0.000366211H3.00073C1.35073 0.000366211 0.0157324 1.35037 0.0157324 3.00037L0.000732422 21.0004C0.000732422 22.6504 1.35073 24.0004 3.00073 24.0004H27.0007C28.6507 24.0004 30.0007 22.6504 30.0007 21.0004V3.00037C30.0007 1.35037 28.6507 0.000366211 27.0007 0.000366211ZM26.4007 6.37537L15.7957 13.0054C15.3157 13.3054 14.6857 13.3054 14.2057 13.0054L3.60073 6.37537C3.45032 6.29093 3.31861 6.17686 3.21356 6.04005C3.10852 5.90324 3.03233 5.74653 2.9896 5.57942C2.94686 5.41231 2.93849 5.23827 2.96497 5.06783C2.99145 4.89738 3.05224 4.73409 3.14365 4.58782C3.23507 4.44155 3.35522 4.31535 3.49682 4.21686C3.63842 4.11837 3.79854 4.04963 3.96747 4.01481C4.13641 3.97999 4.31066 3.97982 4.47966 4.01429C4.64867 4.04876 4.80893 4.11717 4.95073 4.21537L15.0007 10.5004L25.0507 4.21537C25.1925 4.11717 25.3528 4.04876 25.5218 4.01429C25.6908 3.97982 25.865 3.97999 26.034 4.01481C26.2029 4.04963 26.363 4.11837 26.5046 4.21686C26.6462 4.31535 26.7664 4.44155 26.8578 4.58782C26.9492 4.73409 27.01 4.89738 27.0365 5.06783C27.063 5.23827 27.0546 5.41231 27.0119 5.57942C26.9691 5.74653 26.8929 5.90324 26.7879 6.04005C26.6829 6.17686 26.5511 6.29093 26.4007 6.37537Z" fill="white"/>
</svg>
