<svg width="28" height="28" viewBox="0 0 28 28" fill="none" xmlns="http://www.w3.org/2000/svg">
<path d="M23.3333 4.66675H4.66665C3.38331 4.66675 2.34498 5.71675 2.34498 7.00008L2.33331 21.0001C2.33331 22.2834 3.38331 23.3334 4.66665 23.3334H23.3333C24.6166 23.3334 25.6666 22.2834 25.6666 21.0001V7.00008C25.6666 5.71675 24.6166 4.66675 23.3333 4.66675ZM22.8666 9.62508L14.6183 14.7817C14.245 15.0151 13.755 15.0151 13.3816 14.7817L5.13331 9.62508C5.01633 9.55941 4.91389 9.47069 4.83218 9.36428C4.75048 9.25787 4.69122 9.13599 4.65798 9.00601C4.62475 8.87604 4.61823 8.74067 4.63883 8.60811C4.65942 8.47554 4.70671 8.34853 4.77781 8.23477C4.84891 8.121 4.94236 8.02285 5.05249 7.94624C5.16263 7.86964 5.28716 7.81618 5.41856 7.7891C5.54995 7.76201 5.68548 7.76188 5.81693 7.78869C5.94838 7.8155 6.07302 7.8687 6.18331 7.94508L14 12.8334L21.8166 7.94508C21.9269 7.8687 22.0516 7.8155 22.183 7.78869C22.3145 7.76188 22.45 7.76201 22.5814 7.7891C22.7128 7.81618 22.8373 7.86964 22.9475 7.94624C23.0576 8.02285 23.151 8.121 23.2222 8.23477C23.2933 8.34853 23.3405 8.47554 23.3611 8.60811C23.3817 8.74067 23.3752 8.87604 23.342 9.00601C23.3087 9.13599 23.2495 9.25787 23.1678 9.36428C23.0861 9.47069 22.9836 9.55941 22.8666 9.62508Z" fill="#DC0000"/>
</svg>
