<svg width="26" height="26" viewBox="0 0 26 26" fill="none" xmlns="http://www.w3.org/2000/svg">
<path fill-rule="evenodd" clip-rule="evenodd" d="M7.02717 2.52803C8.05639 2.44586 9.03343 2.04104 9.81917 1.37123C10.7066 0.615378 11.8343 0.200256 13 0.200256C14.1657 0.200256 15.2933 0.615378 16.1808 1.37123C16.9665 2.04104 17.9436 2.44586 18.9728 2.52803C20.1351 2.62092 21.2263 3.12477 22.0507 3.94926C22.8752 4.77374 23.3791 5.86494 23.472 7.02723C23.5536 8.05603 23.9584 9.03363 24.6288 9.81923C25.3846 10.7067 25.7997 11.8343 25.7997 13C25.7997 14.1658 25.3846 15.2934 24.6288 16.1808C23.959 16.9666 23.5541 17.9436 23.472 18.9728C23.3791 20.1351 22.8752 21.2263 22.0507 22.0508C21.2263 22.8753 20.1351 23.3791 18.9728 23.472C17.9436 23.5542 16.9665 23.959 16.1808 24.6288C15.2933 25.3847 14.1657 25.7998 13 25.7998C11.8343 25.7998 10.7066 25.3847 9.81917 24.6288C9.03343 23.959 8.05639 23.5542 7.02717 23.472C5.86488 23.3791 4.77368 22.8753 3.9492 22.0508C3.12471 21.2263 2.62086 20.1351 2.52797 18.9728C2.4458 17.9436 2.04098 16.9666 1.37117 16.1808C0.615317 15.2934 0.200195 14.1658 0.200195 13C0.200195 11.8343 0.615317 10.7067 1.37117 9.81923C2.04098 9.03349 2.4458 8.05645 2.52797 7.02723C2.62086 5.86494 3.12471 4.77374 3.9492 3.94926C4.77368 3.12477 5.86488 2.62092 7.02717 2.52803ZM18.9312 10.9312C19.2226 10.6295 19.3839 10.2253 19.3803 9.80579C19.3766 9.38628 19.2083 8.98498 18.9117 8.68832C18.615 8.39167 18.2137 8.2234 17.7942 8.21975C17.3747 8.21611 16.9705 8.37738 16.6688 8.66883L11.4 13.9376L9.33117 11.8688C9.02941 11.5774 8.62524 11.4161 8.20573 11.4198C7.78621 11.4234 7.38491 11.5917 7.08826 11.8883C6.79161 12.185 6.62334 12.5863 6.61969 13.0058C6.61605 13.4253 6.77732 13.8295 7.06877 14.1312L10.2688 17.3312C10.5688 17.6312 10.9757 17.7997 11.4 17.7997C11.8242 17.7997 12.2311 17.6312 12.5312 17.3312L18.9312 10.9312Z" fill="#DC0000"/>
</svg>
