<svg width="24" height="24" viewBox="0 0 24 24" fill="none" xmlns="http://www.w3.org/2000/svg">
<path d="M15.7887 16.795L17.7487 14.835C18.0127 14.5743 18.3467 14.3959 18.7102 14.3213C19.0736 14.2467 19.4509 14.2793 19.7962 14.415L22.185 15.3688C22.5339 15.5104 22.8332 15.7522 23.0449 16.0636C23.2567 16.3751 23.3715 16.7422 23.375 17.1188V21.4938C23.373 21.75 23.3191 22.0031 23.2167 22.2379C23.1142 22.4727 22.9654 22.6844 22.779 22.8602C22.5926 23.0359 22.3725 23.1721 22.1321 23.2606C21.8917 23.3491 21.6359 23.388 21.38 23.375C4.64124 22.3338 1.26375 8.15879 0.624995 2.73379C0.595344 2.46738 0.622435 2.19772 0.704487 1.94253C0.786539 1.68735 0.921692 1.45243 1.10105 1.25323C1.28042 1.05403 1.49992 0.895065 1.74513 0.786792C1.99034 0.678518 2.2557 0.623391 2.52375 0.625036H6.75C7.12713 0.626152 7.4953 0.74007 7.80717 0.952136C8.11903 1.1642 8.36032 1.46472 8.49999 1.81504L9.45374 4.20379C9.59397 4.54772 9.62974 4.92535 9.5566 5.2895C9.48346 5.65364 9.30465 5.98817 9.04249 6.25129L7.0825 8.21129C7.0825 8.21129 8.21124 15.85 15.7887 16.795Z" fill="#DC0000"/>
</svg>
