<svg width="34" height="34" viewBox="0 0 34 34" fill="none" xmlns="http://www.w3.org/2000/svg">
<path d="M17 2.125C13.0696 2.17242 9.31361 3.75483 6.53422 6.53422C3.75483 9.31361 2.17242 13.0696 2.125 17C2.17242 20.9304 3.75483 24.6864 6.53422 27.4658C9.31361 30.2452 13.0696 31.8276 17 31.875C20.9304 31.8276 24.6864 30.2452 27.4658 27.4658C30.2452 24.6864 31.8276 20.9304 31.875 17C31.8276 13.0696 30.2452 9.31361 27.4658 6.53422C24.6864 3.75483 20.9304 2.17242 17 2.125ZM25.5 18.0625H18.0625V25.5H15.9375V18.0625H8.5V15.9375H15.9375V8.5H18.0625V15.9375H25.5V18.0625Z" fill="#DC0000"/>
</svg>
