<svg width="23" height="28" viewBox="0 0 23 28" fill="none" xmlns="http://www.w3.org/2000/svg">
<path d="M11.5002 12.3063C12.0689 12.3063 12.6247 12.1419 13.0975 11.834C13.5703 11.526 13.9388 11.0884 14.1564 10.5763C14.374 10.0642 14.4309 9.50072 14.32 8.95709C14.2091 8.41347 13.9353 7.91412 13.5332 7.52219C13.1311 7.13026 12.6188 6.86336 12.0611 6.75522C11.5034 6.64709 10.9254 6.70259 10.4 6.9147C9.87469 7.12681 9.42568 7.48601 9.10977 7.94687C8.79386 8.40773 8.62524 8.94955 8.62524 9.50383C8.62524 10.2471 8.92815 10.9599 9.46731 11.4855C10.0065 12.011 10.7377 12.3063 11.5002 12.3063ZM10.4796 21.9887C10.6133 22.1201 10.7722 22.2243 10.9474 22.2955C11.1226 22.3666 11.3105 22.4032 11.5002 22.4032C11.69 22.4032 11.8779 22.3666 12.0531 22.2955C12.2282 22.2243 12.3872 22.1201 12.5209 21.9887L18.4002 16.2437C19.7658 14.9133 20.6959 13.218 21.0729 11.3723C21.45 9.52657 21.257 7.6133 20.5184 5.8745C19.7798 4.13569 18.5287 2.64946 16.9235 1.6038C15.3182 0.558131 13.4309 0 11.5002 0C9.56956 0 7.68224 0.558131 6.077 1.6038C4.47176 2.64946 3.22072 4.13569 2.48211 5.8745C1.74351 7.6133 1.55051 9.52657 1.92754 11.3723C2.30457 13.218 3.23469 14.9133 4.60024 16.2437L10.4796 21.9887ZM4.64337 8.85926C4.74159 7.86021 5.06746 6.89515 5.59719 6.03455C6.12691 5.17395 6.84713 4.43953 7.70524 3.88491C8.83254 3.16342 10.1517 2.77901 11.5002 2.77901C12.8488 2.77901 14.168 3.16342 15.2952 3.88491C16.1476 4.43763 16.8638 5.16759 17.3922 6.02232C17.9206 6.87704 18.2481 7.83529 18.3512 8.82814C18.4543 9.82098 18.3304 10.8238 17.9884 11.7644C17.6464 12.705 17.0948 13.56 16.3734 14.268L11.5002 19.0181L6.62712 14.268C5.90481 13.5669 5.35195 12.7176 5.00879 11.7819C4.66563 10.8463 4.54079 9.84785 4.64337 8.85926ZM21.5627 25.1975H1.43774C1.0565 25.1975 0.690862 25.3452 0.421278 25.608C0.151695 25.8707 0.000244141 26.2271 0.000244141 26.5988C0.000244141 26.9704 0.151695 27.3268 0.421278 27.5896C0.690862 27.8524 1.0565 28 1.43774 28H21.5627C21.944 28 22.3096 27.8524 22.5792 27.5896C22.8488 27.3268 23.0002 26.9704 23.0002 26.5988C23.0002 26.2271 22.8488 25.8707 22.5792 25.608C22.3096 25.3452 21.944 25.1975 21.5627 25.1975Z" fill="black"/>
</svg>
