<svg width="25" height="26" viewBox="0 0 25 26" fill="none" xmlns="http://www.w3.org/2000/svg">
<path fill-rule="evenodd" clip-rule="evenodd" d="M15.7337 0.604431H8.41147C7.08274 0.604431 6.0056 1.68158 6.0056 3.0103C6.0056 4.33903 7.08274 5.41617 8.41147 5.41617H15.7337C17.0624 5.41617 18.1396 4.33903 18.1396 3.0103C18.1396 1.68158 17.0624 0.604431 15.7337 0.604431ZM6.73782 3.0103C6.73782 2.08597 7.48714 1.33665 8.41147 1.33665H15.7337C16.658 1.33665 17.4073 2.08597 17.4073 3.0103C17.4073 3.49413 17.202 3.93001 16.8738 4.23557C16.9336 4.17992 16.9892 4.11993 17.0404 4.05613C16.8342 4.31338 16.5537 4.50844 16.2314 4.60871C16.1369 4.6381 16.0388 4.65934 15.9379 4.67161C15.871 4.67976 15.8028 4.68395 15.7337 4.68395H8.41147C7.48714 4.68395 6.73782 3.93463 6.73782 3.0103ZM5.78715 1.96429H4.86534C3.92801 1.96429 3.45934 1.96429 3.10133 2.1467C2.78641 2.30716 2.53038 2.5632 2.36992 2.87812C2.1875 3.23613 2.1875 3.70479 2.1875 4.64212V22.7175C2.1875 23.6549 2.1875 24.1235 2.36992 24.4815C2.53038 24.7965 2.78641 25.0525 3.10133 25.213C3.45934 25.3954 3.92801 25.3954 4.86534 25.3954H19.2796C20.217 25.3954 20.6856 25.3954 21.0436 25.213C21.3586 25.0525 21.6146 24.7965 21.7751 24.4815C21.9575 24.1235 21.9575 23.6549 21.9575 22.7175V4.64212C21.9575 3.70479 21.9575 3.23613 21.7751 2.87812C21.6146 2.5632 21.3586 2.30716 21.0436 2.1467C20.6856 1.96429 20.217 1.96429 19.2796 1.96429H18.3578C18.4869 2.28781 18.5579 2.64081 18.5579 3.01039C18.5579 4.5702 17.2934 5.83467 15.7336 5.83467H8.41136C6.85156 5.83467 5.58708 4.5702 5.58708 3.01039C5.58708 2.64081 5.65807 2.28781 5.78715 1.96429ZM10.0327 9.2343C10.0327 8.91656 10.2903 8.65898 10.608 8.65898H18.0348C18.3526 8.65898 18.6101 8.91656 18.6101 9.2343C18.6101 9.55204 18.3526 9.80962 18.0348 9.80962H10.608C10.2903 9.80962 10.0327 9.55204 10.0327 9.2343ZM10.608 10.8556C10.2903 10.8556 10.0327 11.1132 10.0327 11.4309C10.0327 11.7486 10.2903 12.0062 10.608 12.0062H15.8905C16.2082 12.0062 16.4658 11.7486 16.4658 11.4309C16.4658 11.1132 16.2082 10.8556 15.8905 10.8556H10.608ZM6.12426 9.75399C6.20309 9.66953 6.33548 9.66496 6.41994 9.7438L6.90377 10.1954C6.98618 10.2723 7.11473 10.2701 7.19444 10.1904L8.42034 8.96446C8.50204 8.88276 8.6345 8.88276 8.7162 8.96446L9.20315 9.45141C9.28552 9.53377 9.28475 9.66755 9.20144 9.74896L7.19686 11.708C7.11592 11.7871 6.98675 11.7875 6.90533 11.7089L5.68276 10.5284C5.60063 10.4492 5.59724 10.3187 5.67513 10.2352L6.12426 9.75399ZM10.608 13.6799C10.2903 13.6799 10.0327 13.9375 10.0327 14.2552C10.0327 14.5729 10.2903 14.8305 10.608 14.8305H18.0348C18.3526 14.8305 18.6101 14.5729 18.6101 14.2552C18.6101 13.9375 18.3526 13.6799 18.0348 13.6799H10.608ZM10.0327 16.4519C10.0327 16.1341 10.2903 15.8766 10.608 15.8766H15.8905C16.2082 15.8766 16.4658 16.1341 16.4658 16.4519C16.4658 16.7696 16.2082 17.0272 15.8905 17.0272H10.608C10.2903 17.0272 10.0327 16.7696 10.0327 16.4519ZM6.41994 14.7647C6.33548 14.6859 6.20309 14.6904 6.12426 14.7749L5.67513 15.2561C5.59724 15.3396 5.60063 15.4701 5.68276 15.5494L6.90533 16.7298C6.98675 16.8084 7.11592 16.808 7.19686 16.7289L9.20144 14.7699C9.28475 14.6885 9.28552 14.5547 9.20315 14.4723L8.7162 13.9854C8.6345 13.9037 8.50204 13.9037 8.42034 13.9854L7.19444 15.2113C7.11473 15.291 6.98618 15.2932 6.90377 15.2163L6.41994 14.7647ZM10.0327 19.2761C10.0327 18.9583 10.2903 18.7007 10.608 18.7007H18.0348C18.3526 18.7007 18.6101 18.9583 18.6101 19.2761C18.6101 19.5938 18.3526 19.8514 18.0348 19.8514H10.608C10.2903 19.8514 10.0327 19.5938 10.0327 19.2761ZM10.608 20.8974C10.2903 20.8974 10.0327 21.155 10.0327 21.4727C10.0327 21.7905 10.2903 22.048 10.608 22.048H15.8905C16.2082 22.048 16.4658 21.7905 16.4658 21.4727C16.4658 21.155 16.2082 20.8974 15.8905 20.8974H10.608ZM6.12426 19.7958C6.20309 19.7114 6.33548 19.7068 6.41994 19.7856L6.90377 20.2372C6.98618 20.3141 7.11473 20.3119 7.19444 20.2322L8.42034 19.0063C8.50204 18.9246 8.6345 18.9246 8.7162 19.0063L9.20315 19.4932C9.28552 19.5756 9.28475 19.7094 9.20144 19.7908L7.19686 21.7498C7.11592 21.8289 6.98675 21.8293 6.90533 21.7507L5.68276 20.5703C5.60063 20.491 5.59724 20.3605 5.67513 20.277L6.12426 19.7958Z" fill="black"/>
</svg>
