<svg width="25" height="24" viewBox="0 0 25 24" fill="none" xmlns="http://www.w3.org/2000/svg">
<path d="M18.025 6.35C17.1868 5.50426 16.1694 4.85761 15.0478 4.45779C13.9262 4.05796 12.7292 3.91519 11.545 4.04C7.87502 4.41 4.85502 7.39 4.44502 11.06C3.89502 15.91 7.64502 20 12.375 20C13.8851 20 15.3642 19.5715 16.6405 18.7643C17.9168 17.9571 18.9378 16.8044 19.585 15.44C19.905 14.77 19.425 14 18.685 14C18.315 14 17.965 14.2 17.805 14.53C17.2244 15.779 16.2314 16.79 14.9929 17.3928C13.7545 17.9956 12.3462 18.1536 11.005 17.84C8.78502 17.35 6.99502 15.54 6.52502 13.32C6.32745 12.4423 6.32974 11.5313 6.53172 10.6546C6.73369 9.77786 7.13019 8.95775 7.69187 8.25492C8.25356 7.55209 8.96607 6.98453 9.77669 6.59421C10.5873 6.2039 11.4753 6.00082 12.375 6C14.035 6 15.515 6.69 16.595 7.78L15.085 9.29C14.455 9.92 14.895 11 15.785 11H19.375C19.925 11 20.375 10.55 20.375 10V6.41C20.375 5.52 19.295 5.07 18.665 5.7L18.025 6.35Z" fill="black"/>
</svg>
