<svg width="20" height="20" viewBox="0 0 20 20" fill="none" xmlns="http://www.w3.org/2000/svg">
<path d="M17.2583 6.94999L13.3583 3.04999C13.2 2.89165 12.9833 2.79999 12.7667 2.79999H7.23333C7.01667 2.79999 6.8 2.89165 6.65 3.04165L2.74167 6.94999C2.59167 7.09999 2.5 7.31665 2.5 7.53332V13.0583C2.5 13.2833 2.59167 13.4917 2.74167 13.65L6.64167 17.55C6.8 17.7083 7.01667 17.8 7.23333 17.8H12.7583C12.9833 17.8 13.1917 17.7083 13.35 17.5583L17.25 13.6583C17.3276 13.5807 17.389 13.4884 17.4305 13.3868C17.472 13.2852 17.4928 13.1764 17.4917 13.0667V7.53332C17.5 7.31665 17.4083 7.09999 17.2583 6.94999ZM15.8333 12.7167L12.4167 16.1333H7.58333L4.16667 12.7167V7.88332L7.58333 4.46665H12.4167L15.8333 7.88332V12.7167Z" fill="#999999"/>
<path d="M9.99996 14.4667C10.4602 14.4667 10.8333 14.0936 10.8333 13.6333C10.8333 13.1731 10.4602 12.8 9.99996 12.8C9.53972 12.8 9.16663 13.1731 9.16663 13.6333C9.16663 14.0936 9.53972 14.4667 9.99996 14.4667Z" fill="#999999"/>
<path d="M9.99996 6.13336C9.54163 6.13336 9.16663 6.50836 9.16663 6.9667V11.1334C9.16663 11.5917 9.54163 11.9667 9.99996 11.9667C10.4583 11.9667 10.8333 11.5917 10.8333 11.1334V6.9667C10.8333 6.50836 10.4583 6.13336 9.99996 6.13336Z" fill="#999999"/>
</svg>
