<svg width="20" height="13" viewBox="0 0 20 13" fill="none" xmlns="http://www.w3.org/2000/svg">
<path d="M8.77633 12.0311L0.982832 3.12282C0.0630817 2.0747 0.810582 0.428574 2.20646 0.428574H17.7935C18.1059 0.428306 18.4117 0.518091 18.6744 0.687178C18.9371 0.856264 19.1454 1.09748 19.2746 1.38195C19.4037 1.66642 19.4481 1.98207 19.4024 2.29111C19.3567 2.60015 19.223 2.88948 19.0171 3.12445L11.2236 12.0294C11.0711 12.204 10.883 12.3439 10.6719 12.4397C10.4609 12.5356 10.2318 12.5852 9.99996 12.5852C9.76816 12.5852 9.53905 12.5356 9.328 12.4397C9.11696 12.3439 8.92886 12.204 8.77633 12.0294V12.0311Z" fill="black"/>
</svg>
