<svg width="16" height="19" viewBox="0 0 16 19" fill="none" xmlns="http://www.w3.org/2000/svg">
<path d="M0.328477 9.952H2.79848V0.799999H8.51848C10.8585 0.799999 12.5658 1.30267 13.6405 2.308C14.7325 3.296 15.2785 4.68267 15.2785 6.468C15.2785 8.21867 14.7238 9.60533 13.6145 10.628C12.5225 11.6333 10.8238 12.136 8.51848 12.136H5.24248V13.878H11.3785V15.802H5.24248V19H2.79848V15.802H0.328477V13.878H2.79848V12.136H0.328477V9.952ZM5.24248 3.036V9.952H8.51848C10.0611 9.952 11.1531 9.666 11.7945 9.094C12.4358 8.522 12.7565 7.65533 12.7565 6.494C12.7565 5.35 12.4271 4.492 11.7685 3.92C11.1271 3.33067 10.0438 3.036 8.51848 3.036H5.24248Z" fill="black"/>
</svg>
