<svg width="26" height="26" viewBox="0 0 26 26" fill="none" xmlns="http://www.w3.org/2000/svg">
<path d="M10.541 8.53887e-09C12.5059 -7.90628e-05 14.4317 0.549003 16.1011 1.58528C17.7705 2.62156 19.117 4.10379 19.9887 5.86469C20.8604 7.62559 21.2226 9.59507 21.0344 11.5509C20.8462 13.5067 20.1151 15.371 18.9236 16.9333L25.59 23.6024C25.8421 23.8553 25.9884 24.1947 25.9993 24.5516C26.0102 24.9085 25.8849 25.2562 25.6487 25.5241C25.4125 25.7919 25.0832 25.9598 24.7278 25.9937C24.3723 26.0275 24.0172 25.9248 23.7347 25.7064L23.6026 25.5897L16.9333 18.9235C15.6023 19.9384 14.0487 20.6217 12.4011 20.917C10.7535 21.2123 9.05928 21.111 7.45862 20.6215C5.85795 20.132 4.39687 19.2683 3.19627 18.1021C1.99567 16.9358 1.09006 15.5004 0.554389 13.9146C0.0187172 12.3288 -0.13162 10.6383 0.115816 8.98291C0.363252 7.32751 1.00135 5.75483 1.9773 4.395C2.95326 3.03517 4.23902 1.92729 5.72818 1.16302C7.21735 0.398759 8.86711 8.8342e-05 10.541 8.53887e-09ZM10.541 2.81098C8.49071 2.81098 6.52445 3.62541 5.07471 5.0751C3.62497 6.52479 2.81051 8.49099 2.81051 10.5412C2.81051 12.5913 3.62497 14.5575 5.07471 16.0072C6.52445 17.4569 8.49071 18.2714 10.541 18.2714C12.5912 18.2714 14.5575 17.4569 16.0072 16.0072C17.4569 14.5575 18.2714 12.5913 18.2714 10.5412C18.2714 8.49099 17.4569 6.52479 16.0072 5.0751C14.5575 3.62541 12.5912 2.81098 10.541 2.81098Z" fill="#DC0000"/>
</svg>
