<svg width="23" height="23" viewBox="0 0 23 23" fill="none" xmlns="http://www.w3.org/2000/svg">
<path d="M9.66555 0.916931C11.2965 0.916866 12.8951 1.37265 14.2808 2.23284C15.6664 3.09303 16.7841 4.3234 17.5077 5.78508C18.2313 7.24677 18.5319 8.8816 18.3757 10.5051C18.2194 12.1285 17.6126 13.676 16.6236 14.9729L22.1571 20.5088C22.3663 20.7187 22.4878 21.0004 22.4968 21.2967C22.5059 21.593 22.4018 21.8816 22.2058 22.1039C22.0097 22.3262 21.7364 22.4656 21.4413 22.4937C21.1463 22.5218 20.8515 22.4366 20.6171 22.2553L20.5074 22.1584L14.9716 16.6249C13.8667 17.4674 12.5772 18.0346 11.2096 18.2797C9.84198 18.5248 8.43569 18.4407 7.10705 18.0344C5.77842 17.628 4.56565 16.9112 3.56908 15.9431C2.57252 14.975 1.82082 13.7835 1.37619 12.4671C0.931552 11.1508 0.806764 9.74757 1.01215 8.37346C1.21753 6.99935 1.74719 5.6939 2.55728 4.56513C3.36738 3.43636 4.43462 2.51673 5.6707 1.88233C6.90679 1.24793 8.27618 0.917004 9.66555 0.916931ZM9.66555 3.25026C7.96375 3.25026 6.33164 3.9263 5.12829 5.12966C3.92493 6.33302 3.24889 7.96512 3.24889 9.66693C3.24889 11.3687 3.92493 13.0008 5.12829 14.2042C6.33164 15.4076 7.96375 16.0836 9.66555 16.0836C11.3674 16.0836 12.9995 15.4076 14.2028 14.2042C15.4062 13.0008 16.0822 11.3687 16.0822 9.66693C16.0822 7.96512 15.4062 6.33302 14.2028 5.12966C12.9995 3.9263 11.3674 3.25026 9.66555 3.25026Z" fill="#AAAAAA"/>
</svg>
