<svg width="20" height="20" viewBox="0 0 20 20" fill="none" xmlns="http://www.w3.org/2000/svg">
<path d="M8.33317 2.08337C9.49815 2.08333 10.64 2.40889 11.6297 3.02331C12.6195 3.63773 13.4179 4.51656 13.9347 5.56063C14.4515 6.60469 14.6663 7.77242 14.5547 8.93205C14.4431 10.0917 14.0096 11.197 13.3032 12.1234L17.2557 16.0775C17.4051 16.2275 17.4919 16.4287 17.4984 16.6404C17.5048 16.852 17.4305 17.0581 17.2905 17.2169C17.1504 17.3757 16.9552 17.4753 16.7444 17.4954C16.5337 17.5155 16.3232 17.4546 16.1557 17.325L16.0773 17.2559L12.1232 13.3034C11.334 13.9051 10.4129 14.3103 9.43603 14.4854C8.45919 14.6604 7.45469 14.6004 6.50567 14.3101C5.55664 14.0199 4.69038 13.5078 3.97855 12.8163C3.26671 12.1248 2.72979 11.2738 2.41219 10.3335C2.09459 9.39331 2.00546 8.39097 2.15216 7.40947C2.29887 6.42796 2.67719 5.49549 3.25583 4.68923C3.83447 3.88297 4.59679 3.22609 5.4797 2.77295C6.36262 2.3198 7.34075 2.08343 8.33317 2.08337ZM8.33317 3.75004C7.11759 3.75004 5.9518 4.23293 5.09226 5.09247C4.23272 5.95201 3.74983 7.1178 3.74983 8.33337C3.74983 9.54895 4.23272 10.7147 5.09226 11.5743C5.9518 12.4338 7.11759 12.9167 8.33317 12.9167C9.54874 12.9167 10.7145 12.4338 11.5741 11.5743C12.4336 10.7147 12.9165 9.54895 12.9165 8.33337C12.9165 7.1178 12.4336 5.95201 11.5741 5.09247C10.7145 4.23293 9.54874 3.75004 8.33317 3.75004Z" fill="#B1B4B5"/>
</svg>
