<svg width="20" height="20" viewBox="0 0 20 20" fill="none" xmlns="http://www.w3.org/2000/svg">
<path d="M13.5675 2.68252C13.4801 2.59489 13.3686 2.53518 13.2472 2.51097C13.1259 2.48676 13 2.49914 12.8857 2.54654C12.7713 2.59394 12.6736 2.67422 12.605 2.7772C12.5363 2.88019 12.4998 3.00124 12.5 3.12502V5.01752C10.5 5.12752 8.975 5.78002 7.8925 6.91127C6.7125 8.14502 6.135 9.86252 5.94 11.8125C5.92667 11.9411 5.95354 12.0707 6.01692 12.1834C6.0803 12.2961 6.17707 12.3863 6.29389 12.4417C6.4107 12.4971 6.54183 12.5149 6.66918 12.4927C6.79654 12.4704 6.91387 12.4092 7.005 12.3175C8.185 11.1363 9.265 10.57 10.25 10.2875C11.0275 10.065 11.7662 10.0138 12.5 10.0025V11.875C12.4998 11.9988 12.5363 12.1199 12.605 12.2228C12.6736 12.3258 12.7713 12.4061 12.8857 12.4535C13 12.5009 13.1259 12.5133 13.2472 12.4891C13.3686 12.4649 13.4801 12.4052 13.5675 12.3175L17.9425 7.94252C18.0007 7.88446 18.0469 7.81549 18.0784 7.73956C18.1099 7.66363 18.1261 7.58223 18.1261 7.50002C18.1261 7.41781 18.1099 7.33641 18.0784 7.26048C18.0469 7.18455 18.0007 7.11558 17.9425 7.05752L13.5675 2.68252ZM13.75 5.62502V4.63377L16.6163 7.50002L13.75 10.3663V9.37502C13.75 9.20926 13.6842 9.05029 13.5669 8.93308C13.4497 8.81587 13.2908 8.75002 13.125 8.75002H13.1C12.175 8.75002 11.085 8.75002 9.90625 9.08752C9.03418 9.34015 8.21245 9.74192 7.4775 10.275C7.7525 9.25127 8.185 8.41252 8.795 7.77502C9.695 6.83627 11.0625 6.25002 13.125 6.25002C13.2908 6.25002 13.4497 6.18417 13.5669 6.06696C13.6842 5.94975 13.75 5.79078 13.75 5.62502ZM3.75 6.87502C3.75 6.37774 3.94754 5.90083 4.29917 5.54919C4.65081 5.19756 5.12772 5.00002 5.625 5.00002H6.875C7.04076 5.00002 7.19973 4.93417 7.31694 4.81696C7.43415 4.69975 7.5 4.54078 7.5 4.37502C7.5 4.20926 7.43415 4.05029 7.31694 3.93308C7.19973 3.81587 7.04076 3.75002 6.875 3.75002H5.625C4.7962 3.75002 4.00134 4.07926 3.41529 4.66531C2.82924 5.25136 2.5 6.04622 2.5 6.87502V14.375C2.5 15.2038 2.82924 15.9987 3.41529 16.5847C4.00134 17.1708 4.7962 17.5 5.625 17.5H13.125C13.9538 17.5 14.7487 17.1708 15.3347 16.5847C15.9208 15.9987 16.25 15.2038 16.25 14.375V13.125C16.25 12.9593 16.1842 12.8003 16.0669 12.6831C15.9497 12.5659 15.7908 12.5 15.625 12.5C15.4592 12.5 15.3003 12.5659 15.1831 12.6831C15.0658 12.8003 15 12.9593 15 13.125V14.375C15 14.8723 14.8025 15.3492 14.4508 15.7008C14.0992 16.0525 13.6223 16.25 13.125 16.25H5.625C5.12772 16.25 4.65081 16.0525 4.29917 15.7008C3.94754 15.3492 3.75 14.8723 3.75 14.375V6.87502Z" fill="#999999"/>
</svg>
