<svg width="24" height="24" viewBox="0 0 24 24" fill="none" xmlns="http://www.w3.org/2000/svg">
<path d="M18.75 3.75C18.75 3.55109 18.829 3.36032 18.9697 3.21967C19.1104 3.07902 19.3011 3 19.5 3C19.6989 3 19.8897 3.07902 20.0304 3.21967C20.171 3.36032 20.25 3.55109 20.25 3.75V16.9395L21.969 15.219C22.1099 15.0782 22.3009 14.9991 22.5 14.9991C22.6992 14.9991 22.8902 15.0782 23.031 15.219C23.1719 15.3598 23.251 15.5508 23.251 15.75C23.251 15.9492 23.1719 16.1402 23.031 16.281L20.031 19.2795L20.0205 19.29C19.8797 19.4273 19.6903 19.5034 19.4937 19.5017C19.297 19.5 19.109 19.4207 18.9705 19.281L15.9705 16.281C15.9008 16.2114 15.8455 16.1287 15.8077 16.0377C15.7699 15.9466 15.7504 15.8491 15.7504 15.7505C15.7503 15.652 15.7696 15.5544 15.8073 15.4633C15.8449 15.3722 15.9001 15.2895 15.9698 15.2197C16.0394 15.15 16.1221 15.0947 16.2131 15.0569C16.3041 15.0191 16.4017 14.9997 16.5002 14.9996C16.5988 14.9995 16.6964 15.0189 16.7875 15.0565C16.8785 15.0941 16.9613 15.1494 17.031 15.219L18.75 16.9395V3.75ZM13.5 5.25C13.5 5.05109 13.421 4.86032 13.2804 4.71967C13.1397 4.57902 12.9489 4.5 12.75 4.5H2.25003C2.05112 4.5 1.86035 4.57902 1.7197 4.71967C1.57905 4.86032 1.50003 5.05109 1.50003 5.25C1.50003 5.44891 1.57905 5.63968 1.7197 5.78033C1.86035 5.92098 2.05112 6 2.25003 6H12.75C12.9489 6 13.1397 5.92098 13.2804 5.78033C13.421 5.63968 13.5 5.44891 13.5 5.25ZM12.75 9C12.9489 9 13.1397 9.07902 13.2804 9.21967C13.421 9.36032 13.5 9.55109 13.5 9.75C13.5 9.94891 13.421 10.1397 13.2804 10.2803C13.1397 10.421 12.9489 10.5 12.75 10.5H5.25003C5.05112 10.5 4.86035 10.421 4.7197 10.2803C4.57905 10.1397 4.50003 9.94891 4.50003 9.75C4.50003 9.55109 4.57905 9.36032 4.7197 9.21967C4.86035 9.07902 5.05112 9 5.25003 9H12.75ZM12.75 13.5C12.9489 13.5 13.1397 13.579 13.2804 13.7197C13.421 13.8603 13.5 14.0511 13.5 14.25C13.5 14.4489 13.421 14.6397 13.2804 14.7803C13.1397 14.921 12.9489 15 12.75 15H8.25003C8.05112 15 7.86035 14.921 7.7197 14.7803C7.57905 14.6397 7.50003 14.4489 7.50003 14.25C7.50003 14.0511 7.57905 13.8603 7.7197 13.7197C7.86035 13.579 8.05112 13.5 8.25003 13.5H12.75ZM12.75 18C12.9489 18 13.1397 18.079 13.2804 18.2197C13.421 18.3603 13.5 18.5511 13.5 18.75C13.5 18.9489 13.421 19.1397 13.2804 19.2803C13.1397 19.421 12.9489 19.5 12.75 19.5H11.25C11.0511 19.5 10.8604 19.421 10.7197 19.2803C10.579 19.1397 10.5 18.9489 10.5 18.75C10.5 18.5511 10.579 18.3603 10.7197 18.2197C10.8604 18.079 11.0511 18 11.25 18H12.75Z" fill="black"/>
</svg>
