<svg width="48" height="48" viewBox="0 0 48 48" fill="none" xmlns="http://www.w3.org/2000/svg">
<path d="M42.375 35.0156H5.625C5.41875 35.0156 5.25 35.1844 5.25 35.3906V38.0156C5.25 38.2219 5.41875 38.3906 5.625 38.3906H42.375C42.5812 38.3906 42.75 38.2219 42.75 38.0156V35.3906C42.75 35.1844 42.5812 35.0156 42.375 35.0156ZM7.76719 29.1469L9.62812 30.9984C9.77344 31.1438 10.0125 31.1438 10.1578 30.9984L21.1594 20.0344L25.7344 24.5953C26.0162 24.8746 26.397 25.0313 26.7937 25.0313C27.1905 25.0313 27.5713 24.8746 27.8531 24.5953L40.2375 12.2578C40.3828 12.1125 40.3828 11.8734 40.2375 11.7281L38.3766 9.87188C38.3061 9.80209 38.2109 9.76294 38.1117 9.76294C38.0125 9.76294 37.9174 9.80209 37.8469 9.87188L26.7984 20.8875L22.2188 16.3266C21.9369 16.0473 21.5562 15.8906 21.1594 15.8906C20.7626 15.8906 20.3819 16.0473 20.1 16.3266L7.76719 28.6172C7.73212 28.6518 7.70428 28.693 7.68528 28.7385C7.66628 28.784 7.6565 28.8328 7.6565 28.882C7.6565 28.9313 7.66628 28.9801 7.68528 29.0256C7.70428 29.071 7.73212 29.1123 7.76719 29.1469Z" fill="#DC0000"/>
</svg>
