<svg width="23" height="22" viewBox="0 0 23 22" fill="none" xmlns="http://www.w3.org/2000/svg">
<g clip-path="url(#clip0)">
<path d="M11.4999 0.440033C8.69926 0.440033 6.01328 1.5526 4.03289 3.53299C2.05251 5.51337 0.939941 8.19935 0.939941 11C0.940014 12.3868 1.21323 13.76 1.74398 15.0411C2.27474 16.3223 3.05264 17.4864 4.03328 18.4669C5.01392 19.4475 6.17809 20.2252 7.45931 20.7559C8.74054 21.2865 10.1137 21.5596 11.5005 21.5595C12.8873 21.5594 14.2604 21.2862 15.5416 20.7554C16.8228 20.2247 17.9868 19.4468 18.9674 18.4661C19.9479 17.4855 20.7257 16.3213 21.2563 15.0401C21.7869 13.7589 22.06 12.3857 22.0599 10.9989C22.0599 5.16783 17.331 0.440033 11.4999 0.440033ZM11.4999 19.3589C10.4021 19.3589 9.31499 19.1427 8.30071 18.7226C7.28643 18.3024 6.36483 17.6866 5.58853 16.9103C4.81223 16.134 4.19644 15.2124 3.77631 14.1982C3.35618 13.1839 3.13994 12.0968 3.13994 10.9989C3.13994 9.90108 3.35618 8.81398 3.77631 7.7997C4.19644 6.78542 4.81223 5.86382 5.58853 5.08752C6.36483 4.31122 7.28643 3.69543 8.30071 3.2753C9.31499 2.85517 10.4021 2.63893 11.4999 2.63893V11L18.9711 7.26443C19.5552 8.42308 19.8596 9.70249 19.8599 11C19.8597 13.2171 18.9787 15.3432 17.411 16.9107C15.8432 18.4783 13.717 19.3589 11.4999 19.3589Z" fill="black"/>
</g>
<defs>
<clipPath id="clip0">
<rect width="22" height="22" fill="white" transform="translate(0.5)"/>
</clipPath>
</defs>
</svg>
