<svg width="26" height="26" viewBox="0 0 26 26" fill="none" xmlns="http://www.w3.org/2000/svg">
<path d="M2.16675 20.5834H23.8334V22.7501H2.16675V20.5834ZM11.9167 8.66673H14.0834V17.3334H11.9167V8.66673ZM8.62883 8.66673H10.9309L7.69608 17.2944H5.52941L2.29458 8.66673H4.59666L6.61275 14.2058L8.62883 8.66673ZM18.4167 15.1667V17.3334H16.2501V8.66673H20.5834C21.4454 8.66673 22.272 9.00914 22.8815 9.61863C23.491 10.2281 23.8334 11.0548 23.8334 11.9167C23.8334 12.7787 23.491 13.6053 22.8815 14.2148C22.272 14.8243 21.4454 15.1667 20.5834 15.1667H18.4167ZM18.4167 10.8334V13.0001H20.5834C20.8707 13.0001 21.1463 12.8859 21.3494 12.6828C21.5526 12.4796 21.6667 12.204 21.6667 11.9167C21.6667 11.6294 21.5526 11.3539 21.3494 11.1507C21.1463 10.9475 20.8707 10.8334 20.5834 10.8334H18.4167ZM2.16675 3.25006H23.8334V5.41673H2.16675V3.25006Z" fill="white"/>
</svg>
