<svg width="40" height="40" viewBox="0 0 40 40" fill="none" xmlns="http://www.w3.org/2000/svg">
<path fill-rule="evenodd" clip-rule="evenodd" d="M33.1791 12.1827L32.2105 9.56625C31.7546 8.33383 30.9673 7.27732 29.9503 6.53303C28.9332 5.78874 27.7331 5.39083 26.5047 5.39062H13.4953C12.2669 5.39083 11.0668 5.78874 10.0497 6.53303C9.03271 7.27732 8.24542 8.33383 7.78946 9.56625L6.82088 12.1827C5.64579 12.4642 4.47808 12.7856 3.31775 13.1442C2.27787 13.4656 1.5625 14.4883 1.5625 15.657V24.5422C1.5625 27.2122 2.54412 29.7728 4.29141 31.6608C6.0387 33.5487 8.40854 34.6094 10.8796 34.6094H12.212C12.5576 34.6092 12.8968 34.5085 13.194 34.3178C13.4912 34.1271 13.7353 33.8535 13.9009 33.5256C16.5362 28.3114 23.4663 28.3114 26.0991 33.5256C26.2647 33.8535 26.5088 34.1271 26.806 34.3178C27.1032 34.5085 27.4424 34.6092 27.788 34.6094H29.1204C31.5915 34.6094 33.9613 33.5487 35.7086 31.6608C37.4559 29.7728 38.4375 27.2122 38.4375 24.5422V15.657C38.4375 14.4909 37.7221 13.463 36.6823 13.1442C35.5219 12.7856 34.3542 12.4642 33.1791 12.1827ZM11.428 8.7307C10.8176 9.17669 10.3449 9.81004 10.0708 10.5491V10.5517L9.69467 11.5717C16.5147 10.3028 23.4853 10.3028 30.3053 11.5717L29.9292 10.5517C29.6555 9.8122 29.1829 9.17829 28.5725 8.7318C27.9621 8.28531 27.2419 8.04674 26.5047 8.04688H13.4953C12.7584 8.04653 12.0384 8.28471 11.428 8.7307ZM16.8893 25.2344L20.1996 15.236H18.0088L15.7914 23.081H15.6966L13.4592 15.236H11.1719L14.5122 25.2344H16.8893ZM21.1528 15.236V25.2344H23.1041V21.506H24.874L26.6207 25.2344H28.8281L26.8253 21.206C27.7319 20.856 28.6385 19.866 28.6385 18.401C28.6385 16.4894 27.3526 15.2344 25.1368 15.2344H21.1528V15.236ZM23.104 16.7894V20.0194H24.8224C25.9203 20.0194 26.599 19.4927 26.599 18.436C26.599 17.3694 25.897 16.7894 24.8524 16.7894H23.1057H23.104Z" fill="black"/>
</svg>
