<svg width="26" height="26" viewBox="0 0 26 26" fill="none" xmlns="http://www.w3.org/2000/svg">
<path d="M7.67222 9.438L11.289 6.916C11.695 6.63076 12.1888 6.48431 12.6917 6.5C13.305 6.51468 13.8983 6.71245 14.3892 7.06581C14.88 7.41917 15.244 7.91056 15.4305 8.47167C15.6404 9.10325 15.8322 9.53008 16.006 9.75217C16.5311 10.4247 17.2122 10.9705 17.9954 11.3462C18.7785 11.7219 19.6421 11.9173 20.5176 11.9167V14.0833C19.3522 14.0846 18.2011 13.8377 17.147 13.3606C16.0929 12.8835 15.1621 12.188 14.4216 11.3241L13.6351 15.6087L15.9609 17.4828L18.4694 24.0998L16.3479 24.8408L14.0458 18.7698L10.2203 15.6878C9.90637 15.4444 9.66614 15.1247 9.52463 14.7619C9.38312 14.3991 9.34551 14.0066 9.41571 13.6251L9.9901 10.4997L9.22613 11.0327L6.82587 14.2047L5 12.9307L7.65304 9.425L7.67222 9.438ZM14.311 5.95833C13.7124 5.95833 13.1384 5.73006 12.7151 5.32373C12.2919 4.9174 12.0541 4.3663 12.0541 3.79167C12.0541 3.21703 12.2919 2.66593 12.7151 2.2596C13.1384 1.85327 13.7124 1.625 14.311 1.625C14.9096 1.625 15.4837 1.85327 15.9069 2.2596C16.3302 2.66593 16.568 3.21703 16.568 3.79167C16.568 4.3663 16.3302 4.9174 15.9069 5.32373C15.4837 5.73006 14.9096 5.95833 14.311 5.95833ZM10.9572 20.2378L7.3303 24.3869L5.60148 22.9948L8.95981 19.1533L9.80165 16.7917L11.8227 18.4167L10.9572 20.2378Z" fill="black"/>
</svg>
