<svg width="23" height="24" viewBox="0 0 23 24" fill="none" xmlns="http://www.w3.org/2000/svg">
<path d="M5.40117 5.90122C6.20208 5.10031 7.1529 4.46499 8.19934 4.03154C9.24578 3.59809 10.3673 3.375 11.5 3.375C12.6327 3.375 13.7542 3.59809 14.8007 4.03154C15.8471 4.46499 16.7979 5.10031 17.5988 5.90122C18.3998 6.70213 19.0351 7.65295 19.4685 8.69939C19.902 9.74583 20.1251 10.8674 20.1251 12.0001C20.1251 13.1327 19.902 14.2543 19.4685 15.3007C19.0351 16.3472 18.3998 17.298 17.5988 18.0989C15.9813 19.7164 13.7875 20.6251 11.5 20.6251C9.2125 20.6251 7.01869 19.7164 5.40117 18.0989C3.78366 16.4814 2.87495 14.2876 2.87495 12.0001C2.87495 9.71255 3.78366 7.51873 5.40117 5.90122V5.90122Z" stroke="white" stroke-width="1.85377" stroke-linecap="round"/>
<path d="M5.75 6.25L17.25 17.75" stroke="white" stroke-width="1.85377" stroke-linecap="round"/>
</svg>
